# This file uses centimeters as units for non-parametric coordinates.

mtllib Rampa1.mtl
g default
v -2.392391 0.866955 2.062140
v 2.321927 0.866955 2.062140
v 2.321927 0.866955 0.749612
v -2.392391 0.866955 0.749612
v 2.325039 -0.791058 -2.062140
v -2.389279 -0.791058 -2.062140
v -2.389279 -0.017867 -2.062139
v 2.325039 -0.017867 -2.062139
v 3.160306 -0.017867 -1.533826
v 3.160306 -0.017868 0.749611
v 4.622978 -0.597761 0.749611
v 4.622978 -0.597760 -1.533826
v 3.160306 -0.791058 -1.533826
v 3.160306 -0.017867 -1.533826
v 4.622978 -0.597760 -1.533826
v 5.110538 -0.791058 -1.533826
v 3.157193 0.866955 2.062140
v 3.157193 0.866955 0.749612
v -2.389279 -0.017867 -1.533826
v -2.956973 -0.017867 -1.533826
v -2.956973 -0.017868 0.749611
v -2.389279 -0.017868 0.749611
v -2.389279 -0.791058 -1.533826
v -2.956973 -0.791058 -1.533826
v -2.956973 -0.017867 -1.533826
v -2.389279 -0.017867 -1.533826
v 2.325039 -0.017867 -1.533826
v 3.160306 -0.017867 -1.533826
v 3.160306 -0.791058 -1.533826
v 2.325039 -0.791058 -1.533826
v 2.325039 -0.791059 2.062139
v 2.325039 -0.017868 2.062139
v -2.389279 -0.017868 2.062139
v -2.389279 -0.791059 2.062139
v 3.160306 -0.017868 2.062139
v 3.160306 -0.791059 2.062139
v 4.622978 -0.791059 2.062139
v 4.622978 -0.597761 2.062139
v -2.956973 -0.017868 2.062139
v -2.956973 -0.791059 2.062139
v -2.960085 0.866955 2.062140
v -2.960085 0.866955 0.749612
v -4.575261 0.230140 0.749612
v -4.575261 0.230140 2.062139
v -3.495363 -0.810035 2.062139
v -4.572148 -0.654688 2.062139
v 2.325039 -0.017868 0.749611
v 2.325039 -0.017867 -1.533826
v 4.619871 0.287064 2.062139
v 4.619871 0.287064 0.749612
v 3.160306 -0.017868 0.749611
v 3.160306 -0.017867 -1.533826
v -2.956973 -0.017868 0.749611
v -2.956973 -0.017867 -1.533826
v -4.572148 -0.654687 -1.533826
v -4.572148 -0.654687 0.749611
v 5.110538 -0.791058 0.749611
v 5.110538 -0.791058 -1.533826
v 4.622978 -0.791059 2.062139
v 5.110538 -0.791059 2.062139
v 4.622978 -0.597761 2.062139
v -5.110538 -0.866955 0.749611
v -5.110538 -0.866955 2.062139
v -4.572148 -0.654688 2.062139
v -4.572148 -0.654688 2.062139
v -5.110538 -0.866955 2.062139
v -3.495363 -0.810035 2.062139
v 4.622978 -0.597761 2.062139
v 5.110538 -0.791059 2.062139
v -5.110538 -0.866955 -1.533826
v -2.392391 0.866955 2.062140
v -2.389279 -0.017868 2.062139
v 2.325039 -0.017868 2.062139
v 2.321927 0.866955 2.062140
v 3.160306 -0.017868 2.062139
v 3.157193 0.866955 2.062140
v 4.622978 -0.597761 2.062139
v 4.619871 0.287064 2.062139
v 4.619871 0.287064 2.062139
v 4.622978 -0.597761 2.062139
v 4.622978 -0.597761 0.749611
v 4.619871 0.287064 0.749612
v 4.619871 0.287064 0.749612
v 4.622978 -0.597761 0.749611
v 3.160306 -0.017868 0.749611
v 3.157193 0.866955 0.749612
v 2.325039 -0.017868 0.749611
v 2.321927 0.866955 0.749612
v -2.389279 -0.017868 0.749611
v -2.392391 0.866955 0.749612
v -2.956973 -0.017868 0.749611
v -2.960085 0.866955 0.749612
v -4.572148 -0.654687 0.749611
v -4.575261 0.230140 0.749612
v -4.575261 0.230140 0.749612
v -4.572148 -0.654687 0.749611
v -4.572148 -0.654688 2.062139
v -4.575261 0.230140 2.062139
v -4.575261 0.230140 2.062139
v -4.572148 -0.654688 2.062139
v -2.956973 -0.017868 2.062139
v -2.960085 0.866955 2.062140
v -3.495363 -0.810034 -1.551063
v -4.572148 -0.654687 -1.533826
v -2.956973 -0.017867 -1.533826
v -2.956973 -0.791058 -1.533826
v -5.110538 -0.866955 -1.533826
v -2.389279 -0.791058 -2.062140
v -2.389279 -0.791058 -1.533826
v -2.389279 -0.017867 -1.533826
v -2.389279 -0.017867 -2.062139
v -2.389279 -0.017867 -2.062139
v 2.325039 -0.017867 -2.062139
v 2.325039 -0.017867 -2.062139
v 2.325039 -0.017867 -1.533826
v 2.325039 -0.791058 -1.533826
v 2.325039 -0.791058 -2.062140
v 2.325039 -0.791058 -2.062140
v 2.325039 -0.791058 -1.533826
v -2.389279 -0.791058 -1.533826
v -2.389279 -0.791058 -2.062140
vt 0.056464 0.699015
vt 0.056469 0.267915
vt 0.152817 0.267918
vt 0.152818 0.699018
vt 0.481966 0.000500
vt 0.918331 0.032804
vt 0.906926 0.075151
vt 0.485432 0.044339
vt 0.396887 0.629772
vt 0.396887 0.795266
vt 0.257939 0.795264
vt 0.257938 0.629771
vt 0.384237 0.583040
vt 0.396887 0.629772
vt 0.257938 0.629771
vt 0.211622 0.629771
vt 0.058229 0.193432
vt 0.151063 0.193434
vt 0.917858 0.102945
vt 0.970401 0.117732
vt 0.947471 0.278815
vt 0.896981 0.270590
vt 0.947809 0.055729
vt 0.990949 0.077813
vt 0.970401 0.117732
vt 0.917858 0.102945
vt 0.469207 0.069320
vt 0.389172 0.075690
vt 0.379738 0.031311
vt 0.450422 0.016986
vt 0.788475 0.919927
vt 0.790419 0.968302
vt 0.358482 0.985645
vt 0.356542 0.937270
vt 0.866948 0.965223
vt 0.865001 0.916848
vt 0.999013 0.911452
vt 0.999500 0.923546
vt 0.306468 0.987729
vt 0.304531 0.939354
vt 0.058120 0.748902
vt 0.151158 0.748906
vt 0.152686 0.900984
vt 0.056576 0.900982
vt 0.255155 0.940141
vt 0.156887 0.953807
vt 0.465389 0.238036
vt 0.469207 0.069320
vt 0.056498 0.055927
vt 0.152805 0.055929
vt 0.389768 0.238935
vt 0.389172 0.075690
vt 0.684898 0.471535
vt 0.684692 0.305134
vt 0.838727 0.301360
vt 0.840975 0.473529
vt 0.211623 0.795264
vt 0.211622 0.629771
vt 0.254777 0.902072
vt 0.211623 0.890389
vt 0.257940 0.890389
vt 0.884813 0.455628
vt 0.939751 0.507187
vt 0.927531 0.551444
vt 0.927531 0.551444
vt 0.939751 0.507187
vt 0.992238 0.639118
vt 0.257940 0.890389
vt 0.211623 0.890389
vt 0.889747 0.298575
vt 0.056464 0.699015
vt 0.000516 0.701094
vt 0.000500 0.265904
vt 0.056469 0.267915
vt 0.004833 0.185239
vt 0.058229 0.193432
vt 0.001561 0.043323
vt 0.056498 0.055927
vt 0.056498 0.055927
vt 0.057069 0.000500
vt 0.152235 0.000500
vt 0.152805 0.055929
vt 0.152805 0.055929
vt 0.207744 0.043330
vt 0.204459 0.185246
vt 0.151063 0.193434
vt 0.208785 0.265910
vt 0.152817 0.267918
vt 0.208767 0.701101
vt 0.152818 0.699018
vt 0.204670 0.757238
vt 0.151158 0.748906
vt 0.207504 0.913343
vt 0.152686 0.900984
vt 0.152686 0.900984
vt 0.152214 0.956411
vt 0.057048 0.956411
vt 0.056576 0.900982
vt 0.056576 0.900982
vt 0.001756 0.913334
vt 0.004606 0.757229
vt 0.058120 0.748902
vt 0.743821 0.269530
vt 0.838727 0.301360
vt 0.684692 0.305134
vt 0.695466 0.258538
vt 0.889747 0.298575
vt 0.918331 0.032804
vt 0.947809 0.055729
vt 0.917858 0.102945
vt 0.906926 0.075151
vt 0.906926 0.075151
vt 0.485432 0.044339
vt 0.485432 0.044339
vt 0.469207 0.069320
vt 0.450422 0.016986
vt 0.481966 0.000500
vt 0.360189 0.985813
vt 0.360189 0.985813
vt 0.642641 0.985831
vt 0.642641 0.985831
vn -0.000000 1.000000 -0.000000
vn -0.000000 1.000000 -0.000000
vn -0.000000 1.000000 -0.000000
vn -0.000000 1.000000 -0.000000
vn -0.000000 1.000000 -0.000000
vn -0.000000 1.000000 -0.000000
vn 0.000000 0.000000 -1.000000
vn 0.000000 0.000000 -1.000000
vn 0.000000 0.000000 -1.000000
vn 0.000000 0.000000 -1.000000
vn 0.000000 0.000000 -1.000000
vn 0.000000 0.000000 -1.000000
vn 0.240700 0.970600 0.000000
vn 0.240700 0.970600 0.000000
vn 0.240700 0.970600 0.000000
vn 0.240700 0.970600 0.000000
vn 0.240700 0.970600 0.000000
vn 0.240700 0.970600 0.000000
vn 0.000000 0.000000 -1.000000
vn 0.000000 0.000000 -1.000000
vn 0.000000 0.000000 -1.000000
vn 0.000000 0.000000 -1.000000
vn 0.000000 0.000000 -1.000000
vn 0.000000 0.000000 -1.000000
vn -0.000000 1.000000 -0.000000
vn 0.120194 0.992750 0.000000
vn 0.120194 0.992750 0.000000
vn 0.120194 0.992750 0.000000
vn -0.000000 1.000000 -0.000000
vn -0.000000 1.000000 -0.000000
vn -0.000000 1.000000 -0.000000
vn -0.000000 1.000000 -0.000000
vn -0.000000 1.000000 -0.000000
vn -0.000000 1.000000 -0.000000
vn -0.000000 1.000000 -0.000000
vn -0.000000 1.000000 -0.000000
vn 0.000000 0.000000 -1.000000
vn 0.000000 0.000000 -1.000000
vn 0.000000 0.000000 -1.000000
vn 0.000000 0.000000 -1.000000
vn 0.000000 0.000000 -1.000000
vn 0.000000 0.000000 -1.000000
vn 0.000000 0.000000 -1.000000
vn 0.000000 0.000000 -1.000000
vn 0.000000 0.000000 -1.000000
vn 0.000000 0.000000 -1.000000
vn 0.000000 0.000000 -1.000000
vn 0.000000 0.000000 -1.000000
vn 0.000000 0.000000 1.000000
vn 0.000000 0.000000 1.000000
vn 0.000000 0.000000 1.000000
vn 0.000000 0.000000 1.000000
vn 0.000000 0.000000 1.000000
vn 0.000000 0.000000 1.000000
vn 0.000000 0.000000 1.000000
vn 0.000000 0.000000 1.000000
vn 0.000000 0.000000 1.000000
vn 0.000000 0.000000 1.000000
vn 0.000000 0.000000 1.000000
vn 0.000000 0.000000 1.000000
vn 0.000000 0.000000 1.000000
vn 0.000000 0.000000 1.000000
vn 0.000000 0.000000 1.000000
vn 0.000000 0.000000 1.000000
vn 0.000000 0.000000 1.000000
vn 0.000000 0.000000 1.000000
vn 0.000000 0.000000 1.000000
vn 0.000000 0.000000 1.000000
vn 0.000000 0.000000 1.000000
vn 0.000000 0.000000 1.000000
vn 0.000000 0.000000 1.000000
vn 0.000000 0.000000 1.000000
vn -0.119603 0.992822 -0.000000
vn -0.119603 0.992822 -0.000000
vn -0.239499 0.970897 -0.000000
vn -0.239499 0.970897 -0.000000
vn -0.239499 0.970897 -0.000000
vn -0.119603 0.992822 -0.000000
vn 0.000000 0.000000 1.000000
vn 0.000000 0.000000 1.000000
vn 0.000000 0.000000 1.000000
vn 0.000000 0.000000 1.000000
vn 0.000000 0.000000 1.000000
vn 0.000000 0.000000 1.000000
vn -0.000000 1.000000 -0.000000
vn -0.000000 1.000000 -0.000000
vn -0.000000 1.000000 -0.000000
vn -0.000000 1.000000 -0.000000
vn -0.000000 1.000000 -0.000000
vn -0.000000 1.000000 -0.000000
vn 0.120194 0.992750 0.000000
vn 0.120194 0.992750 0.000000
vn 0.240700 0.970600 0.000000
vn 0.240700 0.970600 0.000000
vn 0.240700 0.970600 0.000000
vn 0.120194 0.992750 0.000000
vn -0.000000 1.000000 -0.000000
vn -0.000000 1.000000 -0.000000
vn -0.000000 1.000000 -0.000000
vn -0.000000 1.000000 -0.000000
vn -0.000000 1.000000 -0.000000
vn -0.000000 1.000000 -0.000000
vn -0.119603 0.992822 -0.000000
vn -0.119603 0.992822 -0.000000
vn -0.000000 1.000000 -0.000000
vn -0.000000 1.000000 -0.000000
vn -0.000000 1.000000 -0.000000
vn -0.119603 0.992822 -0.000000
vn -0.239499 0.970897 -0.000000
vn -0.239499 0.970897 -0.000000
vn -0.239499 0.970897 -0.000000
vn -0.239499 0.970897 -0.000000
vn -0.239499 0.970897 -0.000000
vn -0.239499 0.970897 -0.000000
vn 0.240700 0.970600 0.000000
vn 0.240700 0.970600 0.000000
vn 0.240700 0.970600 0.000000
vn 0.240700 0.970600 0.000000
vn 0.240700 0.970600 0.000000
vn 0.240700 0.970600 0.000000
vn 0.000000 0.000000 1.000000
vn 0.000000 0.000000 1.000000
vn 0.000000 0.000000 1.000000
vn -0.239499 0.970897 -0.000000
vn -0.239499 0.970897 -0.000000
vn -0.239499 0.970897 -0.000000
vn -0.239499 0.970897 -0.000000
vn -0.239499 0.970897 -0.000000
vn -0.239499 0.970897 -0.000000
vn 0.000000 0.000000 1.000000
vn 0.000000 0.000000 1.000000
vn 0.000000 0.000000 1.000000
vn 0.240700 0.970600 0.000000
vn 0.240700 0.970600 0.000000
vn 0.240700 0.970600 0.000000
vn 0.240700 0.970600 0.000000
vn 0.240700 0.970600 0.000000
vn 0.240700 0.970600 0.000000
vn -0.239499 0.970897 -0.000000
vn -0.239499 0.970897 -0.000000
vn -0.239499 0.970897 -0.000000
vn -0.239499 0.970897 -0.000000
vn -0.239499 0.970897 -0.000000
vn -0.239499 0.970897 -0.000000
vn 0.000000 0.000000 1.000000
vn 0.000000 0.000000 1.000000
vn 0.000000 0.000000 1.000000
vn 0.000000 0.000000 1.000000
vn 0.000000 0.000000 1.000000
vn 0.000000 0.000000 1.000000
vn 0.000000 0.000000 1.000000
vn 0.000000 0.000000 1.000000
vn 0.000000 0.000000 1.000000
vn 0.000000 0.000000 1.000000
vn 0.000000 0.000000 1.000000
vn 0.000000 0.000000 1.000000
vn 0.000000 0.000000 1.000000
vn 0.000000 0.000000 1.000000
vn 0.000000 0.000000 1.000000
vn 0.000000 0.000000 1.000000
vn 0.000000 0.000000 1.000000
vn 0.000000 0.000000 1.000000
vn 0.999984 0.005600 0.000000
vn 0.999984 0.005600 0.000000
vn 0.999984 0.005600 0.000000
vn 0.999984 0.005600 0.000000
vn 0.999984 0.005600 0.000000
vn 0.999984 0.005600 0.000000
vn 0.000000 0.000000 -1.000000
vn 0.000000 0.000000 -1.000000
vn 0.000000 0.000000 -1.000000
vn 0.000000 0.000000 -1.000000
vn 0.000000 0.000000 -1.000000
vn 0.000000 0.000000 -1.000000
vn 0.000000 0.000000 -1.000000
vn 0.000000 0.000000 -1.000000
vn 0.000000 0.000000 -1.000000
vn 0.000000 0.000000 -1.000000
vn 0.000000 0.000000 -1.000000
vn 0.000000 0.000000 -1.000000
vn 0.000000 0.000000 -1.000000
vn 0.000000 0.000000 -1.000000
vn 0.000000 0.000000 -1.000000
vn 0.000000 0.000000 -1.000000
vn 0.000000 0.000000 -1.000000
vn 0.000000 0.000000 -1.000000
vn 0.000000 0.000000 -1.000000
vn 0.000000 0.000000 -1.000000
vn 0.000000 0.000000 -1.000000
vn 0.000000 0.000000 -1.000000
vn 0.000000 0.000000 -1.000000
vn 0.000000 0.000000 -1.000000
vn 0.000000 0.000000 -1.000000
vn 0.000000 0.000000 -1.000000
vn 0.000000 0.000000 -1.000000
vn 0.000000 0.000000 -1.000000
vn 0.000000 0.000000 -1.000000
vn 0.000000 0.000000 -1.000000
vn -0.999984 -0.005600 0.000000
vn -0.999985 -0.005500 0.000000
vn -0.999984 -0.005600 0.000000
vn -0.999984 -0.005600 0.000000
vn -0.999984 -0.005600 0.000000
vn -0.999984 -0.005600 0.000000
vn 0.000000 0.000000 1.000000
vn 0.000000 0.000000 1.000000
vn 0.000000 0.000000 1.000000
vn 0.000000 0.000000 1.000000
vn 0.000000 0.000000 1.000000
vn 0.000000 0.000000 1.000000
vn 0.000000 0.000000 1.000000
vn 0.000000 0.000000 1.000000
vn 0.000000 0.000000 1.000000
vn 0.000000 0.000000 1.000000
vn 0.000000 0.000000 1.000000
vn 0.000000 0.000000 1.000000
vn -0.000100 0.029199 -0.999574
vn -0.009800 0.039798 -0.999160
vn 0.010700 0.017500 -0.999790
vn 0.010700 0.017500 -0.999790
vn 0.026801 0.000000 -0.999641
vn -0.000100 0.029199 -0.999574
vn -0.009800 0.039798 -0.999160
vn -0.009800 0.039798 -0.999160
vn -0.000100 0.029199 -0.999574
vn -1.000000 0.000000 0.000000
vn -1.000000 0.000000 0.000000
vn -1.000000 0.000000 0.000000
vn -1.000000 0.000000 0.000000
vn -1.000000 0.000000 0.000000
vn -1.000000 0.000000 0.000000
vn -0.000000 1.000000 -0.000000
vn -0.000000 1.000000 -0.000000
vn -0.000000 1.000000 -0.000000
vn -0.000000 1.000000 -0.000000
vn -0.000000 1.000000 -0.000000
vn -0.000000 1.000000 -0.000000
vn 1.000000 0.000000 0.000000
vn 1.000000 0.000000 0.000000
vn 1.000000 0.000000 0.000000
vn 1.000000 0.000000 0.000000
vn 1.000000 0.000000 0.000000
vn 1.000000 0.000000 0.000000
vn 0.000000 -1.000000 0.000000
vn 0.000000 -1.000000 0.000000
vn 0.000000 -1.000000 0.000000
vn 0.000000 -1.000000 0.000000
vn 0.000000 -1.000000 0.000000
vn 0.000000 -1.000000 0.000000
s off
g Rampa1:Mesh
usemtl Rampa1:DefaultMaterial
f 1/1/1 2/2/2 3/3/3
f 3/3/4 4/4/5 1/1/6
f 5/5/7 6/6/8 7/7/9
f 7/7/10 8/8/11 5/5/12
f 9/9/13 10/10/14 11/11/15
f 11/11/16 12/12/17 9/9/18
f 13/13/19 14/14/20 15/15/21
f 13/13/22 15/15/23 16/16/24
f 2/2/25 17/17/26 18/18/27
f 18/18/28 3/3/29 2/2/30
f 19/19/31 20/20/32 21/21/33
f 21/21/34 22/22/35 19/19/36
f 23/23/37 24/24/38 25/25/39
f 25/25/40 26/26/41 23/23/42
f 27/27/43 28/28/44 29/29/45
f 29/29/46 30/30/47 27/27/48
f 31/31/49 32/32/50 33/33/51
f 33/33/52 34/34/53 31/31/54
f 35/35/55 36/36/56 37/37/57
f 37/37/58 38/38/59 35/35/60
f 36/36/61 35/35/62 32/32/63
f 32/32/64 31/31/65 36/36/66
f 34/34/67 33/33/68 39/39/69
f 39/39/70 40/40/71 34/34/72
f 41/41/73 42/42/74 43/43/75
f 43/43/76 44/44/77 41/41/78
f 45/45/79 40/40/80 39/39/81
f 39/39/82 46/46/83 45/45/84
f 47/47/85 48/48/86 19/19/87
f 19/19/88 22/22/89 47/47/90
f 18/18/91 17/17/92 49/49/93
f 49/49/94 50/50/95 18/18/96
f 51/51/97 52/52/98 48/48/99
f 48/48/100 47/47/101 51/51/102
f 42/42/103 41/41/104 1/1/105
f 1/1/106 4/4/107 42/42/108
f 53/53/109 54/54/110 55/55/111
f 55/55/112 56/56/113 53/53/114
f 11/11/115 57/57/116 58/58/117
f 58/58/118 12/12/119 11/11/120
f 59/59/121 60/60/122 61/61/123
f 56/56/124 62/62/125 63/63/126
f 63/63/127 64/64/128 56/56/129
f 65/65/130 66/66/131 67/67/132
f 68/68/133 69/69/134 57/57/135
f 57/57/136 11/11/137 68/68/138
f 55/55/139 70/70/140 62/62/141
f 62/62/142 56/56/143 55/55/144
f 71/71/145 72/72/146 73/73/147
f 73/73/148 74/74/149 71/71/150
f 74/74/151 73/73/152 75/75/153
f 75/75/154 76/76/155 74/74/156
f 76/76/157 75/75/158 77/77/159
f 77/77/160 78/78/161 76/76/162
f 79/79/163 80/80/164 81/81/165
f 81/81/166 82/82/167 79/79/168
f 83/83/169 84/84/170 85/85/171
f 85/85/172 86/86/173 83/83/174
f 86/86/175 85/85/176 87/87/177
f 87/87/178 88/88/179 86/86/180
f 88/88/181 87/87/182 89/89/183
f 89/89/184 90/90/185 88/88/186
f 90/90/187 89/89/188 91/91/189
f 91/91/190 92/92/191 90/90/192
f 92/92/193 91/91/194 93/93/195
f 93/93/196 94/94/197 92/92/198
f 95/95/199 96/96/200 97/97/201
f 97/97/202 98/98/203 95/95/204
f 99/99/205 100/100/206 101/101/207
f 101/101/208 102/102/209 99/99/210
f 102/102/211 101/101/212 72/72/213
f 72/72/214 71/71/215 102/102/216
f 103/103/217 104/104/218 105/105/219
f 105/105/220 106/106/221 103/103/222
f 107/107/223 104/104/224 103/103/225
f 108/108/226 109/109/227 110/110/228
f 110/110/229 111/111/230 108/108/231
f 112/112/232 19/19/233 48/48/234
f 48/48/235 113/113/236 112/112/237
f 114/114/238 115/115/239 116/116/240
f 116/116/241 117/117/242 114/114/243
f 118/118/244 119/119/245 120/120/246
f 120/120/247 121/121/248 118/118/249
