# Blender 3.1.0
# www.blender.org
mtllib Rampa.mtl
o funbox
v -2.392391 0.866955 2.062140
v 2.321927 0.866955 2.062140
v 2.321927 0.866955 0.749612
v -2.392391 0.866955 0.749612
v 2.325039 -0.791058 -2.062140
v -2.389279 -0.791058 -2.062140
v -2.389279 -0.017867 -2.062139
v 2.325039 -0.017867 -2.062139
v 3.160306 -0.017867 -1.533826
v 3.160306 -0.017868 0.749611
v 4.622978 -0.597761 0.749611
v 4.622978 -0.597760 -1.533826
v 3.160306 -0.791058 -1.533826
v 3.160306 -0.017867 -1.533826
v 4.622978 -0.597760 -1.533826
v 5.110538 -0.791058 -1.533826
v 3.157193 0.866955 2.062140
v 3.157193 0.866955 0.749612
v -2.389279 -0.017867 -1.533826
v -2.956973 -0.017867 -1.533826
v -2.956973 -0.017868 0.749611
v -2.389279 -0.017868 0.749611
v -2.389279 -0.791058 -1.533826
v -2.956973 -0.791058 -1.533826
v -2.956973 -0.017867 -1.533826
v -2.389279 -0.017867 -1.533826
v 2.325039 -0.017867 -1.533826
v 3.160306 -0.017867 -1.533826
v 3.160306 -0.791058 -1.533826
v 2.325039 -0.791058 -1.533826
v 2.325039 -0.791059 2.062139
v 2.325039 -0.017868 2.062139
v -2.389279 -0.017868 2.062139
v -2.389279 -0.791059 2.062139
v 3.160306 -0.017868 2.062139
v 3.160306 -0.791059 2.062139
v 4.622978 -0.791059 2.062139
v 4.622978 -0.597761 2.062139
v -2.956973 -0.017868 2.062139
v -2.956973 -0.791059 2.062139
v -2.960085 0.866955 2.062140
v -2.960085 0.866955 0.749612
v -4.575261 0.230140 0.749612
v -4.575261 0.230140 2.062139
v -3.495363 -0.810035 2.062139
v -4.572148 -0.654688 2.062139
v 2.325039 -0.017868 0.749611
v 2.325039 -0.017867 -1.533826
v 4.619871 0.287064 2.062139
v 4.619871 0.287064 0.749612
v 3.160306 -0.017868 0.749611
v 3.160306 -0.017867 -1.533826
v -2.956973 -0.017868 0.749611
v -2.956973 -0.017867 -1.533826
v -4.572148 -0.654687 -1.533826
v -4.572148 -0.654687 0.749611
v 5.110538 -0.791058 0.749611
v 5.110538 -0.791058 -1.533826
v 4.622978 -0.791059 2.062139
v 5.110538 -0.791059 2.062139
v 4.622978 -0.597761 2.062139
v -5.110538 -0.866955 0.749611
v -5.110538 -0.866955 2.062139
v -4.572148 -0.654688 2.062139
v -4.572148 -0.654688 2.062139
v -5.110538 -0.866955 2.062139
v -3.495363 -0.810035 2.062139
v 4.622978 -0.597761 2.062139
v 5.110538 -0.791059 2.062139
v -5.110538 -0.866955 -1.533826
v -2.392391 0.866955 2.062140
v -2.389279 -0.017868 2.062139
v 2.325039 -0.017868 2.062139
v 2.321927 0.866955 2.062140
v 3.160306 -0.017868 2.062139
v 3.157193 0.866955 2.062140
v 4.622978 -0.597761 2.062139
v 4.619871 0.287064 2.062139
v 4.619871 0.287064 2.062139
v 4.622978 -0.597761 2.062139
v 4.622978 -0.597761 0.749611
v 4.619871 0.287064 0.749612
v 4.619871 0.287064 0.749612
v 4.622978 -0.597761 0.749611
v 3.160306 -0.017868 0.749611
v 3.157193 0.866955 0.749612
v 2.325039 -0.017868 0.749611
v 2.321927 0.866955 0.749612
v -2.389279 -0.017868 0.749611
v -2.392391 0.866955 0.749612
v -2.956973 -0.017868 0.749611
v -2.960085 0.866955 0.749612
v -4.572148 -0.654687 0.749611
v -4.575261 0.230140 0.749612
v -4.575261 0.230140 0.749612
v -4.572148 -0.654687 0.749611
v -4.572148 -0.654688 2.062139
v -4.575261 0.230140 2.062139
v -4.575261 0.230140 2.062139
v -4.572148 -0.654688 2.062139
v -2.956973 -0.017868 2.062139
v -2.960085 0.866955 2.062140
v -3.495363 -0.810034 -1.551063
v -4.572148 -0.654687 -1.533826
v -2.956973 -0.017867 -1.533826
v -2.956973 -0.791058 -1.533826
v -5.110538 -0.866955 -1.533826
v -2.389279 -0.791058 -2.062140
v -2.389279 -0.791058 -1.533826
v -2.389279 -0.017867 -1.533826
v -2.389279 -0.017867 -2.062139
v -2.389279 -0.017867 -2.062139
v 2.325039 -0.017867 -2.062139
v 2.325039 -0.017867 -2.062139
v 2.325039 -0.017867 -1.533826
v 2.325039 -0.791058 -1.533826
v 2.325039 -0.791058 -2.062140
v 2.325039 -0.791058 -2.062140
v 2.325039 -0.791058 -1.533826
v -2.389279 -0.791058 -1.533826
v -2.389279 -0.791058 -2.062140
vn -0.0000 1.0000 -0.0000
vn -0.0000 -0.0000 -1.0000
vn 0.2407 0.9706 -0.0000
vn 0.1202 0.9928 -0.0000
vn -0.0000 -0.0000 1.0000
vn -0.1196 0.9928 -0.0000
vn -0.2395 0.9709 -0.0000
vn 1.0000 0.0056 -0.0000
vn -1.0000 -0.0056 -0.0000
vn -1.0000 -0.0055 -0.0000
vn -0.0001 0.0292 -0.9996
vn -0.0098 0.0398 -0.9992
vn 0.0107 0.0175 -0.9998
vn 0.0268 -0.0000 -0.9996
vn -1.0000 -0.0000 -0.0000
vn 1.0000 -0.0000 -0.0000
vn -0.0000 -1.0000 -0.0000
vt 0.056464 0.699015
vt 0.056469 0.267915
vt 0.152817 0.267918
vt 0.152818 0.699018
vt 0.481966 0.000500
vt 0.918331 0.032804
vt 0.906926 0.075151
vt 0.485432 0.044339
vt 0.396887 0.629772
vt 0.396887 0.795266
vt 0.257939 0.795264
vt 0.257938 0.629771
vt 0.384237 0.583040
vt 0.396887 0.629772
vt 0.257938 0.629771
vt 0.211622 0.629771
vt 0.058229 0.193432
vt 0.151063 0.193434
vt 0.917858 0.102945
vt 0.970401 0.117732
vt 0.947471 0.278815
vt 0.896981 0.270590
vt 0.947809 0.055729
vt 0.990949 0.077813
vt 0.970401 0.117732
vt 0.917858 0.102945
vt 0.469207 0.069320
vt 0.389172 0.075690
vt 0.379738 0.031311
vt 0.450422 0.016986
vt 0.788475 0.919927
vt 0.790419 0.968302
vt 0.358482 0.985645
vt 0.356542 0.937270
vt 0.866948 0.965223
vt 0.865001 0.916848
vt 0.999013 0.911452
vt 0.999500 0.923546
vt 0.306468 0.987729
vt 0.304531 0.939354
vt 0.058120 0.748902
vt 0.151158 0.748906
vt 0.152686 0.900984
vt 0.056576 0.900982
vt 0.255155 0.940141
vt 0.156887 0.953807
vt 0.465389 0.238036
vt 0.469207 0.069320
vt 0.056498 0.055927
vt 0.152805 0.055929
vt 0.389768 0.238935
vt 0.389172 0.075690
vt 0.684898 0.471535
vt 0.684692 0.305134
vt 0.838727 0.301360
vt 0.840975 0.473529
vt 0.211623 0.795264
vt 0.211622 0.629771
vt 0.254777 0.902072
vt 0.211623 0.890389
vt 0.257940 0.890389
vt 0.884813 0.455628
vt 0.939751 0.507187
vt 0.927531 0.551444
vt 0.927531 0.551444
vt 0.939751 0.507187
vt 0.992238 0.639118
vt 0.257940 0.890389
vt 0.211623 0.890389
vt 0.889747 0.298575
vt 0.056464 0.699015
vt 0.000516 0.701094
vt 0.000500 0.265904
vt 0.056469 0.267915
vt 0.004833 0.185239
vt 0.058229 0.193432
vt 0.001561 0.043323
vt 0.056498 0.055927
vt 0.056498 0.055927
vt 0.057069 0.000500
vt 0.152235 0.000500
vt 0.152805 0.055929
vt 0.152805 0.055929
vt 0.207744 0.043330
vt 0.204459 0.185246
vt 0.151063 0.193434
vt 0.208785 0.265910
vt 0.152817 0.267918
vt 0.208767 0.701101
vt 0.152818 0.699018
vt 0.204670 0.757238
vt 0.151158 0.748906
vt 0.207504 0.913343
vt 0.152686 0.900984
vt 0.152686 0.900984
vt 0.152214 0.956411
vt 0.057048 0.956411
vt 0.056576 0.900982
vt 0.056576 0.900982
vt 0.001756 0.913334
vt 0.004606 0.757229
vt 0.058120 0.748902
vt 0.743821 0.269530
vt 0.838727 0.301360
vt 0.684692 0.305134
vt 0.695466 0.258538
vt 0.889747 0.298575
vt 0.918331 0.032804
vt 0.947809 0.055729
vt 0.917858 0.102945
vt 0.906926 0.075151
vt 0.906926 0.075151
vt 0.485432 0.044339
vt 0.485432 0.044339
vt 0.469207 0.069320
vt 0.450422 0.016986
vt 0.481966 0.000500
vt 0.360189 0.985813
vt 0.360189 0.985813
vt 0.642641 0.985831
vt 0.642641 0.985831
s 1
usemtl DefaultMaterial
f 1/1/1 2/2/1 3/3/1
f 3/3/1 4/4/1 1/1/1
f 5/5/2 6/6/2 7/7/2
f 7/7/2 8/8/2 5/5/2
f 9/9/3 10/10/3 11/11/3
f 11/11/3 12/12/3 9/9/3
f 13/13/2 14/14/2 15/15/2
f 13/13/2 15/15/2 16/16/2
f 2/2/1 17/17/4 18/18/4
f 18/18/4 3/3/1 2/2/1
f 19/19/1 20/20/1 21/21/1
f 21/21/1 22/22/1 19/19/1
f 23/23/2 24/24/2 25/25/2
f 25/25/2 26/26/2 23/23/2
f 27/27/2 28/28/2 29/29/2
f 29/29/2 30/30/2 27/27/2
f 31/31/5 32/32/5 33/33/5
f 33/33/5 34/34/5 31/31/5
f 35/35/5 36/36/5 37/37/5
f 37/37/5 38/38/5 35/35/5
f 36/36/5 35/35/5 32/32/5
f 32/32/5 31/31/5 36/36/5
f 34/34/5 33/33/5 39/39/5
f 39/39/5 40/40/5 34/34/5
f 41/41/6 42/42/6 43/43/7
f 43/43/7 44/44/7 41/41/6
f 45/45/5 40/40/5 39/39/5
f 39/39/5 46/46/5 45/45/5
f 47/47/1 48/48/1 19/19/1
f 19/19/1 22/22/1 47/47/1
f 18/18/4 17/17/4 49/49/3
f 49/49/3 50/50/3 18/18/4
f 51/51/1 52/52/1 48/48/1
f 48/48/1 47/47/1 51/51/1
f 42/42/6 41/41/6 1/1/1
f 1/1/1 4/4/1 42/42/6
f 53/53/7 54/54/7 55/55/7
f 55/55/7 56/56/7 53/53/7
f 11/11/3 57/57/3 58/58/3
f 58/58/3 12/12/3 11/11/3
f 59/59/5 60/60/5 61/61/5
f 56/56/7 62/62/7 63/63/7
f 63/63/7 64/64/7 56/56/7
f 65/65/5 66/66/5 67/67/5
f 68/68/3 69/69/3 57/57/3
f 57/57/3 11/11/3 68/68/3
f 55/55/7 70/70/7 62/62/7
f 62/62/7 56/56/7 55/55/7
f 71/71/5 72/72/5 73/73/5
f 73/73/5 74/74/5 71/71/5
f 74/74/5 73/73/5 75/75/5
f 75/75/5 76/76/5 74/74/5
f 76/76/5 75/75/5 77/77/5
f 77/77/5 78/78/5 76/76/5
f 79/79/8 80/80/8 81/81/8
f 81/81/8 82/82/8 79/79/8
f 83/83/2 84/84/2 85/85/2
f 85/85/2 86/86/2 83/83/2
f 86/86/2 85/85/2 87/87/2
f 87/87/2 88/88/2 86/86/2
f 88/88/2 87/87/2 89/89/2
f 89/89/2 90/90/2 88/88/2
f 90/90/2 89/89/2 91/91/2
f 91/91/2 92/92/2 90/90/2
f 92/92/2 91/91/2 93/93/2
f 93/93/2 94/94/2 92/92/2
f 95/95/9 96/96/10 97/97/9
f 97/97/9 98/98/9 95/95/9
f 99/99/5 100/100/5 101/101/5
f 101/101/5 102/102/5 99/99/5
f 102/102/5 101/101/5 72/72/5
f 72/72/5 71/71/5 102/102/5
f 103/103/11 104/104/12 105/105/13
f 105/105/13 106/106/14 103/103/11
f 107/107/12 104/104/12 103/103/11
f 108/108/15 109/109/15 110/110/15
f 110/110/15 111/111/15 108/108/15
f 112/112/1 19/19/1 48/48/1
f 48/48/1 113/113/1 112/112/1
f 114/114/16 115/115/16 116/116/16
f 116/116/16 117/117/16 114/114/16
f 118/118/17 119/119/17 120/120/17
f 120/120/17 121/121/17 118/118/17
