# This file uses centimeters as units for non-parametric coordinates.

mtllib PufferIzq.mtl
g default
v -0.129612 2.812874 0.057669
v -0.098047 2.823769 0.071816
v -0.159382 2.840936 0.057347
v -0.111312 2.846550 0.074367
v -0.175159 2.884847 0.058239
v -0.116825 2.880555 0.077534
v -0.177605 2.937672 0.058812
v -0.113314 2.919844 0.075962
v -0.143536 2.971018 0.058689
v -0.093529 2.942954 0.071882
v -0.064867 2.842257 0.080711
v -0.060211 2.877584 0.085241
v -0.053181 2.903996 0.086963
v -0.129612 2.812874 0.057669
v -0.159382 2.840936 0.057347
v -0.098047 2.823769 0.071816
v -0.111312 2.846550 0.074367
v -0.064867 2.842257 0.080711
v -0.116825 2.880555 0.077534
v -0.060211 2.877584 0.085241
v -0.113314 2.919844 0.075962
v -0.053057 2.903996 0.086560
v -0.093529 2.942954 0.071882
v -0.175159 2.884847 0.058239
v -0.177605 2.937672 0.058812
v -0.143536 2.971018 0.058689
v -0.129612 2.812874 0.057669
v -0.098047 2.823769 0.071816
v -0.159382 2.840936 0.057347
v -0.111312 2.846550 0.074367
v -0.175159 2.884847 0.058239
v -0.116825 2.880555 0.077534
v -0.177605 2.937672 0.058812
v -0.113314 2.919844 0.075962
v -0.143536 2.971018 0.058689
v -0.093529 2.942954 0.071882
v -0.064867 2.842257 0.080711
v -0.060211 2.877584 0.085241
v -0.053181 2.903996 0.086963
v -0.129612 2.812874 0.057669
v -0.159382 2.840936 0.057347
v -0.098047 2.823769 0.071816
v -0.111312 2.846550 0.074367
v -0.064867 2.842257 0.080711
v -0.116825 2.880555 0.077534
v -0.060211 2.877584 0.085241
v -0.113314 2.919844 0.075962
v -0.053057 2.903996 0.086560
v -0.093529 2.942954 0.071882
v -0.175159 2.884847 0.058239
v -0.177605 2.937672 0.058812
v -0.143536 2.971018 0.058689
v -0.129612 2.812874 0.057669
v -0.098047 2.823769 0.071816
v -0.159382 2.840936 0.057347
v -0.111312 2.846550 0.074367
v -0.175159 2.884847 0.058239
v -0.116825 2.880555 0.077534
v -0.177605 2.937672 0.058812
v -0.113314 2.919844 0.075962
v -0.143536 2.971018 0.058689
v -0.093529 2.942954 0.071882
v -0.064867 2.842257 0.080711
v -0.060211 2.877584 0.085241
v -0.053181 2.903996 0.086963
v -0.129612 2.812874 0.057669
v -0.159382 2.840936 0.057347
v -0.098047 2.823769 0.071816
v -0.111312 2.846550 0.074367
v -0.064867 2.842257 0.080711
v -0.116825 2.880555 0.077534
v -0.060211 2.877584 0.085241
v -0.113314 2.919844 0.075962
v -0.053057 2.903996 0.086560
v -0.093529 2.942954 0.071882
v -0.175159 2.884847 0.058239
v -0.177605 2.937672 0.058812
v -0.143536 2.971018 0.058689
v -0.129612 2.812874 0.057669
v -0.098047 2.823769 0.071816
v -0.159382 2.840936 0.057347
v -0.111312 2.846550 0.074367
v -0.175159 2.884847 0.058239
v -0.116825 2.880555 0.077534
v -0.177605 2.937672 0.058812
v -0.113314 2.919844 0.075962
v -0.143536 2.971018 0.058689
v -0.093529 2.942954 0.071882
v -0.064867 2.842257 0.080711
v -0.060211 2.877584 0.085241
v -0.053181 2.903996 0.086963
v -0.129612 2.812874 0.057669
v -0.159382 2.840936 0.057347
v -0.098047 2.823769 0.071816
v -0.111312 2.846550 0.074367
v -0.064867 2.842257 0.080711
v -0.116825 2.880555 0.077534
v -0.060211 2.877584 0.085241
v -0.113314 2.919844 0.075962
v -0.053057 2.903996 0.086560
v -0.093529 2.942954 0.071882
v -0.175159 2.884847 0.058239
v -0.177605 2.937672 0.058812
v -0.143536 2.971018 0.058689
vt 0.242052 0.929386
vt 0.257760 0.900551
vt 0.264164 0.957860
vt 0.257760 0.900551
vt 0.276367 0.914368
vt 0.264164 0.957860
vt 0.264164 0.957860
vt 0.276367 0.914368
vt 0.300774 0.976122
vt 0.276367 0.914368
vt 0.305245 0.922658
vt 0.300774 0.976122
vt 0.300774 0.976122
vt 0.305245 0.922658
vt 0.346447 0.984892
vt 0.305245 0.922658
vt 0.339560 0.924940
vt 0.346447 0.984892
vt 0.346447 0.984892
vt 0.339560 0.924940
vt 0.380279 0.960383
vt 0.339560 0.924940
vt 0.362759 0.911845
vt 0.380279 0.960383
vt 0.276367 0.914368
vt 0.278059 0.873399
vt 0.305245 0.922658
vt 0.278059 0.873399
vt 0.309837 0.871957
vt 0.305245 0.922658
vt 0.305245 0.922658
vt 0.309837 0.871957
vt 0.339560 0.924940
vt 0.309837 0.871957
vt 0.333156 0.871957
vt 0.339560 0.924940
vt 0.339560 0.924940
vt 0.333156 0.871957
vt 0.362759 0.911845
vt 0.278059 0.873399
vt 0.276367 0.914368
vt 0.257760 0.900551
vt 0.242052 0.929386
vt 0.264164 0.957860
vt 0.257639 0.900551
vt 0.264164 0.957860
vt 0.276367 0.914368
vt 0.276367 0.914368
vt 0.278059 0.873399
vt 0.276367 0.914368
vt 0.305245 0.922658
vt 0.278059 0.873399
vt 0.278059 0.873399
vt 0.305245 0.922658
vt 0.309837 0.871957
vt 0.305245 0.922658
vt 0.339560 0.924940
vt 0.309837 0.871957
vt 0.309837 0.871957
vt 0.339560 0.924940
vt 0.333156 0.871957
vt 0.339560 0.924940
vt 0.362759 0.911845
vt 0.333156 0.871957
vt 0.276367 0.914368
vt 0.300774 0.976122
vt 0.305245 0.922658
vt 0.300774 0.976122
vt 0.346447 0.984892
vt 0.305245 0.922658
vt 0.305245 0.922658
vt 0.346447 0.984892
vt 0.339560 0.924940
vt 0.346447 0.984892
vt 0.380279 0.960383
vt 0.339560 0.924940
vt 0.339560 0.924940
vt 0.380279 0.960383
vt 0.362759 0.911845
vt 0.276367 0.914368
vt 0.264164 0.957860
vt 0.300774 0.976122
vt 0.242052 0.929386
vt 0.257760 0.900551
vt 0.264164 0.957860
vt 0.257760 0.900551
vt 0.276367 0.914368
vt 0.264164 0.957860
vt 0.264164 0.957860
vt 0.276367 0.914368
vt 0.300774 0.976122
vt 0.276367 0.914368
vt 0.305245 0.922658
vt 0.300774 0.976122
vt 0.300774 0.976122
vt 0.305245 0.922658
vt 0.346447 0.984892
vt 0.305245 0.922658
vt 0.339560 0.924940
vt 0.346447 0.984892
vt 0.346447 0.984892
vt 0.339560 0.924940
vt 0.380279 0.960383
vt 0.339560 0.924940
vt 0.362759 0.911845
vt 0.380279 0.960383
vt 0.276367 0.914368
vt 0.278059 0.873399
vt 0.305245 0.922658
vt 0.278059 0.873399
vt 0.309837 0.871957
vt 0.305245 0.922658
vt 0.305245 0.922658
vt 0.309837 0.871957
vt 0.339560 0.924940
vt 0.309837 0.871957
vt 0.333156 0.871957
vt 0.339560 0.924940
vt 0.339560 0.924940
vt 0.333156 0.871957
vt 0.362759 0.911845
vt 0.278059 0.873399
vt 0.276367 0.914368
vt 0.257760 0.900551
vt 0.242052 0.929386
vt 0.264164 0.957860
vt 0.257639 0.900551
vt 0.264164 0.957860
vt 0.276367 0.914368
vt 0.276367 0.914368
vt 0.278059 0.873399
vt 0.276367 0.914368
vt 0.305245 0.922658
vt 0.278059 0.873399
vt 0.278059 0.873399
vt 0.305245 0.922658
vt 0.309837 0.871957
vt 0.305245 0.922658
vt 0.339560 0.924940
vt 0.309837 0.871957
vt 0.309837 0.871957
vt 0.339560 0.924940
vt 0.333156 0.871957
vt 0.339560 0.924940
vt 0.362759 0.911845
vt 0.333156 0.871957
vt 0.276367 0.914368
vt 0.300774 0.976122
vt 0.305245 0.922658
vt 0.300774 0.976122
vt 0.346447 0.984892
vt 0.305245 0.922658
vt 0.305245 0.922658
vt 0.346447 0.984892
vt 0.339560 0.924940
vt 0.346447 0.984892
vt 0.380279 0.960383
vt 0.339560 0.924940
vt 0.339560 0.924940
vt 0.380279 0.960383
vt 0.362759 0.911845
vt 0.276367 0.914368
vt 0.264164 0.957860
vt 0.300774 0.976122
vt 0.242052 0.929386
vt 0.257760 0.900551
vt 0.264164 0.957860
vt 0.257760 0.900551
vt 0.276367 0.914368
vt 0.264164 0.957860
vt 0.264164 0.957860
vt 0.276367 0.914368
vt 0.300774 0.976122
vt 0.276367 0.914368
vt 0.305245 0.922658
vt 0.300774 0.976122
vt 0.300774 0.976122
vt 0.305245 0.922658
vt 0.346447 0.984892
vt 0.305245 0.922658
vt 0.339560 0.924940
vt 0.346447 0.984892
vt 0.346447 0.984892
vt 0.339560 0.924940
vt 0.380279 0.960383
vt 0.339560 0.924940
vt 0.362759 0.911845
vt 0.380279 0.960383
vt 0.276367 0.914368
vt 0.278059 0.873399
vt 0.305245 0.922658
vt 0.278059 0.873399
vt 0.309837 0.871957
vt 0.305245 0.922658
vt 0.305245 0.922658
vt 0.309837 0.871957
vt 0.339560 0.924940
vt 0.309837 0.871957
vt 0.333156 0.871957
vt 0.339560 0.924940
vt 0.339560 0.924940
vt 0.333156 0.871957
vt 0.362759 0.911845
vt 0.278059 0.873399
vt 0.276367 0.914368
vt 0.257760 0.900551
vt 0.242052 0.929386
vt 0.264164 0.957860
vt 0.257639 0.900551
vt 0.264164 0.957860
vt 0.276367 0.914368
vt 0.276367 0.914368
vt 0.278059 0.873399
vt 0.276367 0.914368
vt 0.305245 0.922658
vt 0.278059 0.873399
vt 0.278059 0.873399
vt 0.305245 0.922658
vt 0.309837 0.871957
vt 0.305245 0.922658
vt 0.339560 0.924940
vt 0.309837 0.871957
vt 0.309837 0.871957
vt 0.339560 0.924940
vt 0.333156 0.871957
vt 0.339560 0.924940
vt 0.362759 0.911845
vt 0.333156 0.871957
vt 0.276367 0.914368
vt 0.300774 0.976122
vt 0.305245 0.922658
vt 0.300774 0.976122
vt 0.346447 0.984892
vt 0.305245 0.922658
vt 0.305245 0.922658
vt 0.346447 0.984892
vt 0.339560 0.924940
vt 0.346447 0.984892
vt 0.380279 0.960383
vt 0.339560 0.924940
vt 0.339560 0.924940
vt 0.380279 0.960383
vt 0.362759 0.911845
vt 0.276367 0.914368
vt 0.264164 0.957860
vt 0.300774 0.976122
vt 0.242052 0.929386
vt 0.257760 0.900551
vt 0.264164 0.957860
vt 0.257760 0.900551
vt 0.276367 0.914368
vt 0.264164 0.957860
vt 0.264164 0.957860
vt 0.276367 0.914368
vt 0.300774 0.976122
vt 0.276367 0.914368
vt 0.305245 0.922658
vt 0.300774 0.976122
vt 0.300774 0.976122
vt 0.305245 0.922658
vt 0.346447 0.984892
vt 0.305245 0.922658
vt 0.339560 0.924940
vt 0.346447 0.984892
vt 0.346447 0.984892
vt 0.339560 0.924940
vt 0.380279 0.960383
vt 0.339560 0.924940
vt 0.362759 0.911845
vt 0.380279 0.960383
vt 0.276367 0.914368
vt 0.278059 0.873399
vt 0.305245 0.922658
vt 0.278059 0.873399
vt 0.309837 0.871957
vt 0.305245 0.922658
vt 0.305245 0.922658
vt 0.309837 0.871957
vt 0.339560 0.924940
vt 0.309837 0.871957
vt 0.333156 0.871957
vt 0.339560 0.924940
vt 0.339560 0.924940
vt 0.333156 0.871957
vt 0.362759 0.911845
vt 0.278059 0.873399
vt 0.276367 0.914368
vt 0.257760 0.900551
vt 0.242052 0.929386
vt 0.264164 0.957860
vt 0.257639 0.900551
vt 0.264164 0.957860
vt 0.276367 0.914368
vt 0.276367 0.914368
vt 0.278059 0.873399
vt 0.276367 0.914368
vt 0.305245 0.922658
vt 0.278059 0.873399
vt 0.278059 0.873399
vt 0.305245 0.922658
vt 0.309837 0.871957
vt 0.305245 0.922658
vt 0.339560 0.924940
vt 0.309837 0.871957
vt 0.309837 0.871957
vt 0.339560 0.924940
vt 0.333156 0.871957
vt 0.339560 0.924940
vt 0.362759 0.911845
vt 0.333156 0.871957
vt 0.276367 0.914368
vt 0.300774 0.976122
vt 0.305245 0.922658
vt 0.300774 0.976122
vt 0.346447 0.984892
vt 0.305245 0.922658
vt 0.305245 0.922658
vt 0.346447 0.984892
vt 0.339560 0.924940
vt 0.346447 0.984892
vt 0.380279 0.960383
vt 0.339560 0.924940
vt 0.339560 0.924940
vt 0.380279 0.960383
vt 0.362759 0.911845
vt 0.276367 0.914368
vt 0.264164 0.957860
vt 0.300774 0.976122
vn -0.161221 -0.306866 0.937998
vn -0.161221 -0.306866 0.937998
vn -0.161221 -0.306866 0.937998
vn -0.152926 -0.272962 0.949792
vn -0.152926 -0.272962 0.949792
vn -0.152926 -0.272962 0.949792
vn -0.173646 -0.132942 0.975794
vn -0.173646 -0.132942 0.975794
vn -0.173646 -0.132942 0.975794
vn -0.177161 -0.139211 0.974286
vn -0.177161 -0.139211 0.974286
vn -0.177161 -0.139211 0.974286
vn -0.170895 -0.024915 0.984974
vn -0.170895 -0.024915 0.984974
vn -0.170895 -0.024915 0.984974
vn -0.094753 0.060366 0.993669
vn -0.094753 0.060366 0.993669
vn -0.094753 0.060366 0.993669
vn -0.053566 0.206239 0.977034
vn -0.053566 0.206239 0.977034
vn -0.053566 0.206239 0.977034
vn 0.037261 0.260806 0.964672
vn 0.037261 0.260806 0.964672
vn 0.037261 0.260806 0.964672
vn 0.003044 -0.115038 0.993357
vn 0.003044 -0.115038 0.993357
vn 0.003044 -0.115038 0.993357
vn 0.008430 -0.107838 0.994133
vn 0.008430 -0.107838 0.994133
vn 0.008430 -0.107838 0.994133
vn 0.016777 0.051437 0.998535
vn 0.016777 0.051437 0.998535
vn 0.016777 0.051437 0.998535
vn -0.035488 -0.015193 0.999255
vn -0.035488 -0.015193 0.999255
vn -0.035488 -0.015193 0.999255
vn 0.037199 0.260852 0.964662
vn 0.037199 0.260852 0.964662
vn 0.037199 0.260852 0.964662
vn -0.004552 -0.196085 0.980576
vn -0.004552 -0.196085 0.980576
vn -0.004552 -0.196085 0.980576
vn 0.161221 0.306866 -0.937998
vn 0.161221 0.306866 -0.937998
vn 0.161221 0.306866 -0.937998
vn 0.152926 0.272962 -0.949792
vn 0.152926 0.272962 -0.949792
vn 0.152926 0.272962 -0.949792
vn 0.004552 0.196085 -0.980576
vn 0.004552 0.196085 -0.980576
vn 0.004552 0.196085 -0.980576
vn -0.003044 0.115038 -0.993357
vn -0.003044 0.115038 -0.993357
vn -0.003044 0.115038 -0.993357
vn -0.008430 0.107838 -0.994133
vn -0.008430 0.107838 -0.994133
vn -0.008430 0.107838 -0.994133
vn -0.016777 -0.051437 -0.998535
vn -0.016777 -0.051437 -0.998535
vn -0.016777 -0.051437 -0.998535
vn 0.025250 0.002123 -0.999679
vn 0.025250 0.002123 -0.999679
vn 0.025250 0.002123 -0.999679
vn -0.042643 -0.256659 -0.965561
vn -0.042643 -0.256659 -0.965561
vn -0.042643 -0.256659 -0.965561
vn 0.177161 0.139212 -0.974286
vn 0.177161 0.139212 -0.974286
vn 0.177161 0.139212 -0.974286
vn 0.170895 0.024915 -0.984974
vn 0.170895 0.024915 -0.984974
vn 0.170895 0.024915 -0.984974
vn 0.094753 -0.060366 -0.993669
vn 0.094753 -0.060366 -0.993669
vn 0.094753 -0.060366 -0.993669
vn 0.053566 -0.206238 -0.977035
vn 0.053566 -0.206238 -0.977035
vn 0.053566 -0.206238 -0.977035
vn -0.037261 -0.260806 -0.964672
vn -0.037261 -0.260806 -0.964672
vn -0.037261 -0.260806 -0.964672
vn 0.173646 0.132942 -0.975794
vn 0.173646 0.132942 -0.975794
vn 0.173646 0.132942 -0.975794
vn -0.161221 -0.306866 0.937998
vn -0.161221 -0.306866 0.937998
vn -0.161221 -0.306866 0.937998
vn -0.152926 -0.272962 0.949792
vn -0.152926 -0.272962 0.949792
vn -0.152926 -0.272962 0.949792
vn -0.173646 -0.132942 0.975794
vn -0.173646 -0.132942 0.975794
vn -0.173646 -0.132942 0.975794
vn -0.177161 -0.139211 0.974286
vn -0.177161 -0.139211 0.974286
vn -0.177161 -0.139211 0.974286
vn -0.170895 -0.024915 0.984974
vn -0.170895 -0.024915 0.984974
vn -0.170895 -0.024915 0.984974
vn -0.094753 0.060366 0.993669
vn -0.094753 0.060366 0.993669
vn -0.094753 0.060366 0.993669
vn -0.053566 0.206239 0.977034
vn -0.053566 0.206239 0.977034
vn -0.053566 0.206239 0.977034
vn 0.037261 0.260806 0.964672
vn 0.037261 0.260806 0.964672
vn 0.037261 0.260806 0.964672
vn 0.003044 -0.115038 0.993357
vn 0.003044 -0.115038 0.993357
vn 0.003044 -0.115038 0.993357
vn 0.008430 -0.107838 0.994133
vn 0.008430 -0.107838 0.994133
vn 0.008430 -0.107838 0.994133
vn 0.016777 0.051437 0.998535
vn 0.016777 0.051437 0.998535
vn 0.016777 0.051437 0.998535
vn -0.035488 -0.015193 0.999255
vn -0.035488 -0.015193 0.999255
vn -0.035488 -0.015193 0.999255
vn 0.037199 0.260852 0.964662
vn 0.037199 0.260852 0.964662
vn 0.037199 0.260852 0.964662
vn -0.004552 -0.196085 0.980576
vn -0.004552 -0.196085 0.980576
vn -0.004552 -0.196085 0.980576
vn 0.161221 0.306866 -0.937998
vn 0.161221 0.306866 -0.937998
vn 0.161221 0.306866 -0.937998
vn 0.152926 0.272962 -0.949792
vn 0.152926 0.272962 -0.949792
vn 0.152926 0.272962 -0.949792
vn 0.004552 0.196085 -0.980576
vn 0.004552 0.196085 -0.980576
vn 0.004552 0.196085 -0.980576
vn -0.003044 0.115038 -0.993357
vn -0.003044 0.115038 -0.993357
vn -0.003044 0.115038 -0.993357
vn -0.008430 0.107838 -0.994133
vn -0.008430 0.107838 -0.994133
vn -0.008430 0.107838 -0.994133
vn -0.016777 -0.051437 -0.998535
vn -0.016777 -0.051437 -0.998535
vn -0.016777 -0.051437 -0.998535
vn 0.025250 0.002123 -0.999679
vn 0.025250 0.002123 -0.999679
vn 0.025250 0.002123 -0.999679
vn -0.042643 -0.256659 -0.965561
vn -0.042643 -0.256659 -0.965561
vn -0.042643 -0.256659 -0.965561
vn 0.177161 0.139212 -0.974286
vn 0.177161 0.139212 -0.974286
vn 0.177161 0.139212 -0.974286
vn 0.170895 0.024915 -0.984974
vn 0.170895 0.024915 -0.984974
vn 0.170895 0.024915 -0.984974
vn 0.094753 -0.060366 -0.993669
vn 0.094753 -0.060366 -0.993669
vn 0.094753 -0.060366 -0.993669
vn 0.053566 -0.206238 -0.977035
vn 0.053566 -0.206238 -0.977035
vn 0.053566 -0.206238 -0.977035
vn -0.037261 -0.260806 -0.964672
vn -0.037261 -0.260806 -0.964672
vn -0.037261 -0.260806 -0.964672
vn 0.173646 0.132942 -0.975794
vn 0.173646 0.132942 -0.975794
vn 0.173646 0.132942 -0.975794
vn -0.161221 -0.306866 0.937998
vn -0.161221 -0.306866 0.937998
vn -0.161221 -0.306866 0.937998
vn -0.152926 -0.272962 0.949792
vn -0.152926 -0.272962 0.949792
vn -0.152926 -0.272962 0.949792
vn -0.173646 -0.132942 0.975794
vn -0.173646 -0.132942 0.975794
vn -0.173646 -0.132942 0.975794
vn -0.177161 -0.139211 0.974286
vn -0.177161 -0.139211 0.974286
vn -0.177161 -0.139211 0.974286
vn -0.170895 -0.024915 0.984974
vn -0.170895 -0.024915 0.984974
vn -0.170895 -0.024915 0.984974
vn -0.094753 0.060366 0.993669
vn -0.094753 0.060366 0.993669
vn -0.094753 0.060366 0.993669
vn -0.053566 0.206239 0.977034
vn -0.053566 0.206239 0.977034
vn -0.053566 0.206239 0.977034
vn 0.037261 0.260806 0.964672
vn 0.037261 0.260806 0.964672
vn 0.037261 0.260806 0.964672
vn 0.003044 -0.115038 0.993357
vn 0.003044 -0.115038 0.993357
vn 0.003044 -0.115038 0.993357
vn 0.008430 -0.107838 0.994133
vn 0.008430 -0.107838 0.994133
vn 0.008430 -0.107838 0.994133
vn 0.016777 0.051437 0.998535
vn 0.016777 0.051437 0.998535
vn 0.016777 0.051437 0.998535
vn -0.035488 -0.015193 0.999255
vn -0.035488 -0.015193 0.999255
vn -0.035488 -0.015193 0.999255
vn 0.037199 0.260852 0.964662
vn 0.037199 0.260852 0.964662
vn 0.037199 0.260852 0.964662
vn -0.004552 -0.196085 0.980576
vn -0.004552 -0.196085 0.980576
vn -0.004552 -0.196085 0.980576
vn 0.161221 0.306866 -0.937998
vn 0.161221 0.306866 -0.937998
vn 0.161221 0.306866 -0.937998
vn 0.152926 0.272962 -0.949792
vn 0.152926 0.272962 -0.949792
vn 0.152926 0.272962 -0.949792
vn 0.004552 0.196085 -0.980576
vn 0.004552 0.196085 -0.980576
vn 0.004552 0.196085 -0.980576
vn -0.003044 0.115038 -0.993357
vn -0.003044 0.115038 -0.993357
vn -0.003044 0.115038 -0.993357
vn -0.008430 0.107838 -0.994133
vn -0.008430 0.107838 -0.994133
vn -0.008430 0.107838 -0.994133
vn -0.016777 -0.051437 -0.998535
vn -0.016777 -0.051437 -0.998535
vn -0.016777 -0.051437 -0.998535
vn 0.025250 0.002123 -0.999679
vn 0.025250 0.002123 -0.999679
vn 0.025250 0.002123 -0.999679
vn -0.042643 -0.256659 -0.965561
vn -0.042643 -0.256659 -0.965561
vn -0.042643 -0.256659 -0.965561
vn 0.177161 0.139212 -0.974286
vn 0.177161 0.139212 -0.974286
vn 0.177161 0.139212 -0.974286
vn 0.170895 0.024915 -0.984974
vn 0.170895 0.024915 -0.984974
vn 0.170895 0.024915 -0.984974
vn 0.094753 -0.060366 -0.993669
vn 0.094753 -0.060366 -0.993669
vn 0.094753 -0.060366 -0.993669
vn 0.053566 -0.206238 -0.977035
vn 0.053566 -0.206238 -0.977035
vn 0.053566 -0.206238 -0.977035
vn -0.037261 -0.260806 -0.964672
vn -0.037261 -0.260806 -0.964672
vn -0.037261 -0.260806 -0.964672
vn 0.173646 0.132942 -0.975794
vn 0.173646 0.132942 -0.975794
vn 0.173646 0.132942 -0.975794
vn -0.161221 -0.306866 0.937998
vn -0.161221 -0.306866 0.937998
vn -0.161221 -0.306866 0.937998
vn -0.152926 -0.272962 0.949792
vn -0.152926 -0.272962 0.949792
vn -0.152926 -0.272962 0.949792
vn -0.173646 -0.132942 0.975794
vn -0.173646 -0.132942 0.975794
vn -0.173646 -0.132942 0.975794
vn -0.177161 -0.139211 0.974286
vn -0.177161 -0.139211 0.974286
vn -0.177161 -0.139211 0.974286
vn -0.170895 -0.024915 0.984974
vn -0.170895 -0.024915 0.984974
vn -0.170895 -0.024915 0.984974
vn -0.094753 0.060366 0.993669
vn -0.094753 0.060366 0.993669
vn -0.094753 0.060366 0.993669
vn -0.053566 0.206239 0.977034
vn -0.053566 0.206239 0.977034
vn -0.053566 0.206239 0.977034
vn 0.037261 0.260806 0.964672
vn 0.037261 0.260806 0.964672
vn 0.037261 0.260806 0.964672
vn 0.003044 -0.115038 0.993357
vn 0.003044 -0.115038 0.993357
vn 0.003044 -0.115038 0.993357
vn 0.008430 -0.107838 0.994133
vn 0.008430 -0.107838 0.994133
vn 0.008430 -0.107838 0.994133
vn 0.016777 0.051437 0.998535
vn 0.016777 0.051437 0.998535
vn 0.016777 0.051437 0.998535
vn -0.035488 -0.015193 0.999255
vn -0.035488 -0.015193 0.999255
vn -0.035488 -0.015193 0.999255
vn 0.037199 0.260852 0.964662
vn 0.037199 0.260852 0.964662
vn 0.037199 0.260852 0.964662
vn -0.004552 -0.196085 0.980576
vn -0.004552 -0.196085 0.980576
vn -0.004552 -0.196085 0.980576
vn 0.161221 0.306866 -0.937998
vn 0.161221 0.306866 -0.937998
vn 0.161221 0.306866 -0.937998
vn 0.152926 0.272962 -0.949792
vn 0.152926 0.272962 -0.949792
vn 0.152926 0.272962 -0.949792
vn 0.004552 0.196085 -0.980576
vn 0.004552 0.196085 -0.980576
vn 0.004552 0.196085 -0.980576
vn -0.003044 0.115038 -0.993357
vn -0.003044 0.115038 -0.993357
vn -0.003044 0.115038 -0.993357
vn -0.008430 0.107838 -0.994133
vn -0.008430 0.107838 -0.994133
vn -0.008430 0.107838 -0.994133
vn -0.016777 -0.051437 -0.998535
vn -0.016777 -0.051437 -0.998535
vn -0.016777 -0.051437 -0.998535
vn 0.025250 0.002123 -0.999679
vn 0.025250 0.002123 -0.999679
vn 0.025250 0.002123 -0.999679
vn -0.042643 -0.256659 -0.965561
vn -0.042643 -0.256659 -0.965561
vn -0.042643 -0.256659 -0.965561
vn 0.177161 0.139212 -0.974286
vn 0.177161 0.139212 -0.974286
vn 0.177161 0.139212 -0.974286
vn 0.170895 0.024915 -0.984974
vn 0.170895 0.024915 -0.984974
vn 0.170895 0.024915 -0.984974
vn 0.094753 -0.060366 -0.993669
vn 0.094753 -0.060366 -0.993669
vn 0.094753 -0.060366 -0.993669
vn 0.053566 -0.206238 -0.977035
vn 0.053566 -0.206238 -0.977035
vn 0.053566 -0.206238 -0.977035
vn -0.037261 -0.260806 -0.964672
vn -0.037261 -0.260806 -0.964672
vn -0.037261 -0.260806 -0.964672
vn 0.173646 0.132942 -0.975794
vn 0.173646 0.132942 -0.975794
vn 0.173646 0.132942 -0.975794
s off
g PufferDer:AletaDer
usemtl PufferDer:lambert3SG
f 1/1/1 2/2/2 3/3/3
f 2/4/4 4/5/5 3/6/6
usemtl PufferDer:lambert4SG
f 3/7/7 4/8/8 5/9/9
usemtl PufferDer:lambert3SG
f 4/10/10 6/11/11 5/12/12
f 5/13/13 6/14/14 7/15/15
f 6/16/16 8/17/17 7/18/18
f 7/19/19 8/20/20 9/21/21
f 8/22/22 10/23/23 9/24/24
f 4/25/25 11/26/26 6/27/27
f 11/28/28 12/29/29 6/30/30
f 6/31/31 12/32/32 8/33/33
f 12/34/34 13/35/35 8/36/36
f 8/37/37 13/38/38 10/39/39
f 11/40/40 4/41/41 2/42/42
f 14/43/43 15/44/44 16/45/45
f 15/46/46 17/47/47 16/45/48
f 16/45/49 17/48/50 18/49/51
f 17/50/52 19/51/53 18/52/54
f 18/53/55 19/54/56 20/55/57
f 19/56/58 21/57/59 20/58/60
f 20/59/61 21/60/62 22/61/63
f 21/62/64 23/63/65 22/64/66
f 17/65/67 24/66/68 19/67/69
f 24/68/70 25/69/71 19/70/72
f 19/71/73 25/72/74 21/73/75
f 25/74/76 26/75/77 21/76/78
f 21/77/79 26/78/80 23/79/81
f 17/80/82 15/81/83 24/82/84
f 27/83/85 28/84/86 29/85/87
f 28/86/88 30/87/89 29/88/90
f 29/89/91 30/90/92 31/91/93
f 30/92/94 32/93/95 31/94/96
f 31/95/97 32/96/98 33/97/99
f 32/98/100 34/99/101 33/100/102
f 33/101/103 34/102/104 35/103/105
f 34/104/106 36/105/107 35/106/108
f 30/107/109 37/108/110 32/109/111
f 37/110/112 38/111/113 32/112/114
f 32/113/115 38/114/116 34/115/117
f 38/116/118 39/117/119 34/118/120
f 34/119/121 39/120/122 36/121/123
f 37/122/124 30/123/125 28/124/126
f 40/125/127 41/126/128 42/127/129
f 41/128/130 43/129/131 42/127/132
f 42/127/133 43/130/134 44/131/135
f 43/132/136 45/133/137 44/134/138
f 44/135/139 45/136/140 46/137/141
f 45/138/142 47/139/143 46/140/144
f 46/141/145 47/142/146 48/143/147
f 47/144/148 49/145/149 48/146/150
f 43/147/151 50/148/152 45/149/153
f 50/150/154 51/151/155 45/152/156
f 45/153/157 51/154/158 47/155/159
f 51/156/160 52/157/161 47/158/162
f 47/159/163 52/160/164 49/161/165
f 43/162/166 41/163/167 50/164/168
f 53/165/169 54/166/170 55/167/171
f 54/168/172 56/169/173 55/170/174
f 55/171/175 56/172/176 57/173/177
f 56/174/178 58/175/179 57/176/180
f 57/177/181 58/178/182 59/179/183
f 58/180/184 60/181/185 59/182/186
f 59/183/187 60/184/188 61/185/189
f 60/186/190 62/187/191 61/188/192
f 56/189/193 63/190/194 58/191/195
f 63/192/196 64/193/197 58/194/198
f 58/195/199 64/196/200 60/197/201
f 64/198/202 65/199/203 60/200/204
f 60/201/205 65/202/206 62/203/207
f 63/204/208 56/205/209 54/206/210
f 66/207/211 67/208/212 68/209/213
f 67/210/214 69/211/215 68/209/216
f 68/209/217 69/212/218 70/213/219
f 69/214/220 71/215/221 70/216/222
f 70/217/223 71/218/224 72/219/225
f 71/220/226 73/221/227 72/222/228
f 72/223/229 73/224/230 74/225/231
f 73/226/232 75/227/233 74/228/234
f 69/229/235 76/230/236 71/231/237
f 76/232/238 77/233/239 71/234/240
f 71/235/241 77/236/242 73/237/243
f 77/238/244 78/239/245 73/240/246
f 73/241/247 78/242/248 75/243/249
f 69/244/250 67/245/251 76/246/252
f 79/247/253 80/248/254 81/249/255
f 80/250/256 82/251/257 81/252/258
f 81/253/259 82/254/260 83/255/261
f 82/256/262 84/257/263 83/258/264
f 83/259/265 84/260/266 85/261/267
f 84/262/268 86/263/269 85/264/270
f 85/265/271 86/266/272 87/267/273
f 86/268/274 88/269/275 87/270/276
f 82/271/277 89/272/278 84/273/279
f 89/274/280 90/275/281 84/276/282
f 84/277/283 90/278/284 86/279/285
f 90/280/286 91/281/287 86/282/288
f 86/283/289 91/284/290 88/285/291
f 89/286/292 82/287/293 80/288/294
f 92/289/295 93/290/296 94/291/297
f 93/292/298 95/293/299 94/291/300
f 94/291/301 95/294/302 96/295/303
f 95/296/304 97/297/305 96/298/306
f 96/299/307 97/300/308 98/301/309
f 97/302/310 99/303/311 98/304/312
f 98/305/313 99/306/314 100/307/315
f 99/308/316 101/309/317 100/310/318
f 95/311/319 102/312/320 97/313/321
f 102/314/322 103/315/323 97/316/324
f 97/317/325 103/318/326 99/319/327
f 103/320/328 104/321/329 99/322/330
f 99/323/331 104/324/332 101/325/333
f 95/326/334 93/327/335 102/328/336
