# This file uses centimeters as units for non-parametric coordinates.

mtllib DomoCristal.mtl
g default
v -4.090721 8.642508 -0.119926
v -6.221961 6.904206 -3.473528
v -7.762649 6.316527 0.537876
v 9.220254 0.065515 -6.949625
v 6.325963 -0.013402 -9.804072
v 7.436222 2.932797 -8.120139
v 5.353002 6.119082 -6.431303
v 3.754072 3.872418 -9.504269
v 1.199950 6.723130 -7.485747
v -2.052723 8.657017 -3.958418
v -6.028835 6.984813 -3.613561
v -3.902452 8.719316 -0.266892
v -8.375243 4.068065 4.433872
v -5.126920 6.915919 4.183580
v -7.865714 6.170713 0.916504
v 7.233013 3.261052 -8.093731
v 3.986610 3.759852 -9.503100
v 5.562744 5.971209 -6.477078
v -8.373675 3.796346 4.753151
v -7.797494 0.405837 7.395673
v -5.245941 3.882792 7.838768
v -4.978525 7.068786 4.049357
v -4.052615 8.646704 0.118868
v -7.723374 6.321738 0.775502
v 2.445154 8.699551 -3.555258
v 0.929414 6.963154 -7.218255
v -1.638250 8.655895 -4.173264
v -5.102679 3.768800 8.012326
v -7.649837 0.298882 7.569355
v -4.077271 0.304387 10.012080
v -5.157094 4.087386 7.745280
v -5.030495 6.854417 4.407925
v -8.286273 4.000031 4.658771
v 8.964705 3.695662 -4.730891
v 9.310083 0.197463 -6.774007
v 7.528834 3.062932 -7.942138
v 5.317371 6.275809 -6.238176
v 1.154805 6.881240 -7.295035
v 2.673711 8.620403 -3.625674
v 7.403250 3.265801 -7.925814
v 5.730138 5.978896 -6.309023
v 8.838382 3.896152 -4.717810
v -1.853664 8.756409 -3.827101
v -3.676800 8.817633 -0.189405
v -0.271182 9.730862 -0.774178
v 9.087707 3.617791 -4.517459
v 10.893150 0.231202 -2.518475
v 9.439388 0.064254 -6.591425
v 2.378781 8.798788 -3.326470
v -1.644613 8.755762 -3.935407
v -0.058811 9.730200 -0.884191
v -0.886605 8.811438 3.092643
v -3.826225 8.729233 0.193588
v -4.751182 7.153928 4.116269
v -4.879810 3.855695 8.109965
v -3.869619 0.441466 10.080498
v -1.815835 3.359815 9.882039
v -0.232184 9.736010 -0.538273
v -3.638403 8.822721 0.042826
v -0.743067 8.904066 2.896136
v 6.583541 7.032786 -1.940311
v 5.488454 6.281373 -6.067324
v 2.844917 8.626228 -3.454944
v -1.484367 6.348699 7.211340
v -4.806719 6.924848 4.499415
v -4.933410 4.163644 7.829561
v 8.842718 4.013927 -4.485625
v 5.685838 6.128365 -6.103001
v 6.778035 6.878842 -1.983735
v -3.689651 0.320926 10.172727
v 0.333759 0.363950 10.781648
v -1.633008 3.237365 9.975727
v -0.806136 8.738300 3.318741
v -4.678875 7.077148 4.344934
v -1.349606 6.500384 7.061423
v 3.209834 8.891277 0.852866
v 2.545176 8.804106 -3.157324
v 0.111412 9.734949 -0.716274
v -1.395336 6.207883 7.408800
v -4.794406 4.054753 8.017737
v -1.729064 3.562024 9.788350
v 9.817462 3.836802 0.036877
v 10.910320 0.347579 -2.295835
v 9.100725 3.741931 -4.299401
v 3.450549 8.797758 0.845227
v 6.507483 7.118866 -1.716243
v 2.776945 8.708818 -3.227986
v -0.508992 8.906065 2.935194
v 3.100312 8.895365 1.063362
v 0.004273 9.738546 -0.502489
v 8.974235 3.946294 -4.282954
v 6.905356 6.817250 -1.775407
v 9.690064 4.041841 0.051741
v 10.901174 0.257733 2.252552
v 10.966502 0.240916 -2.074764
v 9.875919 3.722871 0.252630
v 0.530404 0.488519 10.746417
v 2.003750 3.927018 9.153636
v -1.433242 3.363902 9.939943
v 1.948367 4.126845 9.038227
v -1.162567 6.210373 7.444032
v -1.492606 3.564561 9.824135
v -1.110720 6.502229 7.099113
v 2.861580 7.157786 5.486150
v -0.567957 8.740837 3.354787
v -0.425018 8.816219 3.162399
v 2.996679 7.236765 5.288889
v 3.241483 8.804951 1.262590
v 6.948904 6.473838 2.764419
v 6.652174 7.041871 -1.525069
v 3.588246 8.724606 1.042257
v 0.752398 0.356402 10.742636
v 4.886481 0.432937 9.466689
v 2.250230 3.848132 9.124968
v 9.630608 4.118806 0.284510
v 6.851372 6.888556 -1.540010
v 7.147179 6.321999 2.740378
v 2.134530 4.239211 8.899255
v 2.941142 7.007700 5.672036
v -1.022795 6.353803 7.281294
v 10.837967 0.395677 2.461280
v 9.827776 3.809903 0.490747
v 9.505547 3.324567 4.017046
v 3.235365 7.156619 5.292501
v 6.839213 6.478203 2.979925
v 3.480308 8.728233 1.257594
v 8.985779 0.337005 6.299510
v 10.807009 0.277701 2.664874
v 9.476018 3.202781 4.220748
v 9.704144 4.009608 0.506811
v 7.256684 6.180936 2.926663
v 9.379947 3.527438 4.033371
v 2.434471 3.965814 9.001843
v 5.076640 0.543487 9.344133
v 6.336585 3.952781 6.980800
v 6.544268 3.834052 6.900731
v 5.285906 0.431691 9.259760
v 8.712983 0.331223 6.618697
v 6.278081 4.155774 6.863040
v 3.183395 6.942250 5.651069
v 2.375860 4.168624 8.883853
v 6.428183 4.226344 6.674311
v 6.937944 6.328854 3.157649
v 3.340567 7.006455 5.465106
v 6.707234 3.914689 6.717196
v 8.843286 0.466430 6.438313
v 9.332172 3.330377 4.362964
v 9.272808 3.531035 4.247156
v 7.151206 6.184487 3.137113
v 6.650760 4.113011 6.599713
v -1.834250 8.573244 -4.306303
v 0.738594 6.876782 -7.358027
v -3.536690 6.181136 -7.578206
v 6.143628 0.105187 -9.899006
v 4.006670 3.557260 -9.621321
v 7.253379 3.055245 -8.213827
v -3.750598 6.181798 -7.467394
v -6.033369 6.897871 -3.849850
v -2.049603 8.572874 -4.196229
v -8.562497 3.949567 4.301017
v -8.061836 6.018922 0.837187
v -10.359164 3.321109 1.275932
v -8.544744 3.673421 4.616868
v -10.458863 0.126616 3.717490
v -7.970039 0.289937 7.253519
v 0.991776 6.652161 -7.608349
v 3.549987 3.795638 -9.631160
v -0.794638 3.748448 -10.289315
v -3.510313 6.024301 -7.772731
v 0.755195 6.718380 -7.553058
v -1.027038 3.820756 -10.228429
v -7.941724 6.160477 0.455977
v -6.404572 6.746817 -3.546250
v -9.541162 3.913291 -2.617220
v -10.445935 3.118897 1.369621
v -10.534368 0.255412 3.506625
v -8.650129 3.748126 4.390801
v 3.572260 3.587602 -9.752485
v 2.167489 1.041878 -10.979012
v 2.167489 3.572584 -9.965091
v -8.098452 6.016755 0.602712
v -9.673970 3.803340 -2.422111
v -10.398162 3.315959 1.040028
v -3.924894 6.025761 -7.558085
v -7.374167 3.841044 -6.939833
v -6.203038 6.740039 -3.948365
v 0.421432 1.832565 -10.919003
v -0.774117 3.541135 -10.410288
v 0.421432 3.553917 -10.229347
v -6.384989 6.675141 -3.786843
v -7.558993 3.770261 -6.783414
v -9.528280 3.835650 -2.855461
v -3.694677 5.875230 -7.875365
v -1.250860 3.704762 -10.293589
v -4.754072 3.132871 -9.907936
v 2.167489 0.522767 -11.159083
v 2.167489 -0.021632 -11.318396
v -11.289008 0.039491 -0.682641
v -10.625534 0.127307 3.331407
v -10.538548 2.988765 1.191620
v -9.783537 3.600192 -2.477356
v -11.259942 0.159387 -0.883161
v -10.509020 3.110551 0.987919
v -4.966443 3.133531 -9.797923
v -7.302783 3.722747 -7.158153
v -3.906326 5.872895 -7.768043
v 3.793869 3.470750 -9.738882
v 5.962692 -0.032802 -10.020700
v -1.227158 3.501292 -10.413439
v -3.113609 0.006211 -11.300059
v -4.733705 2.927064 -10.028032
v -7.670466 3.562608 -6.837660
v -9.920481 0.124831 -5.448503
v -9.639523 3.627830 -2.909584
v -9.757236 3.512942 -2.718779
v -10.037303 0.016326 -5.253609
v -11.255653 0.020814 -1.100804
v -5.077301 2.928140 -9.850033
v -7.065203 0.018510 -9.252946
v -7.410229 3.518186 -7.212306
v -7.590919 3.439454 -7.041715
v -7.239130 -0.113685 -9.115035
v -9.835785 0.009562 -5.655725
v -3.310255 -0.118358 -11.264828
v -6.923602 -0.107106 -9.392949
v -4.933471 2.800527 -9.992248
v 0.421432 -0.049137 -11.459081
v -2.901914 -0.127582 -11.362329
v -0.987288 3.418887 -10.462688
v 0.421432 1.405677 -11.062111
vt 0.600946 0.065940
vt 0.740138 0.069980
vt 0.669350 0.109044
vt 0.278085 0.248467
vt 0.235221 0.198942
vt 0.280858 0.152073
vt 0.353622 0.101366
vt 0.214748 0.097335
vt 0.285375 0.058360
vt 0.671668 0.023996
vt 0.739915 0.067003
vt 0.601019 0.062976
vt 0.690264 0.207643
vt 0.622018 0.164638
vt 0.668407 0.116987
vt 0.282919 0.142987
vt 0.215653 0.100646
vt 0.352405 0.104641
vt 0.691732 0.217719
vt 0.688884 0.315826
vt 0.645262 0.265464
vt 0.618651 0.159904
vt 0.596764 0.069088
vt 0.665143 0.112159
vt 0.432100 0.058074
vt 0.293206 0.054039
vt 0.363831 0.015053
vt 0.643458 0.270737
vt 0.687004 0.320983
vt 0.640612 0.368634
vt 0.642888 0.260400
vt 0.620977 0.169549
vt 0.689381 0.212653
vt 0.327347 0.201618
vt 0.281656 0.248480
vt 0.284450 0.152178
vt 0.361213 0.100102
vt 0.292809 0.056997
vt 0.431947 0.061047
vt 0.287384 0.146712
vt 0.356931 0.108290
vt 0.330226 0.196147
vt 0.662867 0.022393
vt 0.593258 0.060808
vt 0.526108 0.018448
vt 0.329309 0.207207
vt 0.326469 0.305088
vt 0.282914 0.254842
vt 0.439976 0.056361
vt 0.372710 0.013972
vt 0.509468 0.017965
vt 0.546192 0.116864
vt 0.592590 0.069227
vt 0.614450 0.159869
vt 0.639838 0.271336
vt 0.637038 0.367811
vt 0.594169 0.318288
vt 0.521435 0.021907
vt 0.588650 0.064220
vt 0.542942 0.111086
vt 0.408878 0.153816
vt 0.365261 0.103458
vt 0.436020 0.064390
vt 0.570488 0.217555
vt 0.616875 0.169920
vt 0.638744 0.260574
vt 0.334605 0.197336
vt 0.361696 0.108101
vt 0.405242 0.158346
vt 0.634144 0.373199
vt 0.564535 0.411615
vt 0.591235 0.323754
vt 0.545312 0.121868
vt 0.613715 0.164974
vt 0.567229 0.212683
vt 0.487297 0.109556
vt 0.444447 0.060036
vt 0.513934 0.021689
vt 0.569997 0.223400
vt 0.637262 0.265788
vt 0.591557 0.312662
vt 0.376212 0.257656
vt 0.329719 0.305402
vt 0.332566 0.207295
vt 0.483698 0.115050
vt 0.413072 0.154025
vt 0.440152 0.064789
vt 0.539176 0.112990
vt 0.490983 0.111534
vt 0.517628 0.023753
vt 0.335208 0.202375
vt 0.405995 0.163310
vt 0.378849 0.252701
vt 0.374847 0.360921
vt 0.331297 0.310659
vt 0.377688 0.263007
vt 0.560893 0.409581
vt 0.539389 0.320293
vt 0.587541 0.321690
vt 0.539552 0.313159
vt 0.566244 0.225221
vt 0.587750 0.314508
vt 0.563795 0.214379
vt 0.514742 0.212956
vt 0.541885 0.123530
vt 0.539319 0.120201
vt 0.512239 0.209423
vt 0.490370 0.118771
vt 0.457156 0.209524
vt 0.413510 0.159163
vt 0.484299 0.120097
vt 0.558006 0.413746
vt 0.509065 0.412326
vt 0.536146 0.323086
vt 0.382988 0.253139
vt 0.410070 0.163918
vt 0.453626 0.214164
vt 0.536522 0.310134
vt 0.514662 0.219473
vt 0.563611 0.220884
vt 0.378463 0.360306
vt 0.381263 0.263831
vt 0.424132 0.313354
vt 0.509534 0.212804
vt 0.460501 0.211359
vt 0.487623 0.121955
vt 0.448304 0.408242
vt 0.381106 0.365848
vt 0.426744 0.318980
vt 0.384156 0.258443
vt 0.453766 0.220027
vt 0.427066 0.307888
vt 0.533584 0.319766
vt 0.506441 0.409193
vt 0.484548 0.318366
vt 0.481778 0.321527
vt 0.503639 0.412169
vt 0.454690 0.410758
vt 0.484717 0.311876
vt 0.511861 0.222451
vt 0.533753 0.313276
vt 0.482155 0.308537
vt 0.460295 0.217895
vt 0.509236 0.219316
vt 0.478749 0.318483
vt 0.452059 0.406315
vt 0.430551 0.317134
vt 0.430760 0.309952
vt 0.457409 0.222062
vt 0.478912 0.311349
vt 0.356335 0.013357
vt 0.285547 0.052422
vt 0.217145 0.009317
vt 0.232590 0.193396
vt 0.211045 0.104056
vt 0.278246 0.146447
vt 0.818442 0.026768
vt 0.747653 0.065833
vt 0.679303 0.022741
vt 0.694697 0.206807
vt 0.673206 0.117546
vt 0.740352 0.159858
vt 0.694984 0.217803
vt 0.738534 0.268065
vt 0.692147 0.315701
vt 0.278033 0.056568
vt 0.207246 0.095612
vt 0.138842 0.052529
vt 0.209561 0.010585
vt 0.277808 0.053592
vt 0.138914 0.049565
vt 0.676855 0.110747
vt 0.747481 0.071771
vt 0.815750 0.114782
vt 0.742964 0.165485
vt 0.740192 0.261878
vt 0.697326 0.212353
vt 0.203038 0.098748
vt 0.169210 0.133487
vt 0.180930 0.084817
vt 0.677758 0.114057
vt 0.814512 0.118052
vt 0.745025 0.156400
vt 0.825938 0.028466
vt 0.894185 0.071480
vt 0.755311 0.067450
vt 0.145479 0.100605
vt 0.134635 0.055644
vt 0.153451 0.067501
vt 0.754916 0.070408
vt 0.894052 0.074457
vt 0.823319 0.113513
vt 0.200762 0.008982
vt 0.131147 0.047348
vt 0.064001 0.005037
vt 0.811607 0.102641
vt 0.828116 0.076898
vt 0.792948 0.127187
vt 0.789452 0.215029
vt 0.743733 0.261981
vt 0.746555 0.165589
vt 0.819036 0.121701
vt 0.792345 0.209641
vt 0.749489 0.160123
vt 0.971575 0.031376
vt 0.902081 0.069771
vt 0.834942 0.027411
vt 0.167132 0.143810
vt 0.206300 0.103576
vt 0.228169 0.194247
vt 0.164909 0.154377
vt 0.126543 0.050808
vt 0.080824 0.097760
vt 0.059328 0.008495
vt 0.898125 0.077802
vt 0.870983 0.167227
vt 0.827366 0.116869
vt 0.823800 0.121497
vt 0.867347 0.171758
vt 0.796711 0.210747
vt 0.976039 0.035100
vt 0.949402 0.122968
vt 0.906552 0.073447
vt 0.902259 0.078214
vt 0.945803 0.128461
vt 0.875179 0.167436
vt 0.077070 0.099579
vt 0.028834 0.098179
vt 0.055521 0.010341
vt 0.136539 0.136499
vt 0.084087 0.103452
vt 0.130485 0.055815
vt 0.143262 0.108795
vn -0.544146 0.834495 -0.086739
vn -0.544146 0.834495 -0.086739
vn -0.544146 0.834495 -0.086739
vn 0.693024 0.142728 -0.706644
vn 0.693024 0.142728 -0.706644
vn 0.693024 0.142728 -0.706644
vn 0.269090 0.705406 -0.655739
vn 0.269090 0.705406 -0.655739
vn 0.269090 0.705406 -0.655739
vn -0.394419 0.893971 -0.212720
vn -0.394419 0.893971 -0.212721
vn -0.394419 0.893971 -0.212720
vn -0.604303 0.719382 0.342501
vn -0.604303 0.719382 0.342501
vn -0.604303 0.719382 0.342501
vn 0.387336 0.636544 -0.666921
vn 0.387336 0.636544 -0.666921
vn 0.387336 0.636544 -0.666921
vn -0.650729 0.394888 0.648549
vn -0.650729 0.394888 0.648549
vn -0.650729 0.394888 0.648549
vn -0.493192 0.841239 0.221538
vn -0.493192 0.841239 0.221538
vn -0.493192 0.841239 0.221538
vn 0.058132 0.892561 -0.447164
vn 0.058132 0.892561 -0.447164
vn 0.058132 0.892561 -0.447164
vn -0.539541 0.295410 0.788435
vn -0.539541 0.295410 0.788435
vn -0.539541 0.295410 0.788435
vn -0.537342 0.659141 0.526115
vn -0.537341 0.659141 0.526115
vn -0.537342 0.659141 0.526115
vn 0.832352 0.338498 -0.438872
vn 0.832352 0.338498 -0.438872
vn 0.832352 0.338498 -0.438872
vn 0.247114 0.832030 -0.496649
vn 0.247114 0.832030 -0.496649
vn 0.247114 0.832030 -0.496649
vn 0.643426 0.643693 -0.414322
vn 0.643426 0.643693 -0.414322
vn 0.643426 0.643693 -0.414322
vn -0.280811 0.946889 -0.156673
vn -0.280811 0.946889 -0.156673
vn -0.280811 0.946889 -0.156673
vn 0.899519 0.283182 -0.332677
vn 0.899519 0.283182 -0.332677
vn 0.899519 0.283182 -0.332677
vn 0.038645 0.945894 -0.322165
vn 0.038645 0.945894 -0.322165
vn 0.038645 0.945894 -0.322165
vn -0.311324 0.904969 0.290015
vn -0.311324 0.904969 0.290015
vn -0.311324 0.904969 0.290015
vn -0.424261 0.355217 0.832961
vn -0.424261 0.355217 0.832961
vn -0.424261 0.355217 0.832961
vn -0.222153 0.954653 0.198206
vn -0.222153 0.954653 0.198206
vn -0.222153 0.954653 0.198206
vn 0.469576 0.838241 -0.277220
vn 0.469576 0.838241 -0.277220
vn 0.469576 0.838241 -0.277220
vn -0.354629 0.726352 0.588771
vn -0.354629 0.726352 0.588771
vn -0.354629 0.726352 0.588771
vn 0.631879 0.715532 -0.297898
vn 0.631879 0.715532 -0.297898
vn 0.631879 0.715532 -0.297898
vn -0.149225 0.171014 0.973902
vn -0.149225 0.171014 0.973902
vn -0.149225 0.171014 0.973902
vn -0.238653 0.848344 0.472607
vn -0.238653 0.848344 0.472607
vn -0.238653 0.848344 0.472607
vn 0.294736 0.953043 -0.069566
vn 0.294736 0.953043 -0.069566
vn 0.294736 0.953043 -0.069566
vn -0.293733 0.659417 0.692019
vn -0.293733 0.659417 0.692019
vn -0.293733 0.659417 0.692019
vn 0.907062 0.390037 -0.158459
vn 0.907062 0.390037 -0.158459
vn 0.907062 0.390037 -0.158459
vn 0.420921 0.902689 -0.089322
vn 0.420921 0.902689 -0.089322
vn 0.420921 0.902689 -0.089322
vn 0.133554 0.958456 0.252041
vn 0.133554 0.958456 0.252041
vn 0.133554 0.958456 0.252041
vn 0.742945 0.655154 -0.137133
vn 0.742945 0.655154 -0.137133
vn 0.742945 0.655154 -0.137133
vn 0.956706 0.290750 0.013310
vn 0.956706 0.290750 0.013310
vn 0.956706 0.290750 0.013310
vn 0.151283 0.361371 0.920068
vn 0.151283 0.361371 0.920068
vn 0.151283 0.361371 0.920068
vn 0.061974 0.663220 0.745854
vn 0.061974 0.663220 0.745854
vn 0.061974 0.663220 0.745854
vn 0.070342 0.851648 0.519372
vn 0.070342 0.851648 0.519372
vn 0.070342 0.851648 0.519372
vn 0.192585 0.910357 0.366280
vn 0.192585 0.910357 0.366280
vn 0.192585 0.910357 0.366280
vn 0.527877 0.845958 0.075507
vn 0.527877 0.845958 0.075507
vn 0.527877 0.845958 0.075507
vn 0.275802 0.304128 0.911833
vn 0.275802 0.304128 0.911833
vn 0.275802 0.304128 0.911833
vn 0.689065 0.723103 0.048088
vn 0.689065 0.723103 0.048088
vn 0.689065 0.723103 0.048088
vn 0.149279 0.731740 0.665036
vn 0.149279 0.731740 0.665036
vn 0.149279 0.731740 0.665036
vn 0.926877 0.351010 0.133008
vn 0.926877 0.351010 0.133008
vn 0.926877 0.351010 0.133008
vn 0.387862 0.850660 0.354882
vn 0.387862 0.850660 0.354882
vn 0.387862 0.850660 0.354882
vn 0.882458 0.167801 0.439443
vn 0.882458 0.167801 0.439443
vn 0.882458 0.167801 0.439443
vn 0.737951 0.656204 0.157559
vn 0.737951 0.656204 0.157559
vn 0.737951 0.656204 0.157559
vn 0.421295 0.406351 0.810796
vn 0.421295 0.406351 0.810796
vn 0.421295 0.406351 0.810796
vn 0.587249 0.303158 0.750489
vn 0.587249 0.303158 0.750489
vn 0.587249 0.303158 0.750489
vn 0.343712 0.668562 0.659459
vn 0.343712 0.668562 0.659459
vn 0.343712 0.668562 0.659459
vn 0.460729 0.730770 0.503690
vn 0.460729 0.730770 0.503690
vn 0.460729 0.730770 0.503690
vn 0.666080 0.359768 0.653379
vn 0.666080 0.359768 0.653379
vn 0.666080 0.359768 0.653379
vn 0.576768 0.661617 0.479167
vn 0.576768 0.661617 0.479167
vn 0.576768 0.661617 0.479167
vn -0.106436 0.828250 -0.550158
vn -0.106436 0.828250 -0.550158
vn -0.106436 0.828250 -0.550158
vn 0.417989 0.326931 -0.847586
vn 0.417989 0.326931 -0.847586
vn 0.417989 0.326931 -0.847586
vn -0.383941 0.829114 -0.406397
vn -0.383941 0.829114 -0.406398
vn -0.383941 0.829114 -0.406397
vn -0.706419 0.647897 0.284959
vn -0.706419 0.647897 0.284959
vn -0.706419 0.647897 0.284959
vn -0.789215 0.288440 0.542165
vn -0.789215 0.288440 0.542165
vn -0.789215 0.288440 0.542165
vn 0.108631 0.637448 -0.762797
vn 0.108631 0.637448 -0.762797
vn 0.108631 0.637448 -0.762797
vn -0.077704 0.701697 -0.708225
vn -0.077704 0.701697 -0.708225
vn -0.077704 0.701697 -0.708225
vn -0.687399 0.708384 -0.160234
vn -0.687399 0.708384 -0.160234
vn -0.687399 0.708384 -0.160234
vn -0.836947 0.343696 0.425902
vn -0.836947 0.343696 0.425902
vn -0.836947 0.343696 0.425902
vn 0.135259 0.368492 -0.919738
vn 0.135259 0.368492 -0.919738
vn 0.135259 0.368492 -0.919738
vn -0.765076 0.640133 -0.069919
vn -0.765076 0.640133 -0.069919
vn -0.765076 0.640133 -0.069919
vn -0.530256 0.703106 -0.473783
vn -0.530256 0.703106 -0.473783
vn -0.530256 0.703106 -0.473783
vn 0.135259 0.368492 -0.919738
vn 0.135259 0.368492 -0.919738
vn 0.135259 0.368492 -0.919738
vn -0.682630 0.639911 -0.352889
vn -0.682630 0.639911 -0.352889
vn -0.682630 0.639911 -0.352889
vn -0.185880 0.630415 -0.753675
vn -0.185880 0.630415 -0.753675
vn -0.185880 0.630415 -0.753675
vn -1.000000 -0.000004 0.000000
vn -1.000000 -0.000004 0.000000
vn -1.000000 -0.000004 0.000000
vn -0.976275 0.147927 0.158129
vn -0.976275 0.147927 0.158129
vn -0.976275 0.147927 0.158129
vn -0.931856 0.331135 -0.148304
vn -0.931856 0.331135 -0.148304
vn -0.931856 0.331135 -0.148304
vn -0.505335 0.631410 -0.588182
vn -0.505335 0.631410 -0.588182
vn -0.505335 0.631410 -0.588182
vn 0.312515 0.266795 -0.911677
vn 0.312515 0.266795 -0.911677
vn 0.312515 0.266795 -0.911677
vn 0.312515 0.266795 -0.911677
vn -0.155227 0.320802 -0.934340
vn -0.155226 0.320802 -0.934340
vn -0.155226 0.320802 -0.934340
vn -0.827509 0.371490 -0.420980
vn -0.827509 0.371490 -0.420980
vn -0.827509 0.371490 -0.420980
vn -0.923667 0.270643 -0.271278
vn -0.923667 0.270643 -0.271278
vn -0.923667 0.270643 -0.271278
vn -0.672114 0.322411 -0.666568
vn -0.672114 0.322411 -0.666568
vn -0.672114 0.322411 -0.666568
vn -0.766523 0.265367 -0.584827
vn -0.766523 0.265367 -0.584827
vn -0.766523 0.265367 -0.584827
vn -0.455737 0.130445 -0.880504
vn -0.455736 0.130445 -0.880505
vn -0.455736 0.130445 -0.880505
vn -0.034279 0.263086 -0.964163
vn -0.034279 0.263086 -0.964163
vn -0.034279 0.263086 -0.964163
vn -0.034279 0.263086 -0.964163
s off
g DomoCristal:polySurface36
usemtl DomoCristal:phong1SG
f 1/1/1 2/2/2 3/3/3
f 4/4/4 5/5/5 6/6/6
f 7/7/7 8/8/8 9/9/9
f 10/10/10 11/11/11 12/12/12
f 13/13/13 14/14/14 15/15/15
f 16/16/16 17/17/17 18/18/18
f 19/19/19 20/20/20 21/21/21
f 22/22/22 23/23/23 24/24/24
f 25/25/25 26/26/26 27/27/27
f 28/28/28 29/29/29 30/30/30
f 31/31/31 32/32/32 33/33/33
f 34/34/34 35/35/35 36/36/36
f 37/37/37 38/38/38 39/39/39
f 40/40/40 41/41/41 42/42/42
f 43/43/43 44/44/44 45/45/45
f 46/46/46 47/47/47 48/48/48
f 49/49/49 50/50/50 51/51/51
f 52/52/52 53/53/53 54/54/54
f 55/55/55 56/56/56 57/57/57
f 58/58/58 59/59/59 60/60/60
f 61/61/61 62/62/62 63/63/63
f 64/64/64 65/65/65 66/66/66
f 67/67/67 68/68/68 69/69/69
f 70/70/70 71/71/71 72/72/72
f 73/73/73 74/74/74 75/75/75
f 76/76/76 77/77/77 78/78/78
f 79/79/79 80/80/80 81/81/81
f 82/82/82 83/83/83 84/84/84
f 85/85/85 86/86/86 87/87/87
f 88/88/88 89/89/89 90/90/90
f 91/91/91 92/92/92 93/93/93
f 94/94/94 95/95/95 96/96/96
f 97/97/97 98/98/98 99/99/99
f 100/100/100 101/101/101 102/102/102
f 103/103/103 104/104/104 105/105/105
f 106/106/106 107/107/107 108/108/108
f 109/109/109 110/110/110 111/111/111
f 112/112/112 113/113/113 114/114/114
f 115/115/115 116/116/116 117/117/117
f 118/118/118 119/119/119 120/120/120
f 121/121/121 122/122/122 123/123/123
f 124/124/124 125/125/125 126/126/126
f 127/127/127 128/128/128 129/129/129
f 130/130/130 131/131/131 132/132/132
f 133/133/133 134/134/134 135/135/135
f 136/136/136 137/137/137 138/138/138
f 139/139/139 140/140/140 141/141/141
f 142/142/142 143/143/143 144/144/144
f 145/145/145 146/146/146 147/147/147
f 148/148/148 149/149/149 150/150/150
f 151/151/151 152/152/152 153/153/153
f 154/154/154 155/155/155 156/156/156
f 157/157/157 158/158/158 159/159/159
f 160/160/160 161/161/161 162/162/162
f 163/163/163 164/164/164 165/165/165
f 166/166/166 167/167/167 168/168/168
f 169/169/169 170/170/170 171/171/171
f 172/172/172 173/173/173 174/174/174
f 175/175/175 176/176/176 177/177/177
f 178/178/178 179/179/179 180/180/180
f 181/181/181 182/182/182 183/183/183
f 184/184/184 185/185/185 186/186/186
f 187/187/187 188/188/188 189/189/189
f 190/190/190 191/191/191 192/192/192
f 193/193/193 194/194/194 195/195/195
f 196/196/196 197/197/197 179/198/198
f 198/199/199 199/200/200 200/201/201
f 201/202/202 202/203/203 203/204/204
f 204/205/205 205/206/206 206/207/207
f 196/208/208 207/209/209 208/210/210 197/211/211
f 209/212/212 210/213/213 211/214/214
f 212/215/215 213/216/216 214/217/217
f 215/218/218 216/219/219 217/220/220
f 218/221/221 219/222/222 220/223/223
f 221/224/224 222/225/225 223/226/226
f 224/227/227 225/228/228 226/229/229
f 227/230/230 228/231/231 229/232/232 230/233/233
