# This file uses centimeters as units for non-parametric coordinates.

mtllib PufferDer.mtl
g default
v 0.515986 2.812874 0.062651
v 0.481657 2.823769 0.066879
v 0.544533 2.840936 0.071107
v 0.493583 2.846550 0.073222
v 0.559349 2.884847 0.076604
v 0.497919 2.880555 0.077872
v 0.561518 2.937672 0.077872
v 0.495027 2.919844 0.075335
v 0.528995 2.971018 0.067725
v 0.477321 2.942954 0.065612
v 0.447329 2.842257 0.065612
v 0.441546 2.877584 0.068570
v 0.434319 2.903996 0.067725
v 0.515986 2.812874 0.062651
v 0.544533 2.840936 0.071107
v 0.481657 2.823769 0.066879
v 0.493583 2.846550 0.073222
v 0.447329 2.842257 0.065612
v 0.497919 2.880555 0.077872
v 0.441546 2.877584 0.068570
v 0.495027 2.919844 0.075335
v 0.434319 2.903996 0.068146
v 0.477321 2.942954 0.065612
v 0.559349 2.884847 0.076604
v 0.561518 2.937672 0.077872
v 0.528995 2.971018 0.067725
v 0.515986 2.812874 0.062651
v 0.481657 2.823769 0.066879
v 0.544533 2.840936 0.071107
v 0.493583 2.846550 0.073222
v 0.559349 2.884847 0.076604
v 0.497919 2.880555 0.077872
v 0.561518 2.937672 0.077872
v 0.495027 2.919844 0.075335
v 0.528995 2.971018 0.067725
v 0.477321 2.942954 0.065612
v 0.447329 2.842257 0.065612
v 0.441546 2.877584 0.068570
v 0.434319 2.903996 0.067725
v 0.515986 2.812874 0.062651
v 0.544533 2.840936 0.071107
v 0.481657 2.823769 0.066879
v 0.493583 2.846550 0.073222
v 0.447329 2.842257 0.065612
v 0.497919 2.880555 0.077872
v 0.441546 2.877584 0.068570
v 0.495027 2.919844 0.075335
v 0.434319 2.903996 0.068146
v 0.477321 2.942954 0.065612
v 0.559349 2.884847 0.076604
v 0.561518 2.937672 0.077872
v 0.528995 2.971018 0.067725
v 0.515986 2.812874 0.062651
v 0.481657 2.823769 0.066879
v 0.544533 2.840936 0.071107
v 0.493583 2.846550 0.073222
v 0.559349 2.884847 0.076604
v 0.497919 2.880555 0.077872
v 0.561518 2.937672 0.077872
v 0.495027 2.919844 0.075335
v 0.528995 2.971018 0.067725
v 0.477321 2.942954 0.065612
v 0.447329 2.842257 0.065612
v 0.441546 2.877584 0.068570
v 0.434319 2.903996 0.067725
v 0.515986 2.812874 0.062651
v 0.544533 2.840936 0.071107
v 0.481657 2.823769 0.066879
v 0.493583 2.846550 0.073222
v 0.447329 2.842257 0.065612
v 0.497919 2.880555 0.077872
v 0.441546 2.877584 0.068570
v 0.495027 2.919844 0.075335
v 0.434319 2.903996 0.068146
v 0.477321 2.942954 0.065612
v 0.559349 2.884847 0.076604
v 0.561518 2.937672 0.077872
v 0.528995 2.971018 0.067725
v 0.515986 2.812874 0.062651
v 0.481657 2.823769 0.066879
v 0.544533 2.840936 0.071107
v 0.493583 2.846550 0.073222
v 0.559349 2.884847 0.076604
v 0.497919 2.880555 0.077872
v 0.561518 2.937672 0.077872
v 0.495027 2.919844 0.075335
v 0.528995 2.971018 0.067725
v 0.477321 2.942954 0.065612
v 0.447329 2.842257 0.065612
v 0.441546 2.877584 0.068570
v 0.434319 2.903996 0.067725
v 0.515986 2.812874 0.062651
v 0.544533 2.840936 0.071107
v 0.481657 2.823769 0.066879
v 0.493583 2.846550 0.073222
v 0.447329 2.842257 0.065612
v 0.497919 2.880555 0.077872
v 0.441546 2.877584 0.068570
v 0.495027 2.919844 0.075335
v 0.434319 2.903996 0.068146
v 0.477321 2.942954 0.065612
v 0.559349 2.884847 0.076604
v 0.561518 2.937672 0.077872
v 0.528995 2.971018 0.067725
vt 0.242052 0.929386
vt 0.257639 0.900551
vt 0.264164 0.957860
vt 0.257639 0.900551
vt 0.276367 0.914368
vt 0.264164 0.957860
vt 0.264164 0.957860
vt 0.276367 0.914368
vt 0.300774 0.976122
vt 0.276367 0.914368
vt 0.305245 0.922658
vt 0.300774 0.976122
vt 0.300774 0.976122
vt 0.305245 0.922658
vt 0.346447 0.984892
vt 0.305245 0.922658
vt 0.339560 0.924940
vt 0.346447 0.984892
vt 0.346447 0.984892
vt 0.339560 0.924940
vt 0.380279 0.960383
vt 0.339560 0.924940
vt 0.362759 0.911845
vt 0.380279 0.960383
vt 0.276367 0.914368
vt 0.278059 0.873399
vt 0.305245 0.922658
vt 0.278059 0.873399
vt 0.309837 0.871957
vt 0.305245 0.922658
vt 0.305245 0.922658
vt 0.309837 0.871957
vt 0.339560 0.924940
vt 0.309837 0.871957
vt 0.333156 0.871957
vt 0.339560 0.924940
vt 0.339560 0.924940
vt 0.333156 0.871957
vt 0.362759 0.911845
vt 0.278059 0.873399
vt 0.276367 0.914368
vt 0.257639 0.900551
vt 0.242052 0.929386
vt 0.264164 0.957860
vt 0.257760 0.900551
vt 0.276367 0.914368
vt 0.278059 0.873399
vt 0.305245 0.922658
vt 0.309837 0.871957
vt 0.339560 0.924940
vt 0.333156 0.871957
vt 0.362759 0.911845
vt 0.300774 0.976122
vt 0.346447 0.984892
vt 0.380279 0.960383
vt 0.242052 0.929386
vt 0.257639 0.900551
vt 0.264164 0.957860
vt 0.257639 0.900551
vt 0.276367 0.914368
vt 0.264164 0.957860
vt 0.264164 0.957860
vt 0.276367 0.914368
vt 0.300774 0.976122
vt 0.276367 0.914368
vt 0.305245 0.922658
vt 0.300774 0.976122
vt 0.300774 0.976122
vt 0.305245 0.922658
vt 0.346447 0.984892
vt 0.305245 0.922658
vt 0.339560 0.924940
vt 0.346447 0.984892
vt 0.346447 0.984892
vt 0.339560 0.924940
vt 0.380279 0.960383
vt 0.339560 0.924940
vt 0.362759 0.911845
vt 0.380279 0.960383
vt 0.276367 0.914368
vt 0.278059 0.873399
vt 0.305245 0.922658
vt 0.278059 0.873399
vt 0.309837 0.871957
vt 0.305245 0.922658
vt 0.305245 0.922658
vt 0.309837 0.871957
vt 0.339560 0.924940
vt 0.309837 0.871957
vt 0.333156 0.871957
vt 0.339560 0.924940
vt 0.339560 0.924940
vt 0.333156 0.871957
vt 0.362759 0.911845
vt 0.278059 0.873399
vt 0.276367 0.914368
vt 0.257639 0.900551
vt 0.242052 0.929386
vt 0.264164 0.957860
vt 0.257760 0.900551
vt 0.276367 0.914368
vt 0.278059 0.873399
vt 0.305245 0.922658
vt 0.309837 0.871957
vt 0.339560 0.924940
vt 0.333156 0.871957
vt 0.362759 0.911845
vt 0.300774 0.976122
vt 0.346447 0.984892
vt 0.380279 0.960383
vt 0.242052 0.929386
vt 0.257639 0.900551
vt 0.264164 0.957860
vt 0.257639 0.900551
vt 0.276367 0.914368
vt 0.264164 0.957860
vt 0.264164 0.957860
vt 0.276367 0.914368
vt 0.300774 0.976122
vt 0.276367 0.914368
vt 0.305245 0.922658
vt 0.300774 0.976122
vt 0.300774 0.976122
vt 0.305245 0.922658
vt 0.346447 0.984892
vt 0.305245 0.922658
vt 0.339560 0.924940
vt 0.346447 0.984892
vt 0.346447 0.984892
vt 0.339560 0.924940
vt 0.380279 0.960383
vt 0.339560 0.924940
vt 0.362759 0.911845
vt 0.380279 0.960383
vt 0.276367 0.914368
vt 0.278059 0.873399
vt 0.305245 0.922658
vt 0.278059 0.873399
vt 0.309837 0.871957
vt 0.305245 0.922658
vt 0.305245 0.922658
vt 0.309837 0.871957
vt 0.339560 0.924940
vt 0.309837 0.871957
vt 0.333156 0.871957
vt 0.339560 0.924940
vt 0.339560 0.924940
vt 0.333156 0.871957
vt 0.362759 0.911845
vt 0.278059 0.873399
vt 0.276367 0.914368
vt 0.257639 0.900551
vt 0.242052 0.929386
vt 0.264164 0.957860
vt 0.257760 0.900551
vt 0.276367 0.914368
vt 0.278059 0.873399
vt 0.305245 0.922658
vt 0.309837 0.871957
vt 0.339560 0.924940
vt 0.333156 0.871957
vt 0.362759 0.911845
vt 0.300774 0.976122
vt 0.346447 0.984892
vt 0.380279 0.960383
vt 0.242052 0.929386
vt 0.257639 0.900551
vt 0.264164 0.957860
vt 0.257639 0.900551
vt 0.276367 0.914368
vt 0.264164 0.957860
vt 0.264164 0.957860
vt 0.276367 0.914368
vt 0.300774 0.976122
vt 0.276367 0.914368
vt 0.305245 0.922658
vt 0.300774 0.976122
vt 0.300774 0.976122
vt 0.305245 0.922658
vt 0.346447 0.984892
vt 0.305245 0.922658
vt 0.339560 0.924940
vt 0.346447 0.984892
vt 0.346447 0.984892
vt 0.339560 0.924940
vt 0.380279 0.960383
vt 0.339560 0.924940
vt 0.362759 0.911845
vt 0.380279 0.960383
vt 0.276367 0.914368
vt 0.278059 0.873399
vt 0.305245 0.922658
vt 0.278059 0.873399
vt 0.309837 0.871957
vt 0.305245 0.922658
vt 0.305245 0.922658
vt 0.309837 0.871957
vt 0.339560 0.924940
vt 0.309837 0.871957
vt 0.333156 0.871957
vt 0.339560 0.924940
vt 0.339560 0.924940
vt 0.333156 0.871957
vt 0.362759 0.911845
vt 0.278059 0.873399
vt 0.276367 0.914368
vt 0.257639 0.900551
vt 0.242052 0.929386
vt 0.264164 0.957860
vt 0.257760 0.900551
vt 0.276367 0.914368
vt 0.278059 0.873399
vt 0.305245 0.922658
vt 0.309837 0.871957
vt 0.339560 0.924940
vt 0.333156 0.871957
vt 0.362759 0.911845
vt 0.300774 0.976122
vt 0.346447 0.984892
vt 0.380279 0.960383
vn -0.019801 0.306865 -0.951547
vn -0.019801 0.306865 -0.951547
vn -0.019801 0.306865 -0.951547
vn -0.009843 0.272961 -0.961975
vn -0.009843 0.272961 -0.961975
vn -0.009843 0.272962 -0.961975
vn -0.026461 0.132942 -0.990771
vn -0.026461 0.132942 -0.990771
vn -0.026461 0.132942 -0.990771
vn -0.030162 0.139211 -0.989803
vn -0.030162 0.139211 -0.989803
vn -0.030162 0.139211 -0.989803
vn -0.022375 0.024915 -0.999439
vn -0.022375 0.024915 -0.999439
vn -0.022375 0.024915 -0.999439
vn 0.054213 -0.060366 -0.996703
vn 0.054213 -0.060366 -0.996703
vn 0.054213 -0.060366 -0.996703
vn 0.092465 -0.206238 -0.974123
vn 0.092465 -0.206238 -0.974123
vn 0.092465 -0.206238 -0.974123
vn 0.180440 -0.260805 -0.948379
vn 0.180440 -0.260805 -0.948379
vn 0.180440 -0.260805 -0.948379
vn 0.150875 0.115038 -0.981837
vn 0.150875 0.115038 -0.981837
vn 0.150875 0.115038 -0.981837
vn 0.156316 0.107839 -0.981802
vn 0.156316 0.107839 -0.981802
vn 0.156316 0.107839 -0.981802
vn 0.165224 -0.051437 -0.984914
vn 0.165224 -0.051437 -0.984914
vn 0.165224 -0.051437 -0.984914
vn 0.123837 0.002122 -0.992300
vn 0.123837 0.002122 -0.992300
vn 0.123837 0.002122 -0.992300
vn 0.185894 -0.256659 -0.948456
vn 0.185894 -0.256659 -0.948456
vn 0.185894 -0.256659 -0.948456
vn 0.141460 0.196085 -0.970330
vn 0.141460 0.196085 -0.970330
vn 0.141460 0.196085 -0.970330
vn 0.019801 -0.306866 0.951547
vn 0.019801 -0.306866 0.951547
vn 0.019801 -0.306866 0.951547
vn 0.009843 -0.272962 0.961975
vn 0.009843 -0.272961 0.961975
vn 0.009843 -0.272961 0.961975
vn -0.141460 -0.196085 0.970330
vn -0.141460 -0.196085 0.970330
vn -0.141460 -0.196085 0.970330
vn -0.150875 -0.115038 0.981837
vn -0.150875 -0.115038 0.981837
vn -0.150875 -0.115038 0.981837
vn -0.156316 -0.107839 0.981802
vn -0.156316 -0.107839 0.981802
vn -0.156316 -0.107839 0.981802
vn -0.165224 0.051437 0.984914
vn -0.165224 0.051437 0.984914
vn -0.165224 0.051437 0.984914
vn -0.113648 -0.015193 0.993405
vn -0.113648 -0.015193 0.993405
vn -0.113648 -0.015193 0.993405
vn -0.180378 0.260853 0.948377
vn -0.180378 0.260853 0.948377
vn -0.180378 0.260853 0.948377
vn 0.030162 -0.139212 0.989803
vn 0.030162 -0.139212 0.989803
vn 0.030162 -0.139212 0.989803
vn 0.022375 -0.024915 0.999439
vn 0.022375 -0.024915 0.999439
vn 0.022375 -0.024915 0.999439
vn -0.054213 0.060366 0.996703
vn -0.054213 0.060366 0.996703
vn -0.054213 0.060366 0.996703
vn -0.092465 0.206238 0.974123
vn -0.092465 0.206238 0.974123
vn -0.092465 0.206238 0.974123
vn -0.180440 0.260805 0.948379
vn -0.180440 0.260805 0.948379
vn -0.180440 0.260805 0.948379
vn 0.026462 -0.132942 0.990771
vn 0.026462 -0.132942 0.990771
vn 0.026462 -0.132942 0.990771
vn -0.019801 0.306865 -0.951547
vn -0.019801 0.306865 -0.951547
vn -0.019801 0.306865 -0.951547
vn -0.009843 0.272961 -0.961975
vn -0.009843 0.272961 -0.961975
vn -0.009843 0.272962 -0.961975
vn -0.026461 0.132942 -0.990771
vn -0.026461 0.132942 -0.990771
vn -0.026461 0.132942 -0.990771
vn -0.030162 0.139211 -0.989803
vn -0.030162 0.139211 -0.989803
vn -0.030162 0.139211 -0.989803
vn -0.022375 0.024915 -0.999439
vn -0.022375 0.024915 -0.999439
vn -0.022375 0.024915 -0.999439
vn 0.054213 -0.060366 -0.996703
vn 0.054213 -0.060366 -0.996703
vn 0.054213 -0.060366 -0.996703
vn 0.092465 -0.206238 -0.974123
vn 0.092465 -0.206238 -0.974123
vn 0.092465 -0.206238 -0.974123
vn 0.180440 -0.260805 -0.948379
vn 0.180440 -0.260805 -0.948379
vn 0.180440 -0.260805 -0.948379
vn 0.150875 0.115038 -0.981837
vn 0.150875 0.115038 -0.981837
vn 0.150875 0.115038 -0.981837
vn 0.156316 0.107839 -0.981802
vn 0.156316 0.107839 -0.981802
vn 0.156316 0.107839 -0.981802
vn 0.165224 -0.051437 -0.984914
vn 0.165224 -0.051437 -0.984914
vn 0.165224 -0.051437 -0.984914
vn 0.123837 0.002122 -0.992300
vn 0.123837 0.002122 -0.992300
vn 0.123837 0.002122 -0.992300
vn 0.185894 -0.256659 -0.948456
vn 0.185894 -0.256659 -0.948456
vn 0.185894 -0.256659 -0.948456
vn 0.141460 0.196085 -0.970330
vn 0.141460 0.196085 -0.970330
vn 0.141460 0.196085 -0.970330
vn 0.019801 -0.306866 0.951547
vn 0.019801 -0.306866 0.951547
vn 0.019801 -0.306866 0.951547
vn 0.009843 -0.272962 0.961975
vn 0.009843 -0.272961 0.961975
vn 0.009843 -0.272961 0.961975
vn -0.141460 -0.196085 0.970330
vn -0.141460 -0.196085 0.970330
vn -0.141460 -0.196085 0.970330
vn -0.150875 -0.115038 0.981837
vn -0.150875 -0.115038 0.981837
vn -0.150875 -0.115038 0.981837
vn -0.156316 -0.107839 0.981802
vn -0.156316 -0.107839 0.981802
vn -0.156316 -0.107839 0.981802
vn -0.165224 0.051437 0.984914
vn -0.165224 0.051437 0.984914
vn -0.165224 0.051437 0.984914
vn -0.113648 -0.015193 0.993405
vn -0.113648 -0.015193 0.993405
vn -0.113648 -0.015193 0.993405
vn -0.180378 0.260853 0.948377
vn -0.180378 0.260853 0.948377
vn -0.180378 0.260853 0.948377
vn 0.030162 -0.139212 0.989803
vn 0.030162 -0.139212 0.989803
vn 0.030162 -0.139212 0.989803
vn 0.022375 -0.024915 0.999439
vn 0.022375 -0.024915 0.999439
vn 0.022375 -0.024915 0.999439
vn -0.054213 0.060366 0.996703
vn -0.054213 0.060366 0.996703
vn -0.054213 0.060366 0.996703
vn -0.092465 0.206238 0.974123
vn -0.092465 0.206238 0.974123
vn -0.092465 0.206238 0.974123
vn -0.180440 0.260805 0.948379
vn -0.180440 0.260805 0.948379
vn -0.180440 0.260805 0.948379
vn 0.026462 -0.132942 0.990771
vn 0.026462 -0.132942 0.990771
vn 0.026462 -0.132942 0.990771
vn -0.019801 0.306865 -0.951547
vn -0.019801 0.306865 -0.951547
vn -0.019801 0.306865 -0.951547
vn -0.009843 0.272961 -0.961975
vn -0.009843 0.272961 -0.961975
vn -0.009843 0.272962 -0.961975
vn -0.026461 0.132942 -0.990771
vn -0.026461 0.132942 -0.990771
vn -0.026461 0.132942 -0.990771
vn -0.030162 0.139211 -0.989803
vn -0.030162 0.139211 -0.989803
vn -0.030162 0.139211 -0.989803
vn -0.022375 0.024915 -0.999439
vn -0.022375 0.024915 -0.999439
vn -0.022375 0.024915 -0.999439
vn 0.054213 -0.060366 -0.996703
vn 0.054213 -0.060366 -0.996703
vn 0.054213 -0.060366 -0.996703
vn 0.092465 -0.206238 -0.974123
vn 0.092465 -0.206238 -0.974123
vn 0.092465 -0.206238 -0.974123
vn 0.180440 -0.260805 -0.948379
vn 0.180440 -0.260805 -0.948379
vn 0.180440 -0.260805 -0.948379
vn 0.150875 0.115038 -0.981837
vn 0.150875 0.115038 -0.981837
vn 0.150875 0.115038 -0.981837
vn 0.156316 0.107839 -0.981802
vn 0.156316 0.107839 -0.981802
vn 0.156316 0.107839 -0.981802
vn 0.165224 -0.051437 -0.984914
vn 0.165224 -0.051437 -0.984914
vn 0.165224 -0.051437 -0.984914
vn 0.123837 0.002122 -0.992300
vn 0.123837 0.002122 -0.992300
vn 0.123837 0.002122 -0.992300
vn 0.185894 -0.256659 -0.948456
vn 0.185894 -0.256659 -0.948456
vn 0.185894 -0.256659 -0.948456
vn 0.141460 0.196085 -0.970330
vn 0.141460 0.196085 -0.970330
vn 0.141460 0.196085 -0.970330
vn 0.019801 -0.306866 0.951547
vn 0.019801 -0.306866 0.951547
vn 0.019801 -0.306866 0.951547
vn 0.009843 -0.272962 0.961975
vn 0.009843 -0.272961 0.961975
vn 0.009843 -0.272961 0.961975
vn -0.141460 -0.196085 0.970330
vn -0.141460 -0.196085 0.970330
vn -0.141460 -0.196085 0.970330
vn -0.150875 -0.115038 0.981837
vn -0.150875 -0.115038 0.981837
vn -0.150875 -0.115038 0.981837
vn -0.156316 -0.107839 0.981802
vn -0.156316 -0.107839 0.981802
vn -0.156316 -0.107839 0.981802
vn -0.165224 0.051437 0.984914
vn -0.165224 0.051437 0.984914
vn -0.165224 0.051437 0.984914
vn -0.113648 -0.015193 0.993405
vn -0.113648 -0.015193 0.993405
vn -0.113648 -0.015193 0.993405
vn -0.180378 0.260853 0.948377
vn -0.180378 0.260853 0.948377
vn -0.180378 0.260853 0.948377
vn 0.030162 -0.139212 0.989803
vn 0.030162 -0.139212 0.989803
vn 0.030162 -0.139212 0.989803
vn 0.022375 -0.024915 0.999439
vn 0.022375 -0.024915 0.999439
vn 0.022375 -0.024915 0.999439
vn -0.054213 0.060366 0.996703
vn -0.054213 0.060366 0.996703
vn -0.054213 0.060366 0.996703
vn -0.092465 0.206238 0.974123
vn -0.092465 0.206238 0.974123
vn -0.092465 0.206238 0.974123
vn -0.180440 0.260805 0.948379
vn -0.180440 0.260805 0.948379
vn -0.180440 0.260805 0.948379
vn 0.026462 -0.132942 0.990771
vn 0.026462 -0.132942 0.990771
vn 0.026462 -0.132942 0.990771
vn -0.019801 0.306865 -0.951547
vn -0.019801 0.306865 -0.951547
vn -0.019801 0.306865 -0.951547
vn -0.009843 0.272961 -0.961975
vn -0.009843 0.272961 -0.961975
vn -0.009843 0.272962 -0.961975
vn -0.026461 0.132942 -0.990771
vn -0.026461 0.132942 -0.990771
vn -0.026461 0.132942 -0.990771
vn -0.030162 0.139211 -0.989803
vn -0.030162 0.139211 -0.989803
vn -0.030162 0.139211 -0.989803
vn -0.022375 0.024915 -0.999439
vn -0.022375 0.024915 -0.999439
vn -0.022375 0.024915 -0.999439
vn 0.054213 -0.060366 -0.996703
vn 0.054213 -0.060366 -0.996703
vn 0.054213 -0.060366 -0.996703
vn 0.092465 -0.206238 -0.974123
vn 0.092465 -0.206238 -0.974123
vn 0.092465 -0.206238 -0.974123
vn 0.180440 -0.260805 -0.948379
vn 0.180440 -0.260805 -0.948379
vn 0.180440 -0.260805 -0.948379
vn 0.150875 0.115038 -0.981837
vn 0.150875 0.115038 -0.981837
vn 0.150875 0.115038 -0.981837
vn 0.156316 0.107839 -0.981802
vn 0.156316 0.107839 -0.981802
vn 0.156316 0.107839 -0.981802
vn 0.165224 -0.051437 -0.984914
vn 0.165224 -0.051437 -0.984914
vn 0.165224 -0.051437 -0.984914
vn 0.123837 0.002122 -0.992300
vn 0.123837 0.002122 -0.992300
vn 0.123837 0.002122 -0.992300
vn 0.185894 -0.256659 -0.948456
vn 0.185894 -0.256659 -0.948456
vn 0.185894 -0.256659 -0.948456
vn 0.141460 0.196085 -0.970330
vn 0.141460 0.196085 -0.970330
vn 0.141460 0.196085 -0.970330
vn 0.019801 -0.306866 0.951547
vn 0.019801 -0.306866 0.951547
vn 0.019801 -0.306866 0.951547
vn 0.009843 -0.272962 0.961975
vn 0.009843 -0.272961 0.961975
vn 0.009843 -0.272961 0.961975
vn -0.141460 -0.196085 0.970330
vn -0.141460 -0.196085 0.970330
vn -0.141460 -0.196085 0.970330
vn -0.150875 -0.115038 0.981837
vn -0.150875 -0.115038 0.981837
vn -0.150875 -0.115038 0.981837
vn -0.156316 -0.107839 0.981802
vn -0.156316 -0.107839 0.981802
vn -0.156316 -0.107839 0.981802
vn -0.165224 0.051437 0.984914
vn -0.165224 0.051437 0.984914
vn -0.165224 0.051437 0.984914
vn -0.113648 -0.015193 0.993405
vn -0.113648 -0.015193 0.993405
vn -0.113648 -0.015193 0.993405
vn -0.180378 0.260853 0.948377
vn -0.180378 0.260853 0.948377
vn -0.180378 0.260853 0.948377
vn 0.030162 -0.139212 0.989803
vn 0.030162 -0.139212 0.989803
vn 0.030162 -0.139212 0.989803
vn 0.022375 -0.024915 0.999439
vn 0.022375 -0.024915 0.999439
vn 0.022375 -0.024915 0.999439
vn -0.054213 0.060366 0.996703
vn -0.054213 0.060366 0.996703
vn -0.054213 0.060366 0.996703
vn -0.092465 0.206238 0.974123
vn -0.092465 0.206238 0.974123
vn -0.092465 0.206238 0.974123
vn -0.180440 0.260805 0.948379
vn -0.180440 0.260805 0.948379
vn -0.180440 0.260805 0.948379
vn 0.026462 -0.132942 0.990771
vn 0.026462 -0.132942 0.990771
vn 0.026462 -0.132942 0.990771
s off
g PufferIzq:AletaIzq
usemtl PufferIzq:lambert3SG
f 1/1/1 2/2/2 3/3/3
f 2/4/4 4/5/5 3/6/6
f 3/7/7 4/8/8 5/9/9
f 4/10/10 6/11/11 5/12/12
f 5/13/13 6/14/14 7/15/15
f 6/16/16 8/17/17 7/18/18
f 7/19/19 8/20/20 9/21/21
f 8/22/22 10/23/23 9/24/24
f 4/25/25 11/26/26 6/27/27
f 11/28/28 12/29/29 6/30/30
f 6/31/31 12/32/32 8/33/33
f 12/34/34 13/35/35 8/36/36
f 8/37/37 13/38/38 10/39/39
f 11/40/40 4/41/41 2/42/42
usemtl PufferIzq:lambert4SG
f 14/43/43 15/44/44 16/45/45
f 15/44/46 17/46/47 16/45/48
f 16/45/49 17/46/50 18/47/51
f 17/46/52 19/48/53 18/47/54
f 18/47/55 19/48/56 20/49/57
f 19/48/58 21/50/59 20/49/60
usemtl PufferIzq:lambert3SG
f 20/49/61 21/50/62 22/51/63
f 21/50/64 23/52/65 22/51/66
usemtl PufferIzq:lambert4SG
f 17/46/67 24/53/68 19/48/69
f 24/53/70 25/54/71 19/48/72
f 19/48/73 25/54/74 21/50/75
f 25/54/76 26/55/77 21/50/78
f 21/50/79 26/55/80 23/52/81
usemtl PufferIzq:lambert3SG
f 17/46/82 15/44/83 24/53/84
f 27/56/85 28/57/86 29/58/87
f 28/59/88 30/60/89 29/61/90
f 29/62/91 30/63/92 31/64/93
f 30/65/94 32/66/95 31/67/96
f 31/68/97 32/69/98 33/70/99
f 32/71/100 34/72/101 33/73/102
f 33/74/103 34/75/104 35/76/105
f 34/77/106 36/78/107 35/79/108
f 30/80/109 37/81/110 32/82/111
f 37/83/112 38/84/113 32/85/114
f 32/86/115 38/87/116 34/88/117
f 38/89/118 39/90/119 34/91/120
f 34/92/121 39/93/122 36/94/123
f 37/95/124 30/96/125 28/97/126
f 40/98/127 41/99/128 42/100/129
f 41/99/130 43/101/131 42/100/132
f 42/100/133 43/101/134 44/102/135
f 43/101/136 45/103/137 44/102/138
f 44/102/139 45/103/140 46/104/141
f 45/103/142 47/105/143 46/104/144
f 46/104/145 47/105/146 48/106/147
f 47/105/148 49/107/149 48/106/150
f 43/101/151 50/108/152 45/103/153
f 50/108/154 51/109/155 45/103/156
f 45/103/157 51/109/158 47/105/159
f 51/109/160 52/110/161 47/105/162
f 47/105/163 52/110/164 49/107/165
f 43/101/166 41/99/167 50/108/168
f 53/111/169 54/112/170 55/113/171
f 54/114/172 56/115/173 55/116/174
f 55/117/175 56/118/176 57/119/177
f 56/120/178 58/121/179 57/122/180
f 57/123/181 58/124/182 59/125/183
f 58/126/184 60/127/185 59/128/186
f 59/129/187 60/130/188 61/131/189
f 60/132/190 62/133/191 61/134/192
f 56/135/193 63/136/194 58/137/195
f 63/138/196 64/139/197 58/140/198
f 58/141/199 64/142/200 60/143/201
f 64/144/202 65/145/203 60/146/204
f 60/147/205 65/148/206 62/149/207
f 63/150/208 56/151/209 54/152/210
f 66/153/211 67/154/212 68/155/213
f 67/154/214 69/156/215 68/155/216
f 68/155/217 69/156/218 70/157/219
f 69/156/220 71/158/221 70/157/222
f 70/157/223 71/158/224 72/159/225
f 71/158/226 73/160/227 72/159/228
f 72/159/229 73/160/230 74/161/231
f 73/160/232 75/162/233 74/161/234
f 69/156/235 76/163/236 71/158/237
f 76/163/238 77/164/239 71/158/240
f 71/158/241 77/164/242 73/160/243
f 77/164/244 78/165/245 73/160/246
f 73/160/247 78/165/248 75/162/249
f 69/156/250 67/154/251 76/163/252
f 79/166/253 80/167/254 81/168/255
f 80/169/256 82/170/257 81/171/258
f 81/172/259 82/173/260 83/174/261
f 82/175/262 84/176/263 83/177/264
f 83/178/265 84/179/266 85/180/267
f 84/181/268 86/182/269 85/183/270
f 85/184/271 86/185/272 87/186/273
f 86/187/274 88/188/275 87/189/276
f 82/190/277 89/191/278 84/192/279
f 89/193/280 90/194/281 84/195/282
f 84/196/283 90/197/284 86/198/285
f 90/199/286 91/200/287 86/201/288
f 86/202/289 91/203/290 88/204/291
f 89/205/292 82/206/293 80/207/294
f 92/208/295 93/209/296 94/210/297
f 93/209/298 95/211/299 94/210/300
f 94/210/301 95/211/302 96/212/303
f 95/211/304 97/213/305 96/212/306
f 96/212/307 97/213/308 98/214/309
f 97/213/310 99/215/311 98/214/312
f 98/214/313 99/215/314 100/216/315
f 99/215/316 101/217/317 100/216/318
f 95/211/319 102/218/320 97/213/321
f 102/218/322 103/219/323 97/213/324
f 97/213/325 103/219/326 99/215/327
f 103/219/328 104/220/329 99/215/330
f 99/215/331 104/220/332 101/217/333
f 95/211/334 93/209/335 102/218/336
