# This file uses centimeters as units for non-parametric coordinates.

mtllib PeceraCristal.mtl
g default
v 1.955638 1.073523 -0.635425
v 1.663566 1.073523 -1.208651
v 1.208651 1.073523 -1.663564
v 0.635425 1.073523 -1.955638
v 0.000000 1.073523 -2.056278
v -0.635425 1.073523 -1.955638
v -1.208649 1.073523 -1.663564
v -1.663564 1.073523 -1.208649
v -1.955638 1.073523 -0.635425
v -2.056278 1.073523 0.000000
v -1.955638 1.073523 0.635425
v -1.663564 1.073523 1.208649
v -1.208649 1.073523 1.663564
v -0.635425 1.073523 1.955638
v 0.000000 1.073523 2.056278
v 0.635425 1.073523 1.955638
v 1.208649 1.073523 1.663564
v 1.663564 1.073523 1.208649
v 1.955638 1.073523 0.635425
v 2.056278 1.073523 0.000000
v 1.955638 7.790699 -0.635425
v 1.663566 7.790699 -1.208651
v 1.208651 7.790699 -1.663564
v 0.635425 7.790699 -1.955638
v 0.000000 7.790699 -2.056278
v -0.635425 7.790699 -1.955638
v -1.208649 7.790699 -1.663564
v -1.663564 7.790699 -1.208649
v -1.955638 7.790699 -0.635425
v -2.056278 7.790699 0.000000
v -1.955638 7.790699 0.635425
v -1.663564 7.790699 1.208649
v -1.208649 7.790699 1.663564
v -0.635425 7.790699 1.955638
v 0.000000 7.790699 2.056278
v 0.635425 7.790699 1.955638
v 1.208649 7.790699 1.663564
v 1.663564 7.790699 1.208649
v 1.955638 7.790699 0.635425
v 2.056278 7.790699 0.000000
v 0.000000 1.073523 0.000000
v 0.000000 7.790699 0.000000
vt 0.196339 0.320765
vt 0.196285 0.305599
vt 0.652472 0.319182
vt 0.652420 0.304016
vt 0.196232 0.290432
vt 0.652368 0.288850
vt 0.196180 0.275266
vt 0.652315 0.273683
vt 0.196127 0.260099
vt 0.652263 0.258517
vt 0.196075 0.244933
vt 0.652209 0.243350
vt 0.196022 0.229766
vt 0.652157 0.228184
vt 0.195970 0.214600
vt 0.652104 0.213017
vt 0.195918 0.199434
vt 0.652052 0.197851
vt 0.195864 0.184267
vt 0.651999 0.182684
vt 0.195812 0.169101
vt 0.651947 0.167518
vt 0.195759 0.153934
vt 0.651894 0.152352
vt 0.195707 0.138768
vt 0.651842 0.137185
vt 0.195654 0.123601
vt 0.651789 0.122019
vt 0.195602 0.108435
vt 0.651735 0.106852
vt 0.195549 0.093268
vt 0.651683 0.091686
vt 0.195497 0.078102
vt 0.651630 0.076519
vt 0.195444 0.062935
vt 0.651578 0.061353
vt 0.195391 0.047769
vt 0.651525 0.046186
vt 0.195338 0.032603
vt 0.651473 0.031020
vt 0.195285 0.017436
vt 0.651420 0.015853
vt 0.490242 0.521957
vt 0.496628 0.534491
vt 0.453866 0.546586
vt 0.480295 0.512010
vt 0.467761 0.505623
vt 0.453866 0.503423
vt 0.439972 0.505623
vt 0.427438 0.512010
vt 0.417491 0.521957
vt 0.411105 0.534491
vt 0.408904 0.548385
vt 0.411105 0.562279
vt 0.417491 0.574813
vt 0.427438 0.584760
vt 0.439972 0.591147
vt 0.453866 0.593347
vt 0.467761 0.591147
vt 0.480294 0.584760
vt 0.490242 0.574813
vt 0.496628 0.562279
vt 0.498829 0.548385
vt 0.176745 0.563439
vt 0.170936 0.574840
vt 0.137851 0.549166
vt 0.161889 0.583887
vt 0.150489 0.589696
vt 0.137851 0.591697
vt 0.125214 0.589696
vt 0.113814 0.583887
vt 0.104767 0.574840
vt 0.098958 0.563439
vt 0.096956 0.550802
vt 0.098958 0.538165
vt 0.104767 0.526765
vt 0.113814 0.517717
vt 0.125214 0.511909
vt 0.137851 0.509907
vt 0.150489 0.511909
vt 0.161889 0.517717
vt 0.170936 0.526765
vt 0.176745 0.538165
vt 0.178747 0.550802
vn 0.951057 0.000000 -0.309016
vn 0.809017 0.000000 -0.587785
vn 0.951057 0.000000 -0.309016
vn 0.951057 0.000000 -0.309016
vn 0.809017 0.000000 -0.587785
vn 0.809017 0.000000 -0.587785
vn 0.809017 0.000000 -0.587785
vn 0.587785 0.000000 -0.809017
vn 0.809017 0.000000 -0.587785
vn 0.809017 0.000000 -0.587785
vn 0.587785 0.000000 -0.809017
vn 0.587785 0.000000 -0.809017
vn 0.587785 0.000000 -0.809017
vn 0.309017 0.000000 -0.951057
vn 0.587785 0.000000 -0.809017
vn 0.587785 0.000000 -0.809017
vn 0.309017 0.000000 -0.951057
vn 0.309017 0.000000 -0.951057
vn 0.309017 0.000000 -0.951057
vn -0.000000 0.000000 -1.000000
vn 0.309017 0.000000 -0.951057
vn 0.309017 0.000000 -0.951057
vn -0.000000 0.000000 -1.000000
vn 0.000000 0.000000 -1.000000
vn -0.000000 0.000000 -1.000000
vn -0.309017 0.000000 -0.951056
vn 0.000000 0.000000 -1.000000
vn 0.000000 0.000000 -1.000000
vn -0.309017 0.000000 -0.951056
vn -0.309017 0.000000 -0.951057
vn -0.309017 0.000000 -0.951056
vn -0.587786 0.000000 -0.809017
vn -0.309017 0.000000 -0.951057
vn -0.309017 0.000000 -0.951057
vn -0.587786 0.000000 -0.809017
vn -0.587785 0.000000 -0.809017
vn -0.587786 0.000000 -0.809017
vn -0.809017 0.000000 -0.587785
vn -0.587785 0.000000 -0.809017
vn -0.587785 0.000000 -0.809017
vn -0.809017 0.000000 -0.587785
vn -0.809017 0.000000 -0.587785
vn -0.809017 0.000000 -0.587785
vn -0.951057 0.000000 -0.309017
vn -0.809017 0.000000 -0.587785
vn -0.809017 0.000000 -0.587785
vn -0.951057 0.000000 -0.309017
vn -0.951057 0.000000 -0.309017
vn -0.951057 0.000000 -0.309017
vn -1.000000 0.000000 0.000000
vn -0.951057 0.000000 -0.309017
vn -0.951057 0.000000 -0.309017
vn -1.000000 0.000000 0.000000
vn -1.000000 0.000000 -0.000000
vn -1.000000 0.000000 0.000000
vn -0.951057 0.000000 0.309017
vn -1.000000 0.000000 -0.000000
vn -1.000000 0.000000 -0.000000
vn -0.951057 0.000000 0.309017
vn -0.951056 0.000000 0.309017
vn -0.951057 0.000000 0.309017
vn -0.809017 0.000000 0.587786
vn -0.951056 0.000000 0.309017
vn -0.951056 0.000000 0.309017
vn -0.809017 0.000000 0.587786
vn -0.809017 0.000000 0.587785
vn -0.809017 0.000000 0.587786
vn -0.587785 0.000000 0.809017
vn -0.809017 0.000000 0.587785
vn -0.809017 0.000000 0.587785
vn -0.587785 0.000000 0.809017
vn -0.587785 0.000000 0.809017
vn -0.587785 0.000000 0.809017
vn -0.309017 0.000000 0.951057
vn -0.587785 0.000000 0.809017
vn -0.587785 0.000000 0.809017
vn -0.309017 0.000000 0.951057
vn -0.309017 0.000000 0.951057
vn -0.309017 0.000000 0.951057
vn 0.000000 0.000000 1.000000
vn -0.309017 0.000000 0.951057
vn -0.309017 0.000000 0.951057
vn 0.000000 0.000000 1.000000
vn 0.000000 0.000000 1.000000
vn 0.000000 0.000000 1.000000
vn 0.309017 0.000000 0.951057
vn 0.000000 0.000000 1.000000
vn 0.000000 0.000000 1.000000
vn 0.309017 0.000000 0.951057
vn 0.309017 0.000000 0.951057
vn 0.309017 0.000000 0.951057
vn 0.587785 0.000000 0.809017
vn 0.309017 0.000000 0.951057
vn 0.309017 0.000000 0.951057
vn 0.587785 0.000000 0.809017
vn 0.587785 0.000000 0.809017
vn 0.587785 0.000000 0.809017
vn 0.809017 0.000000 0.587785
vn 0.587785 0.000000 0.809017
vn 0.587785 0.000000 0.809017
vn 0.809017 0.000000 0.587785
vn 0.809017 0.000000 0.587785
vn 0.809017 0.000000 0.587785
vn 0.951057 0.000000 0.309017
vn 0.809017 0.000000 0.587785
vn 0.809017 0.000000 0.587785
vn 0.951057 0.000000 0.309017
vn 0.951057 0.000000 0.309017
vn 0.951057 0.000000 0.309017
vn 1.000000 0.000000 0.000001
vn 0.951057 0.000000 0.309017
vn 0.951057 0.000000 0.309017
vn 1.000000 0.000000 0.000001
vn 1.000000 0.000000 0.000001
vn 1.000000 0.000000 0.000001
vn 0.951057 0.000000 -0.309016
vn 1.000000 0.000000 0.000001
vn 1.000000 0.000000 0.000001
vn 0.951057 0.000000 -0.309016
vn 0.951057 0.000000 -0.309016
vn 0.000000 -1.000000 0.000000
vn 0.000000 -1.000000 0.000000
vn 0.000000 -1.000000 0.000000
vn 0.000000 -1.000000 0.000000
vn 0.000000 -1.000000 0.000000
vn 0.000000 -1.000000 0.000000
vn 0.000000 -1.000000 0.000000
vn 0.000000 -1.000000 0.000000
vn 0.000000 -1.000000 0.000000
vn 0.000000 -1.000000 0.000000
vn 0.000000 -1.000000 0.000000
vn 0.000000 -1.000000 0.000000
vn 0.000000 -1.000000 0.000000
vn 0.000000 -1.000000 0.000000
vn 0.000000 -1.000000 0.000000
vn 0.000000 -1.000000 0.000000
vn 0.000000 -1.000000 0.000000
vn 0.000000 -1.000000 0.000000
vn 0.000000 -1.000000 0.000000
vn 0.000000 -1.000000 0.000000
vn 0.000000 -1.000000 0.000000
vn 0.000000 -1.000000 0.000000
vn 0.000000 -1.000000 0.000000
vn 0.000000 -1.000000 0.000000
vn 0.000000 -1.000000 0.000000
vn 0.000000 -1.000000 0.000000
vn 0.000000 -1.000000 0.000000
vn 0.000000 -1.000000 0.000000
vn 0.000000 -1.000000 0.000000
vn 0.000000 -1.000000 0.000000
vn 0.000000 -1.000000 0.000000
vn 0.000000 -1.000000 0.000000
vn 0.000000 -1.000000 0.000000
vn 0.000000 -1.000000 0.000000
vn 0.000000 -1.000000 0.000000
vn 0.000000 -1.000000 0.000000
vn 0.000000 -1.000000 0.000000
vn 0.000000 -1.000000 0.000000
vn 0.000000 -1.000000 0.000000
vn 0.000000 -1.000000 0.000000
vn 0.000000 -1.000000 0.000000
vn 0.000000 -1.000000 0.000000
vn 0.000000 -1.000000 0.000000
vn 0.000000 -1.000000 0.000000
vn 0.000000 -1.000000 0.000000
vn 0.000000 -1.000000 0.000000
vn 0.000000 -1.000000 0.000000
vn 0.000000 -1.000000 0.000000
vn 0.000000 -1.000000 0.000000
vn 0.000000 -1.000000 0.000000
vn 0.000000 -1.000000 0.000000
vn 0.000000 -1.000000 0.000000
vn 0.000000 -1.000000 0.000000
vn 0.000000 -1.000000 0.000000
vn 0.000000 -1.000000 0.000000
vn 0.000000 -1.000000 0.000000
vn 0.000000 -1.000000 0.000000
vn 0.000000 -1.000000 0.000000
vn 0.000000 -1.000000 0.000000
vn 0.000000 -1.000000 0.000000
vn 0.000000 1.000000 0.000001
vn 0.000000 1.000000 0.000001
vn 0.000000 1.000000 0.000000
vn 0.000000 1.000000 0.000001
vn 0.000000 1.000000 0.000000
vn 0.000000 1.000000 0.000000
vn 0.000000 1.000000 0.000000
vn 0.000000 1.000000 0.000000
vn 0.000000 1.000000 0.000000
vn 0.000000 1.000000 0.000000
vn 0.000000 1.000000 0.000000
vn 0.000000 1.000000 0.000000
vn 0.000000 1.000000 0.000000
vn 0.000000 1.000000 0.000000
vn 0.000000 1.000000 0.000000
vn 0.000000 1.000000 0.000000
vn 0.000000 1.000000 0.000000
vn 0.000000 1.000000 0.000000
vn 0.000000 1.000000 0.000000
vn 0.000000 1.000000 0.000000
vn 0.000000 1.000000 0.000000
vn 0.000000 1.000000 0.000000
vn 0.000000 1.000000 0.000000
vn 0.000000 1.000000 0.000000
vn 0.000000 1.000000 0.000000
vn 0.000000 1.000000 0.000000
vn 0.000000 1.000000 0.000000
vn 0.000000 1.000000 0.000000
vn 0.000000 1.000000 0.000000
vn 0.000000 1.000000 0.000000
vn 0.000000 1.000000 0.000000
vn 0.000000 1.000000 0.000000
vn 0.000000 1.000000 0.000000
vn 0.000000 1.000000 0.000000
vn 0.000000 1.000000 0.000000
vn 0.000000 1.000000 0.000000
vn 0.000000 1.000000 0.000000
vn 0.000000 1.000000 0.000000
vn 0.000000 1.000000 0.000000
vn 0.000000 1.000000 0.000000
vn 0.000000 1.000000 0.000000
vn 0.000000 1.000000 0.000000
vn 0.000000 1.000000 0.000000
vn 0.000000 1.000000 0.000000
vn 0.000000 1.000000 0.000000
vn 0.000000 1.000000 0.000000
vn 0.000000 1.000000 0.000000
vn 0.000000 1.000000 0.000000
vn 0.000000 1.000000 0.000000
vn 0.000000 1.000000 0.000000
vn 0.000000 1.000000 0.000000
vn 0.000000 1.000000 0.000000
vn 0.000000 1.000000 0.000000
vn 0.000000 1.000000 0.000000
vn 0.000000 1.000000 0.000000
vn 0.000000 1.000000 0.000000
vn 0.000000 1.000000 0.000000
vn 0.000000 1.000000 0.000000
vn 0.000000 1.000000 0.000001
vn 0.000000 1.000000 0.000000
s off
g PeceraCristal:polySurface1pCylinder3
usemtl PeceraCristal:phong1SG
f 1/1/1 2/2/2 21/3/3
f 21/3/4 2/2/5 22/4/6
f 2/2/7 3/5/8 22/4/9
f 22/4/10 3/5/11 23/6/12
f 3/5/13 4/7/14 23/6/15
f 23/6/16 4/7/17 24/8/18
f 4/7/19 5/9/20 24/8/21
f 24/8/22 5/9/23 25/10/24
f 5/9/25 6/11/26 25/10/27
f 25/10/28 6/11/29 26/12/30
f 6/11/31 7/13/32 26/12/33
f 26/12/34 7/13/35 27/14/36
f 7/13/37 8/15/38 27/14/39
f 27/14/40 8/15/41 28/16/42
f 8/15/43 9/17/44 28/16/45
f 28/16/46 9/17/47 29/18/48
f 9/17/49 10/19/50 29/18/51
f 29/18/52 10/19/53 30/20/54
f 10/19/55 11/21/56 30/20/57
f 30/20/58 11/21/59 31/22/60
f 11/21/61 12/23/62 31/22/63
f 31/22/64 12/23/65 32/24/66
f 12/23/67 13/25/68 32/24/69
f 32/24/70 13/25/71 33/26/72
f 13/25/73 14/27/74 33/26/75
f 33/26/76 14/27/77 34/28/78
f 14/27/79 15/29/80 34/28/81
f 34/28/82 15/29/83 35/30/84
f 15/29/85 16/31/86 35/30/87
f 35/30/88 16/31/89 36/32/90
f 16/31/91 17/33/92 36/32/93
f 36/32/94 17/33/95 37/34/96
f 17/33/97 18/35/98 37/34/99
f 37/34/100 18/35/101 38/36/102
f 18/35/103 19/37/104 38/36/105
f 38/36/106 19/37/107 39/38/108
f 19/37/109 20/39/110 39/38/111
f 39/38/112 20/39/113 40/40/114
f 20/39/115 1/41/116 40/40/117
f 40/40/118 1/41/119 21/42/120
f 2/43/121 1/44/122 41/45/123
f 3/46/124 2/43/125 41/45/126
f 4/47/127 3/46/128 41/45/129
f 5/48/130 4/47/131 41/45/132
f 6/49/133 5/48/134 41/45/135
f 7/50/136 6/49/137 41/45/138
f 8/51/139 7/50/140 41/45/141
f 9/52/142 8/51/143 41/45/144
f 10/53/145 9/52/146 41/45/147
f 11/54/148 10/53/149 41/45/150
f 12/55/151 11/54/152 41/45/153
f 13/56/154 12/55/155 41/45/156
f 14/57/157 13/56/158 41/45/159
f 15/58/160 14/57/161 41/45/162
f 16/59/163 15/58/164 41/45/165
f 17/60/166 16/59/167 41/45/168
f 18/61/169 17/60/170 41/45/171
f 19/62/172 18/61/173 41/45/174
f 20/63/175 19/62/176 41/45/177
f 1/44/178 20/63/179 41/45/180
f 21/64/181 22/65/182 42/66/183
f 22/65/184 23/67/185 42/66/186
f 23/67/187 24/68/188 42/66/189
f 24/68/190 25/69/191 42/66/192
f 25/69/193 26/70/194 42/66/195
f 26/70/196 27/71/197 42/66/198
f 27/71/199 28/72/200 42/66/201
f 28/72/202 29/73/203 42/66/204
f 29/73/205 30/74/206 42/66/207
f 30/74/208 31/75/209 42/66/210
f 31/75/211 32/76/212 42/66/213
f 32/76/214 33/77/215 42/66/216
f 33/77/217 34/78/218 42/66/219
f 34/78/220 35/79/221 42/66/222
f 35/79/223 36/80/224 42/66/225
f 36/80/226 37/81/227 42/66/228
f 37/81/229 38/82/230 42/66/231
f 38/82/232 39/83/233 42/66/234
f 39/83/235 40/84/236 42/66/237
f 40/84/238 21/64/239 42/66/240
