# This file uses centimeters as units for non-parametric coordinates.

mtllib CrabEye.mtl
g default
v -0.151937 0.657069 0.005039
v -0.145919 0.666593 0.002230
v -0.147512 0.668831 0.009751
v -0.131543 0.671298 -0.006516
v -0.131937 0.674655 0.000257
v -0.111601 0.669519 0.010785
v -0.132450 0.678585 0.012868
v -0.109012 0.672273 0.024932
v -0.109217 0.672646 0.044838
v -0.095800 0.658245 0.032307
v -0.096002 0.658245 0.054667
v -0.109148 0.641750 0.037421
v -0.106406 0.657614 0.063558
v -0.115174 0.645881 0.063893
v -0.130084 0.656811 0.070257
v -0.131033 0.639627 0.050115
v -0.144740 0.645336 0.063091
v -0.150252 0.641004 0.036280
v -0.132244 0.632828 0.021748
v -0.131692 0.633488 -0.013599
v -0.108811 0.642209 0.007316
v -0.111273 0.644963 -0.010052
v -0.100141 0.658073 0.015871
v -0.102426 0.657987 0.006458
v -0.112913 0.667224 0.003140
v -0.149841 0.641434 0.006117
v -0.115293 0.668315 0.062533
v -0.131272 0.673278 0.052193
v -0.144861 0.667741 0.061733
v -0.150628 0.671872 0.043652
v -0.151101 0.656782 0.062313
v -0.158194 0.657069 0.052943
v -0.150252 0.641004 0.036280
v -0.157994 0.657069 0.030530
v -0.149841 0.641434 0.006117
v -0.146879 0.644303 -0.011096
v -0.132653 0.679159 0.032829
v -0.150500 0.671499 0.023748
v -0.154007 0.657069 0.014319
v -0.144740 0.645336 0.063091
v 0.110407 0.644963 -0.017126
v 0.102630 0.657987 -0.000085
v 0.100950 0.658073 0.009454
v 0.112062 0.669519 0.003648
v 0.097665 0.658245 0.026133
v 0.110380 0.672273 0.017932
v 0.111854 0.672646 0.037784
v 0.133002 0.678585 0.004397
v 0.134477 0.679159 0.024304
v 0.153105 0.671872 0.033960
v 0.134333 0.673278 0.043718
v 0.148502 0.667741 0.052370
v 0.134300 0.656811 0.061820
v 0.154767 0.656782 0.052553
v 0.148469 0.645336 0.053735
v 0.152261 0.641004 0.026626
v 0.161249 0.657069 0.042750
v 0.159619 0.657069 0.020395
v 0.151708 0.671499 0.014105
v 0.147834 0.668831 0.000326
v 0.131685 0.674655 -0.008155
v 0.130860 0.671298 -0.014889
v 0.112885 0.667224 -0.004065
v 0.149927 0.641434 -0.003449
v 0.145873 0.644303 -0.020438
v 0.154607 0.657069 0.004471
v 0.151950 0.657069 -0.004658
v 0.109056 0.642209 0.000364
v 0.111312 0.641750 0.030386
v 0.130558 0.633488 -0.021967
v 0.133361 0.632828 0.013272
v 0.152261 0.641004 0.026626
v 0.133962 0.639627 0.041659
v 0.148469 0.645336 0.053735
v 0.119013 0.645881 0.056420
v 0.110242 0.657614 0.056645
v 0.119045 0.668315 0.055055
v 0.099293 0.658245 0.048435
v 0.149927 0.641434 -0.003449
vt 0.663463 0.092140
vt 0.657251 0.089792
vt 0.658832 0.086974
vt 0.652733 0.082982
vt 0.652394 0.085213
vt 0.644940 0.087091
vt 0.651491 0.088853
vt 0.645392 0.090966
vt 0.645731 0.094606
vt 0.642456 0.093314
vt 0.643585 0.096015
vt 0.639858 0.096367
vt 0.644263 0.097189
vt 0.643359 0.098715
vt 0.646409 0.101063
vt 0.640423 0.101298
vt 0.643133 0.104938
vt 0.635679 0.104938
vt 0.634098 0.098833
vt 0.626305 0.093666
vt 0.634776 0.091436
vt 0.630145 0.088383
vt 0.640649 0.089909
vt 0.638051 0.087444
vt 0.644940 0.084508
vt 0.627886 0.101298
vt 0.645844 0.097189
vt 0.648555 0.096602
vt 0.649910 0.099067
vt 0.652056 0.096719
vt 0.651152 0.100476
vt 0.652846 0.099772
vt 0.657251 0.102003
vt 0.656234 0.097306
vt 0.665383 0.097658
vt 0.671256 0.094841
vt 0.650023 0.093314
vt 0.654653 0.093549
vt 0.659849 0.094019
vt 0.650813 0.103177
vt 0.536404 0.342345
vt 0.547020 0.340936
vt 0.544423 0.343402
vt 0.551312 0.343637
vt 0.548828 0.337414
vt 0.551651 0.339762
vt 0.552103 0.336240
vt 0.557750 0.341875
vt 0.556395 0.337531
vt 0.558428 0.334009
vt 0.554926 0.334126
vt 0.556282 0.331778
vt 0.552781 0.329665
vt 0.557524 0.330369
vt 0.557072 0.327551
vt 0.563623 0.328725
vt 0.559105 0.331073
vt 0.562493 0.333539
vt 0.561025 0.337296
vt 0.563623 0.340936
vt 0.558653 0.345633
vt 0.559105 0.347863
vt 0.551199 0.346220
vt 0.571642 0.333070
vt 0.577628 0.336005
vt 0.566221 0.336709
vt 0.569835 0.338705
vt 0.541035 0.339410
vt 0.546230 0.334478
vt 0.532677 0.337179
vt 0.540470 0.332013
vt 0.542051 0.325790
vt 0.546682 0.329547
vt 0.549505 0.325790
vt 0.549731 0.332130
vt 0.550522 0.333657
vt 0.552216 0.333657
vt 0.549957 0.334831
vt 0.534145 0.329547
vn -0.842436 0.440931 -0.309648
vn -0.842436 0.440931 -0.309648
vn -0.842436 0.440931 -0.309648
vn -0.473616 0.811680 -0.341854
vn -0.473616 0.811680 -0.341854
vn -0.473616 0.811680 -0.341854
vn -0.525487 0.749729 -0.402206
vn -0.525487 0.749729 -0.402206
vn -0.525487 0.749729 -0.402206
vn 0.408733 0.826970 -0.386080
vn 0.408733 0.826970 -0.386080
vn 0.408733 0.826970 -0.386080
vn 0.362350 0.893921 -0.263834
vn 0.362350 0.893921 -0.263834
vn 0.362350 0.893921 -0.263834
vn 0.366490 0.898412 -0.241951
vn 0.366490 0.898412 -0.241951
vn 0.366490 0.898412 -0.241951
vn 0.267352 0.963478 -0.015298
vn 0.267352 0.963478 -0.015298
vn 0.267352 0.963478 -0.015298
vn 0.729352 0.684118 -0.005333
vn 0.729352 0.684118 -0.005333
vn 0.729352 0.684118 -0.005333
vn 0.734538 0.678535 0.006637
vn 0.734538 0.678535 0.006637
vn 0.734538 0.678535 0.006637
vn 0.778415 -0.627710 0.007029
vn 0.778415 -0.627710 0.007029
vn 0.778415 -0.627710 0.007029
vn 0.422132 -0.793924 0.437595
vn 0.422132 -0.793924 0.437595
vn 0.422132 -0.793924 0.437595
vn 0.775835 -0.572172 0.265893
vn 0.775835 -0.572172 0.265893
vn 0.775835 -0.572172 0.265893
vn 0.273464 -0.177374 0.945387
vn 0.273464 -0.177374 0.945387
vn 0.273464 -0.177374 0.945387
vn -0.263199 -0.727778 0.633297
vn -0.263199 -0.727778 0.633297
vn -0.263199 -0.727778 0.633297
vn 0.276201 -0.737550 0.616225
vn 0.276201 -0.737550 0.616225
vn 0.276201 -0.737550 0.616225
vn -0.211156 -0.957176 0.198057
vn -0.211156 -0.957177 0.198057
vn -0.211156 -0.957177 0.198057
vn -0.237390 -0.942316 0.235982
vn -0.237390 -0.942316 0.235982
vn -0.237389 -0.942316 0.235982
vn -0.428977 -0.903008 -0.023558
vn -0.428977 -0.903008 -0.023558
vn -0.428977 -0.903008 -0.023558
vn 0.367187 -0.930075 -0.011631
vn 0.367187 -0.930075 -0.011631
vn 0.367187 -0.930075 -0.011631
vn 0.364203 -0.931265 -0.010120
vn 0.364203 -0.931265 -0.010120
vn 0.364203 -0.931265 -0.010120
vn 0.777234 -0.629212 -0.000890
vn 0.777234 -0.629212 -0.000890
vn 0.777233 -0.629212 -0.000890
vn 0.886957 -0.419906 -0.192318
vn 0.886957 -0.419906 -0.192318
vn 0.886957 -0.419906 -0.192318
vn 0.920813 -0.307446 -0.239959
vn 0.920813 -0.307446 -0.239959
vn 0.920813 -0.307446 -0.239959
vn 0.913418 -0.343319 -0.218630
vn 0.913418 -0.343319 -0.218630
vn 0.913418 -0.343319 -0.218630
vn 0.734307 0.653333 -0.184255
vn 0.734307 0.653333 -0.184255
vn 0.734307 0.653333 -0.184255
vn 0.681474 0.660455 -0.315266
vn 0.681474 0.660455 -0.315266
vn 0.681474 0.660455 -0.315266
vn 0.359469 0.874963 -0.324380
vn 0.359469 0.874963 -0.324380
vn 0.359469 0.874963 -0.324380
vn -0.417917 -0.908294 -0.018643
vn -0.417917 -0.908294 -0.018643
vn -0.417917 -0.908294 -0.018643
vn 0.735470 0.647059 -0.200995
vn 0.735470 0.647059 -0.200995
vn 0.735470 0.647059 -0.200995
vn 0.767208 0.588553 -0.254946
vn 0.767208 0.588553 -0.254946
vn 0.767208 0.588553 -0.254946
vn 0.410383 0.740136 0.532714
vn 0.410383 0.740136 0.532714
vn 0.410383 0.740136 0.532714
vn 0.690874 0.610825 0.386764
vn 0.690874 0.610825 0.386764
vn 0.690874 0.610825 0.386764
vn 0.250656 0.296451 0.921568
vn 0.250656 0.296451 0.921569
vn 0.250656 0.296451 0.921569
vn -0.208817 0.715841 0.666309
vn -0.208817 0.715841 0.666309
vn -0.208817 0.715841 0.666309
vn 0.163210 0.734414 0.658786
vn 0.163210 0.734414 0.658786
vn 0.163210 0.734414 0.658786
vn -0.190198 0.942169 0.275939
vn -0.190198 0.942169 0.275939
vn -0.190198 0.942169 0.275939
vn -0.800911 0.475365 0.364102
vn -0.800911 0.475365 0.364102
vn -0.800911 0.475365 0.364102
vn -0.616433 0.619837 0.485605
vn -0.616433 0.619837 0.485605
vn -0.616433 0.619837 0.485605
vn -0.572145 -0.709531 0.411359
vn -0.572145 -0.709531 0.411359
vn -0.572145 -0.709531 0.411359
vn -0.899706 -0.436422 -0.008038
vn -0.899706 -0.436422 -0.008038
vn -0.899706 -0.436422 -0.008038
vn -0.898102 -0.439398 -0.018508
vn -0.898102 -0.439398 -0.018508
vn -0.898102 -0.439398 -0.018508
vn -0.961161 -0.192730 -0.197545
vn -0.961161 -0.192730 -0.197545
vn -0.961161 -0.192730 -0.197545
vn 0.118846 0.954249 0.274379
vn 0.118846 0.954249 0.274379
vn 0.118846 0.954249 0.274379
vn 0.120848 0.952199 0.280557
vn 0.120848 0.952199 0.280557
vn 0.120848 0.952199 0.280557
vn -0.199199 0.933631 0.297745
vn -0.199199 0.933632 0.297745
vn -0.199199 0.933631 0.297745
vn -0.391211 0.919798 -0.030437
vn -0.391211 0.919798 -0.030437
vn -0.391211 0.919798 -0.030437
vn -0.375661 0.926546 -0.019789
vn -0.375661 0.926546 -0.019789
vn -0.375661 0.926546 -0.019789
vn -0.485612 0.833804 -0.262587
vn -0.485612 0.833804 -0.262587
vn -0.485612 0.833804 -0.262587
vn -0.901631 0.346711 -0.258561
vn -0.901631 0.346711 -0.258561
vn -0.901631 0.346711 -0.258561
vn -0.887704 0.405356 -0.218332
vn -0.887704 0.405356 -0.218332
vn -0.887704 0.405356 -0.218332
vn -0.968906 -0.066567 -0.238308
vn -0.968906 -0.066567 -0.238308
vn -0.968906 -0.066567 -0.238308
vn -0.969997 -0.110824 -0.216387
vn -0.969997 -0.110824 -0.216387
vn -0.969997 -0.110824 -0.216387
vn -0.890108 0.455527 -0.014270
vn -0.890108 0.455527 -0.014270
vn -0.890108 0.455527 -0.014270
vn -0.892436 0.451103 -0.007971
vn -0.892436 0.451103 -0.007971
vn -0.892436 0.451103 -0.007971
vn 0.219017 -0.950924 0.218573
vn 0.219017 -0.950924 0.218573
vn 0.219017 -0.950924 0.218573
vn 0.207042 -0.958358 0.196683
vn 0.207042 -0.958358 0.196683
vn 0.207042 -0.958358 0.196683
vn -0.343208 0.243480 0.907152
vn -0.343208 0.243480 0.907152
vn -0.343208 0.243480 0.907152
vn -0.350321 -0.131614 0.927337
vn -0.350321 -0.131614 0.927337
vn -0.350321 -0.131614 0.927337
vn 0.279421 0.959850 -0.024758
vn 0.279421 0.959850 -0.024758
vn 0.279421 0.959850 -0.024758
vn -0.853574 -0.457408 0.249378
vn -0.853574 -0.457408 0.249378
vn -0.853574 -0.457408 0.249378
vn -0.888591 0.413659 -0.198224
vn -0.888591 0.413659 -0.198224
vn -0.888591 0.413659 -0.198224
vn -0.480738 0.831412 -0.278648
vn -0.480738 0.831412 -0.278648
vn -0.480738 0.831412 -0.278648
vn -0.925498 -0.343321 -0.159953
vn -0.925498 -0.343321 -0.159953
vn -0.925498 -0.343321 -0.159953
vn -0.744559 0.653333 -0.137069
vn -0.744559 0.653333 -0.137069
vn -0.744559 0.653333 -0.137069
vn -0.746795 0.647041 -0.153740
vn -0.746795 0.647041 -0.153740
vn -0.746795 0.647041 -0.153740
vn -0.781906 0.588529 -0.205566
vn -0.781906 0.588529 -0.205566
vn -0.781906 0.588529 -0.205566
vn -0.728197 0.684127 0.041215
vn -0.728197 0.684127 0.041215
vn -0.728197 0.684127 0.041215
vn -0.267766 0.963482 0.001787
vn -0.267766 0.963482 0.001787
vn -0.267766 0.963482 0.001787
vn -0.280449 0.959844 -0.006901
vn -0.280449 0.959844 -0.006901
vn -0.280449 0.959844 -0.006901
vn 0.388465 0.919803 -0.055294
vn 0.388465 0.919803 -0.055294
vn 0.388465 0.919803 -0.055294
vn 0.217777 0.933632 0.284438
vn 0.217777 0.933632 0.284438
vn 0.217777 0.933632 0.284438
vn 0.207411 0.942161 0.263274
vn 0.207411 0.942161 0.263274
vn 0.207411 0.942161 0.263274
vn -0.120835 0.734416 0.667856
vn -0.120835 0.734416 0.667856
vn -0.120835 0.734416 0.667856
vn 0.400352 0.243565 0.883399
vn 0.400352 0.243565 0.883399
vn 0.400352 0.243565 0.883399
vn 0.408747 -0.131592 0.903111
vn 0.408747 -0.131592 0.903111
vn 0.408747 -0.131592 0.903111
vn 0.867768 -0.457350 0.194447
vn 0.867768 -0.457350 0.194447
vn 0.867768 -0.457350 0.194447
vn 0.597171 -0.709541 0.374083
vn 0.597171 -0.709541 0.374083
vn 0.597171 -0.709541 0.374083
vn 0.897376 -0.436390 -0.065424
vn 0.897376 -0.436390 -0.065424
vn 0.897376 -0.436390 -0.065424
vn 0.890095 0.451131 -0.064894
vn 0.890095 0.451131 -0.064894
vn 0.890095 0.451131 -0.064894
vn 0.887387 0.455527 -0.070988
vn 0.887387 0.455527 -0.070988
vn 0.887387 0.455527 -0.070988
vn 0.373653 0.926539 -0.043702
vn 0.373652 0.926539 -0.043702
vn 0.373653 0.926539 -0.043702
vn 0.467904 0.833790 -0.293021
vn 0.467904 0.833790 -0.293021
vn 0.467904 0.833790 -0.293021
vn 0.462006 0.831391 -0.308770
vn 0.462006 0.831391 -0.308770
vn 0.462006 0.831391 -0.308770
vn -0.432533 0.826961 -0.359236
vn -0.432533 0.826961 -0.359235
vn -0.432533 0.826961 -0.359235
vn -0.379436 0.874954 -0.300805
vn -0.379436 0.874954 -0.300805
vn -0.379436 0.874954 -0.300805
vn -0.700187 0.660457 -0.271173
vn -0.700187 0.660457 -0.271173
vn -0.700187 0.660457 -0.271173
vn 0.895118 -0.439351 -0.075731
vn 0.895118 -0.439351 -0.075731
vn 0.895118 -0.439351 -0.075731
vn 0.946622 -0.192686 -0.258415
vn 0.946622 -0.192686 -0.258415
vn 0.946622 -0.192686 -0.258415
vn 0.951751 -0.066681 -0.299540
vn 0.951751 -0.066681 -0.299540
vn 0.951751 -0.066681 -0.299540
vn 0.954230 -0.110825 -0.277782
vn 0.954230 -0.110825 -0.277782
vn 0.954230 -0.110825 -0.277782
vn 0.874117 0.413722 -0.254467
vn 0.874117 0.413722 -0.254467
vn 0.874117 0.413722 -0.254467
vn 0.822477 0.475386 0.312315
vn 0.822477 0.475386 0.312315
vn 0.822477 0.475386 0.312315
vn 0.646086 0.619870 0.445347
vn 0.646086 0.619870 0.445347
vn 0.646086 0.619870 0.445347
vn 0.871957 0.405441 -0.274425
vn 0.871957 0.405441 -0.274425
vn 0.871957 0.405441 -0.274425
vn 0.883314 0.346707 -0.315517
vn 0.883314 0.346707 -0.315517
vn 0.883314 0.346707 -0.315517
vn -0.934262 -0.307337 -0.180825
vn -0.934262 -0.307337 -0.180825
vn -0.934262 -0.307337 -0.180825
vn -0.897433 -0.419850 -0.135425
vn -0.897433 -0.419850 -0.135425
vn -0.897433 -0.419850 -0.135425
vn -0.775710 -0.629210 0.048663
vn -0.775710 -0.629210 0.048663
vn -0.775710 -0.629210 0.048663
vn -0.364094 -0.931270 0.013120
vn -0.364094 -0.931270 0.013120
vn -0.364094 -0.931270 0.013120
vn -0.367188 -0.930072 0.011793
vn -0.367187 -0.930072 0.011793
vn -0.367188 -0.930072 0.011793
vn 0.426575 -0.903022 -0.050848
vn 0.426575 -0.903022 -0.050848
vn 0.426575 -0.903022 -0.050848
vn 0.251940 -0.942318 0.220369
vn 0.251940 -0.942318 0.220369
vn 0.251940 -0.942318 0.220369
vn 0.223340 -0.957179 0.184194
vn 0.223340 -0.957179 0.184194
vn 0.223340 -0.957179 0.184194
vn -0.236343 -0.737546 0.632589
vn -0.236343 -0.737546 0.632589
vn -0.236343 -0.737546 0.632589
vn -0.204637 -0.950925 0.232091
vn -0.204637 -0.950925 0.232091
vn -0.204637 -0.950925 0.232091
vn -0.194081 -0.958358 0.209480
vn -0.194081 -0.958358 0.209480
vn -0.194081 -0.958358 0.209480
vn -0.757304 -0.572171 0.314817
vn -0.757305 -0.572171 0.314817
vn -0.757304 -0.572172 0.314817
vn -0.212627 -0.177369 0.960901
vn -0.212627 -0.177369 0.960901
vn -0.212627 -0.177369 0.960901
vn -0.191384 0.296445 0.935678
vn -0.191384 0.296445 0.935678
vn -0.191384 0.296445 0.935678
vn 0.250866 0.715847 0.651636
vn 0.250866 0.715847 0.651636
vn 0.250866 0.715847 0.651636
vn -0.101115 0.954251 0.281392
vn -0.101115 0.954251 0.281392
vn -0.101115 0.954251 0.281392
vn -0.102720 0.952200 0.287688
vn -0.102720 0.952200 0.287688
vn -0.102720 0.952200 0.287688
vn -0.664824 0.610832 0.429991
vn -0.664824 0.610832 0.429991
vn -0.664824 0.610832 0.429991
vn -0.375607 0.740143 0.557771
vn -0.375607 0.740143 0.557771
vn -0.375607 0.740142 0.557771
vn -0.393405 -0.793913 0.463611
vn -0.393405 -0.793913 0.463611
vn -0.393405 -0.793913 0.463611
vn -0.776387 -0.627703 0.056678
vn -0.776387 -0.627703 0.056678
vn -0.776387 -0.627703 0.056678
vn -0.381167 0.898408 -0.218117
vn -0.381167 0.898408 -0.218117
vn -0.381167 0.898408 -0.218117
vn -0.378437 0.893926 -0.240170
vn -0.378437 0.893926 -0.240170
vn -0.378437 0.893926 -0.240170
vn 0.415877 -0.908294 -0.045250
vn 0.415877 -0.908294 -0.045250
vn 0.415877 -0.908294 -0.045250
vn -0.732608 0.678546 0.053481
vn -0.732608 0.678546 0.053481
vn -0.732608 0.678546 0.053481
vn 0.303028 -0.727785 0.615226
vn 0.303028 -0.727785 0.615226
vn 0.303028 -0.727785 0.615226
s off
g polySurface17
usemtl MQ2XTA8OJSFZWSANVIS1CEH6_TexMap
f 1/1/1 3/2/2 2/3/3
f 2/3/4 3/2/5 4/4/6
f 3/2/7 5/5/8 4/4/9
f 4/4/10 5/5/11 6/6/12
f 5/5/13 7/7/14 6/6/15
f 6/6/16 7/7/17 8/8/18
f 7/7/19 9/9/20 8/8/21
f 8/8/22 9/9/23 10/10/24
f 9/9/25 11/11/26 10/10/27
f 10/10/28 11/11/29 12/12/30
f 11/11/31 13/13/32 12/12/33
f 12/12/34 13/13/35 14/14/36
f 13/13/37 15/15/38 14/14/39
f 14/14/40 15/15/41 16/16/42
f 15/15/43 17/17/44 16/16/45
f 16/16/46 17/17/47 18/18/48
f 16/16/49 18/18/50 19/19/51
f 18/18/52 20/20/53 19/19/54
f 19/19/55 20/20/56 12/12/57
f 20/20/58 21/21/59 12/12/60
f 12/12/61 21/21/62 10/10/63
f 21/21/64 22/22/65 10/10/66
f 10/10/67 22/22/68 23/23/69
f 22/22/70 24/24/71 23/23/72
f 23/23/73 24/24/74 6/6/75
f 24/24/76 25/25/77 6/6/78
f 6/6/79 25/25/80 4/4/81
f 18/18/82 26/26/83 20/20/84
f 23/23/85 6/6/86 10/10/87
f 6/6/88 8/8/89 10/10/90
f 11/11/91 9/9/92 13/13/93
f 9/9/94 27/27/95 13/13/96
f 13/13/97 27/27/98 15/15/99
f 27/27/100 28/28/101 15/15/102
f 15/15/103 28/28/104 29/29/105
f 28/28/106 30/30/107 29/29/108
f 29/29/109 30/30/110 31/31/111
f 30/30/112 32/32/113 31/31/114
f 31/31/115 32/32/116 33/33/117
f 32/32/118 34/34/119 33/33/120
f 33/33/121 34/34/122 35/35/123
f 34/34/124 36/36/125 35/35/126
f 27/27/127 9/9/128 28/28/129
f 9/9/130 37/37/131 28/28/132
f 28/28/133 37/37/134 30/30/135
f 37/37/136 7/7/137 30/30/138
f 30/30/139 7/7/140 38/38/141
f 7/7/142 3/2/143 38/38/144
f 38/38/145 3/2/146 34/34/147
f 3/2/148 39/39/149 34/34/150
f 34/34/151 39/39/152 36/36/153
f 39/39/154 1/1/155 36/36/156
f 38/38/157 34/34/158 30/30/159
f 34/34/160 32/32/161 30/30/162
f 19/19/163 12/12/164 16/16/165
f 12/12/166 14/14/167 16/16/168
f 29/29/169 31/31/170 15/15/171
f 31/31/172 40/40/173 15/15/174
f 9/9/175 7/7/176 37/37/177
f 33/33/178 40/40/179 31/31/180
f 3/2/181 1/1/182 39/39/183
f 3/2/184 7/7/185 5/5/186
f 41/41/187 43/42/188 42/43/189
f 42/43/190 43/42/191 44/44/192
f 43/42/193 45/45/194 44/44/195
f 44/44/196 45/45/197 46/46/198
f 45/45/199 47/47/200 46/46/201
f 46/46/202 47/47/203 48/48/204
f 47/47/205 49/49/206 48/48/207
f 48/48/208 49/49/209 50/50/210
f 49/49/211 51/51/212 50/50/213
f 50/50/214 51/51/215 52/52/216
f 51/51/217 53/53/218 52/52/219
f 52/52/220 53/53/221 54/54/222
f 53/53/223 55/55/224 54/54/225
f 54/54/226 55/55/227 56/56/228
f 54/54/229 56/56/230 57/57/231
f 56/56/232 58/58/233 57/57/234
f 57/57/235 58/58/236 50/50/237
f 58/58/238 59/59/239 50/50/240
f 50/50/241 59/59/242 48/48/243
f 59/59/244 60/60/245 48/48/246
f 48/48/247 60/60/248 61/61/249
f 61/61/250 62/62/251 44/44/252
f 62/62/253 63/63/254 44/44/255
f 44/44/256 63/63/257 42/43/258
f 56/56/259 64/64/260 58/58/261
f 64/64/262 65/65/263 58/58/264
f 58/58/265 65/65/266 66/66/267
f 65/65/268 67/67/269 66/66/270
f 66/66/271 67/67/272 60/60/273
f 52/52/274 54/54/275 50/50/276
f 54/54/277 57/57/278 50/50/279
f 66/66/280 60/60/281 58/58/282
f 60/60/283 59/59/284 58/58/285
f 43/42/286 41/41/287 45/45/288
f 41/41/289 68/68/290 45/45/291
f 45/45/292 68/68/293 69/69/294
f 68/68/295 70/70/296 69/69/297
f 69/69/298 70/70/299 71/71/300
f 70/70/301 72/72/302 71/71/303
f 71/71/304 72/72/305 73/73/306
f 72/72/307 74/74/308 73/73/309
f 73/73/310 74/74/311 53/53/312
f 71/71/313 73/73/314 69/69/315
f 73/73/316 75/75/317 69/69/318
f 69/69/319 75/75/320 76/76/321
f 75/75/322 53/53/323 76/76/324
f 76/76/325 53/53/326 77/77/327
f 53/53/328 51/51/329 77/77/330
f 77/77/331 51/51/332 47/47/333
f 51/51/334 49/49/335 47/47/336
f 77/77/337 47/47/338 76/76/339
f 47/47/340 78/78/341 76/76/342
f 76/76/343 78/78/344 69/69/345
f 78/78/346 45/45/347 69/69/348
f 46/46/349 48/48/350 44/44/351
f 48/48/352 61/61/353 44/44/354
f 72/72/355 70/70/356 79/79/357
f 47/47/358 45/45/359 78/78/360
f 53/53/361 75/75/362 73/73/363
