# This file uses centimeters as units for non-parametric coordinates.

mtllib Water.mtl
g default
v -4.067198 8.592810 -0.119236
v -6.186182 6.864504 -3.453554
v -7.718011 6.280204 0.534783
v 9.167234 0.065138 -6.909662
v 6.289586 -0.013325 -9.747695
v 7.393461 2.915932 -8.073445
v 5.322220 6.083895 -6.394321
v 3.732485 3.850150 -9.449615
v 1.193050 6.684470 -7.442701
v -2.040919 8.607236 -3.935655
v -5.994167 6.944648 -3.592782
v -3.880011 8.669176 -0.265357
v -8.327082 4.044672 4.408376
v -5.097438 6.876150 4.159523
v -7.820483 6.135229 0.911234
v 7.191421 3.242300 -8.047189
v 3.963685 3.738231 -9.448454
v 5.530756 5.936872 -6.439832
v -8.325523 3.774515 4.725818
v -7.752655 0.403503 7.353145
v -5.215775 3.860464 7.793692
v -4.949897 7.028138 4.026072
v -4.029311 8.596982 0.118184
v -7.678961 6.285385 0.771043
v 2.431093 8.649525 -3.534814
v 0.924069 6.923113 -7.176747
v -1.628829 8.606120 -4.149266
v -5.073336 3.747128 7.966252
v -7.605847 0.297163 7.525828
v -4.053825 0.302637 9.954507
v -5.127439 4.063882 7.700741
v -5.001568 6.815001 4.382578
v -8.238624 3.977029 4.631981
v 8.913155 3.674411 -4.703687
v 9.256547 0.196328 -6.735054
v 7.485540 3.045319 -7.896468
v 5.286794 6.239720 -6.202304
v 1.148164 6.841670 -7.253086
v 2.658336 8.570833 -3.604825
v 7.360679 3.247021 -7.880238
v 5.697187 5.944515 -6.272744
v 8.787558 3.873748 -4.690681
v -1.843005 8.706056 -3.805094
v -3.655657 8.766928 -0.188316
v -0.269623 9.674905 -0.769726
v 9.035449 3.596987 -4.491482
v 10.830510 0.229873 -2.503993
v 9.385108 0.063885 -6.553522
v 2.365102 8.748192 -3.307341
v -1.635156 8.705413 -3.912777
v -0.058473 9.674247 -0.879107
v -0.881507 8.760768 3.074859
v -3.804223 8.679036 0.192475
v -4.723861 7.112790 4.092599
v -4.851749 3.833523 8.063330
v -3.847367 0.438927 10.022531
v -1.805393 3.340495 9.825213
v -0.230849 9.680024 -0.535178
v -3.617481 8.771986 0.042580
v -0.738794 8.852864 2.879482
v 6.545683 6.992345 -1.929153
v 5.456893 6.245253 -6.032435
v 2.828558 8.576624 -3.435077
v -1.475831 6.312192 7.169872
v -4.779078 6.885028 4.473542
v -4.905041 4.139701 7.784538
v 8.791869 3.990845 -4.459831
v 5.653142 6.093125 -6.067906
v 6.739059 6.839286 -1.972328
v -3.668434 0.319081 10.114229
v 0.331840 0.361857 10.719649
v -1.623618 3.218749 9.918363
v -0.801500 8.688052 3.299657
v -4.651970 7.036452 4.319949
v -1.341845 6.463004 7.020817
v 3.191376 8.840149 0.847962
v 2.530540 8.753479 -3.139168
v 0.110771 9.678969 -0.712155
v -1.387312 6.172185 7.366197
v -4.766836 4.031436 7.971632
v -1.719121 3.541541 9.732063
v 9.761008 3.814739 0.036665
v 10.847582 0.345580 -2.282633
v 9.048392 3.720413 -4.274678
v 3.430707 8.747168 0.840367
v 6.470062 7.077930 -1.706374
v 2.760977 8.658739 -3.209424
v -0.506065 8.854852 2.918316
v 3.082484 8.844213 1.057247
v 0.004248 9.682546 -0.499599
v 8.922629 3.923601 -4.258326
v 6.865647 6.778048 -1.765198
v 9.634343 4.018599 0.051443
v 10.838488 0.256251 2.239599
v 10.903441 0.239531 -2.062833
v 9.819129 3.701463 0.251177
v 0.527354 0.485710 10.684621
v 1.992228 3.904436 9.100999
v -1.425000 3.344558 9.882785
v 1.937163 4.103114 8.986254
v -1.155882 6.174661 7.401226
v -1.484023 3.544063 9.767642
v -1.104333 6.464839 7.058290
v 2.845125 7.116626 5.454602
v -0.564691 8.690574 3.335496
v -0.422574 8.765523 3.144214
v 2.979447 7.195151 5.258476
v 3.222843 8.754319 1.255330
v 6.908945 6.436611 2.748523
v 6.613921 7.001378 -1.516299
v 3.567612 8.674436 1.036264
v 0.748071 0.354353 10.680861
v 4.858382 0.430447 9.412252
v 2.237290 3.826004 9.072495
v 9.575228 4.095121 0.282874
v 6.811974 6.848944 -1.531154
v 7.106080 6.285645 2.724620
v 2.122256 4.214834 8.848081
v 2.924229 6.967403 5.639420
v -1.016913 6.317266 7.239424
v 10.775644 0.393402 2.447127
v 9.771262 3.787994 0.487925
v 9.450886 3.305450 3.993946
v 3.216760 7.115466 5.262067
v 6.799885 6.440951 2.962789
v 3.460295 8.678043 1.250362
v 8.934107 0.335067 6.263285
v 10.744864 0.276104 2.649550
v 9.421527 3.184364 4.196477
v 9.648341 3.986551 0.503897
v 7.214955 6.145393 2.909833
v 9.326008 3.507154 4.010178
v 2.420472 3.943009 8.950079
v 5.047447 0.540362 9.290401
v 6.300147 3.930051 6.940658
v 6.506636 3.812005 6.861049
v 5.255510 0.429209 9.206513
v 8.662880 0.329318 6.580637
v 6.241980 4.131877 6.823575
v 3.165089 6.902329 5.618573
v 2.362198 4.144653 8.832767
v 6.391219 4.202041 6.635931
v 6.898048 6.292461 3.139491
v 3.321358 6.966165 5.433680
v 6.668665 3.892178 6.678569
v 8.792433 0.463748 6.401290
v 9.278509 3.311226 4.337875
v 9.219486 3.510730 4.222733
v 7.110084 6.148924 3.119073
v 6.612516 4.089359 6.561762
v -1.823702 8.523945 -4.281540
v 0.734347 6.837238 -7.315715
v -3.516353 6.145592 -7.534628
v 6.108300 0.104582 -9.842083
v 3.983630 3.536804 -9.565994
v 7.211669 3.037676 -8.166594
v -3.729031 6.146250 -7.424453
v -5.998675 6.858206 -3.827712
v -2.037817 8.523577 -4.172099
v -8.513259 3.926856 4.276284
v -8.015478 5.984311 0.832373
v -10.299595 3.302011 1.268595
v -8.495608 3.652297 4.590319
v -10.398721 0.125888 3.696113
v -7.924208 0.288270 7.211808
v 0.986073 6.613909 -7.564598
v 3.529573 3.773812 -9.575777
v -0.790068 3.726893 -10.230148
v -3.490127 5.989659 -7.728035
v 0.750852 6.679747 -7.509625
v -1.021132 3.798785 -10.169611
v -7.896056 6.125052 0.453355
v -6.367743 6.708020 -3.525858
v -9.486296 3.890788 -2.602170
v -10.385867 3.100962 1.361745
v -10.473791 0.253943 3.486460
v -8.600388 3.726573 4.365552
v 3.551718 3.566972 -9.696405
v 2.155025 1.035887 -10.915878
v 2.155025 3.552040 -9.907788
v -8.051882 5.982156 0.599246
v -9.618341 3.781469 -2.408183
v -10.338368 3.296891 1.034047
v -3.902324 5.991111 -7.514623
v -7.331763 3.818956 -6.899926
v -6.167368 6.701281 -3.925660
v 0.419009 1.822027 -10.856214
v -0.769666 3.520772 -10.350425
v 0.419009 3.533481 -10.170524
v -6.348273 6.636756 -3.765067
v -7.515526 3.748581 -6.744407
v -9.473489 3.813593 -2.839041
v -3.673431 5.841445 -7.830078
v -1.243667 3.683458 -10.234396
v -4.726734 3.114856 -9.850962
v 2.155025 0.519761 -11.094914
v 2.155025 -0.021508 -11.253310
v -11.224092 0.039264 -0.678716
v -10.564433 0.126575 3.312250
v -10.477948 2.971578 1.184768
v -9.727278 3.579490 -2.463110
v -11.195193 0.158470 -0.878082
v -10.448589 3.092664 0.982238
v -4.937884 3.115512 -9.741581
v -7.260789 3.701340 -7.116991
v -3.883863 5.839123 -7.723374
v 3.772053 3.450792 -9.682880
v 5.928404 -0.032613 -9.963078
v -1.220101 3.481158 -10.353557
v -3.095705 0.006175 -11.235080
v -4.706484 2.910232 -9.970367
v -7.626358 3.542122 -6.798341
v -9.863434 0.124113 -5.417172
v -9.584092 3.606969 -2.892853
v -9.701128 3.492741 -2.703145
v -9.979585 0.016232 -5.223399
v -11.190929 0.020694 -1.094474
v -5.048105 2.911302 -9.793391
v -7.024576 0.018404 -9.199738
v -7.367617 3.497955 -7.170832
v -7.547268 3.419676 -7.001223
v -7.197502 -0.113031 -9.062620
v -9.779225 0.009507 -5.623202
v -3.291220 -0.117677 -11.200051
v -6.883789 -0.106490 -9.338936
v -4.905102 2.784423 -9.934788
v 0.419009 -0.048854 -11.393187
v -2.885227 -0.126848 -11.296991
v -0.981611 3.399227 -10.402524
v 0.419009 1.397594 -10.998499
vt 0.340277 0.710090
vt 0.245859 0.710090
vt 0.293068 0.682221
vt 0.555509 0.580030
vt 0.585535 0.612753
vt 0.555526 0.645416
vt 0.507207 0.681215
vt 0.601409 0.681215
vt 0.554308 0.709020
vt 0.293170 0.739909
vt 0.246069 0.712103
vt 0.340286 0.712100
vt 0.276954 0.615806
vt 0.324054 0.643611
vt 0.293551 0.676819
vt 0.554308 0.651615
vt 0.600731 0.678989
vt 0.507967 0.678971
vt 0.275761 0.609006
vt 0.275761 0.542457
vt 0.306317 0.575732
vt 0.326429 0.646753
vt 0.343050 0.707874
vt 0.295858 0.680027
vt 0.454869 0.712100
vt 0.549085 0.712103
vt 0.501985 0.739915
vt 0.307436 0.572123
vt 0.276934 0.538925
vt 0.307439 0.505716
vt 0.308026 0.579118
vt 0.324663 0.640262
vt 0.277454 0.612393
vt 0.523043 0.612751
vt 0.553089 0.580091
vt 0.553089 0.645416
vt 0.502087 0.682221
vt 0.549296 0.710090
vt 0.454914 0.710082
vt 0.551208 0.649178
vt 0.504828 0.676587
vt 0.521199 0.616516
vt 0.299166 0.740822
vt 0.345589 0.713417
vt 0.391934 0.740806
vt 0.521603 0.609002
vt 0.521603 0.542606
vt 0.552111 0.575804
vt 0.449565 0.713416
vt 0.495989 0.740822
vt 0.403221 0.740806
vt 0.376386 0.674499
vt 0.345876 0.707698
vt 0.329277 0.646694
vt 0.309878 0.571646
vt 0.309878 0.506204
vt 0.339907 0.538925
vt 0.395033 0.738370
vt 0.348645 0.711014
vt 0.378702 0.678351
vt 0.468725 0.646753
vt 0.499277 0.680026
vt 0.452088 0.707896
vt 0.357938 0.606732
vt 0.327436 0.639930
vt 0.310831 0.578918
vt 0.518208 0.615796
vt 0.501602 0.676809
vt 0.471100 0.643611
vt 0.311733 0.502495
vt 0.358156 0.475089
vt 0.341788 0.535163
vt 0.376884 0.671090
vt 0.329675 0.643220
vt 0.360243 0.609970
vt 0.416446 0.678293
vt 0.446462 0.711013
vt 0.400121 0.738370
vt 0.358156 0.602761
vt 0.311733 0.575355
vt 0.341788 0.542687
vt 0.488822 0.575732
vt 0.519394 0.542457
vt 0.519394 0.609006
vt 0.418777 0.674499
vt 0.465878 0.646694
vt 0.449280 0.707707
vt 0.381217 0.676986
vt 0.413909 0.677025
vt 0.397577 0.737044
vt 0.517700 0.612393
vt 0.470492 0.640262
vt 0.487132 0.579142
vt 0.487716 0.505716
vt 0.518221 0.538925
vt 0.487716 0.572134
vt 0.360664 0.476396
vt 0.376995 0.536489
vt 0.344332 0.536489
vt 0.377025 0.541327
vt 0.360664 0.601453
vt 0.344332 0.541361
vt 0.362537 0.608753
vt 0.395811 0.608753
vt 0.379174 0.669896
vt 0.380978 0.672102
vt 0.397577 0.611098
vt 0.414182 0.672108
vt 0.434908 0.609946
vt 0.465480 0.643220
vt 0.418271 0.671090
vt 0.362539 0.473516
vt 0.395737 0.473516
vt 0.379138 0.534532
vt 0.484318 0.578927
vt 0.467718 0.639930
vt 0.437209 0.606732
vt 0.379138 0.543318
vt 0.395737 0.604334
vt 0.362534 0.604341
vt 0.485277 0.506204
vt 0.485277 0.571646
vt 0.455248 0.538925
vt 0.399344 0.608753
vt 0.432605 0.608768
vt 0.415981 0.669896
vt 0.436999 0.475089
vt 0.483377 0.502500
vt 0.453367 0.535163
vt 0.483422 0.575355
vt 0.436999 0.602761
vt 0.453367 0.542687
vt 0.380940 0.536732
vt 0.397577 0.475588
vt 0.414202 0.536716
vt 0.416017 0.534519
vt 0.399418 0.473516
vt 0.432621 0.473509
vt 0.414215 0.541118
vt 0.397577 0.602261
vt 0.380953 0.541134
vt 0.416017 0.543331
vt 0.432616 0.604334
vt 0.399418 0.604334
vt 0.418130 0.536523
vt 0.434492 0.476469
vt 0.450823 0.536489
vt 0.450823 0.541361
vt 0.434490 0.601453
vt 0.418160 0.541361
vt 0.507099 0.740917
vt 0.554308 0.713048
vt 0.601516 0.740917
vt 0.587427 0.616460
vt 0.603787 0.676587
vt 0.557407 0.649178
vt 0.193638 0.740917
vt 0.240847 0.713048
vt 0.288020 0.740910
vt 0.273966 0.616460
vt 0.290287 0.676535
vt 0.243946 0.649178
vt 0.273555 0.609013
vt 0.243050 0.575804
vt 0.273552 0.542606
vt 0.559319 0.710090
vt 0.606528 0.682235
vt 0.653737 0.710090
vt 0.606631 0.739909
vt 0.559530 0.712103
vt 0.653746 0.712100
vt 0.287948 0.681215
vt 0.240847 0.709020
vt 0.193731 0.681212
vt 0.242065 0.645416
vt 0.242048 0.580030
vt 0.272075 0.612753
vt 0.609318 0.680027
vt 0.631562 0.655817
vt 0.624576 0.689034
vt 0.287271 0.678989
vt 0.194506 0.678971
vt 0.240847 0.651614
vt 0.188524 0.739914
vt 0.141423 0.712103
vt 0.235625 0.712103
vt 0.648293 0.677636
vt 0.656527 0.707896
vt 0.643541 0.700230
vt 0.235835 0.710090
vt 0.141454 0.710083
vt 0.188626 0.682221
vt 0.612626 0.740822
vt 0.659054 0.713450
vt 0.705395 0.740806
vt 0.811607 0.102641
vt 0.828116 0.076898
vt 0.792948 0.127187
vt 0.209583 0.612751
vt 0.239646 0.580030
vt 0.239629 0.645416
vt 0.191368 0.676587
vt 0.207728 0.616460
vt 0.237748 0.649178
vt 0.089760 0.740806
vt 0.136105 0.713417
vt 0.182442 0.740806
vt 0.632767 0.648780
vt 0.607012 0.676819
vt 0.590407 0.615796
vt 0.634066 0.641574
vt 0.662106 0.711014
vt 0.692169 0.678293
vt 0.708494 0.738370
vt 0.138628 0.707896
vt 0.155265 0.646753
vt 0.185817 0.680026
vt 0.188143 0.676819
vt 0.157640 0.643611
vt 0.204747 0.615796
vt 0.086661 0.738370
vt 0.102986 0.678293
vt 0.133002 0.711013
vt 0.135818 0.707698
vt 0.105317 0.674499
vt 0.152417 0.646694
vt 0.694678 0.676986
vt 0.727398 0.676986
vt 0.711038 0.737044
vt 0.653646 0.653133
vt 0.689846 0.674499
vt 0.659336 0.707698
vt 0.649634 0.672042
vn -0.544146 0.834495 -0.086739
vn -0.544146 0.834495 -0.086739
vn -0.544146 0.834495 -0.086739
vn 0.693024 0.142728 -0.706644
vn 0.693024 0.142728 -0.706644
vn 0.693024 0.142728 -0.706644
vn 0.269090 0.705406 -0.655739
vn 0.269090 0.705406 -0.655739
vn 0.269090 0.705406 -0.655739
vn -0.394419 0.893971 -0.212720
vn -0.394419 0.893971 -0.212721
vn -0.394419 0.893971 -0.212720
vn -0.604303 0.719382 0.342501
vn -0.604303 0.719382 0.342501
vn -0.604303 0.719382 0.342501
vn 0.387336 0.636544 -0.666921
vn 0.387336 0.636544 -0.666921
vn 0.387336 0.636544 -0.666921
vn -0.650729 0.394888 0.648549
vn -0.650729 0.394888 0.648549
vn -0.650729 0.394888 0.648549
vn -0.493192 0.841239 0.221538
vn -0.493192 0.841239 0.221538
vn -0.493192 0.841239 0.221538
vn 0.058132 0.892561 -0.447164
vn 0.058132 0.892561 -0.447164
vn 0.058132 0.892561 -0.447164
vn -0.539541 0.295410 0.788434
vn -0.539541 0.295410 0.788434
vn -0.539541 0.295410 0.788434
vn -0.537342 0.659141 0.526115
vn -0.537341 0.659141 0.526115
vn -0.537342 0.659141 0.526115
vn 0.832352 0.338498 -0.438872
vn 0.832352 0.338498 -0.438872
vn 0.832352 0.338498 -0.438872
vn 0.247114 0.832030 -0.496649
vn 0.247114 0.832030 -0.496649
vn 0.247114 0.832030 -0.496649
vn 0.643426 0.643693 -0.414322
vn 0.643426 0.643693 -0.414322
vn 0.643426 0.643693 -0.414322
vn -0.280811 0.946889 -0.156673
vn -0.280811 0.946889 -0.156673
vn -0.280811 0.946889 -0.156673
vn 0.899519 0.283182 -0.332677
vn 0.899519 0.283182 -0.332677
vn 0.899519 0.283182 -0.332677
vn 0.038645 0.945894 -0.322165
vn 0.038645 0.945894 -0.322165
vn 0.038645 0.945894 -0.322165
vn -0.311324 0.904969 0.290015
vn -0.311324 0.904969 0.290015
vn -0.311324 0.904969 0.290015
vn -0.424261 0.355217 0.832961
vn -0.424261 0.355217 0.832961
vn -0.424261 0.355217 0.832961
vn -0.222153 0.954653 0.198206
vn -0.222153 0.954653 0.198206
vn -0.222153 0.954653 0.198206
vn 0.469576 0.838241 -0.277220
vn 0.469576 0.838241 -0.277220
vn 0.469576 0.838241 -0.277220
vn -0.354629 0.726352 0.588771
vn -0.354629 0.726352 0.588771
vn -0.354629 0.726352 0.588771
vn 0.631879 0.715532 -0.297898
vn 0.631879 0.715532 -0.297898
vn 0.631879 0.715532 -0.297898
vn -0.149225 0.171014 0.973902
vn -0.149225 0.171014 0.973902
vn -0.149225 0.171014 0.973902
vn -0.238653 0.848344 0.472607
vn -0.238653 0.848344 0.472607
vn -0.238653 0.848344 0.472607
vn 0.294736 0.953043 -0.069566
vn 0.294736 0.953043 -0.069566
vn 0.294736 0.953043 -0.069566
vn -0.293733 0.659417 0.692019
vn -0.293733 0.659417 0.692019
vn -0.293733 0.659417 0.692019
vn 0.907062 0.390037 -0.158459
vn 0.907062 0.390037 -0.158459
vn 0.907062 0.390037 -0.158459
vn 0.420921 0.902689 -0.089322
vn 0.420921 0.902689 -0.089322
vn 0.420921 0.902689 -0.089322
vn 0.133554 0.958456 0.252041
vn 0.133554 0.958456 0.252041
vn 0.133554 0.958456 0.252041
vn 0.742945 0.655154 -0.137133
vn 0.742945 0.655154 -0.137133
vn 0.742945 0.655154 -0.137133
vn 0.956706 0.290750 0.013310
vn 0.956706 0.290750 0.013310
vn 0.956706 0.290750 0.013310
vn 0.151283 0.361371 0.920068
vn 0.151283 0.361371 0.920068
vn 0.151283 0.361371 0.920068
vn 0.061974 0.663220 0.745854
vn 0.061974 0.663220 0.745854
vn 0.061974 0.663220 0.745854
vn 0.070342 0.851648 0.519372
vn 0.070342 0.851648 0.519372
vn 0.070342 0.851648 0.519372
vn 0.192585 0.910357 0.366280
vn 0.192585 0.910357 0.366280
vn 0.192585 0.910357 0.366280
vn 0.527877 0.845958 0.075507
vn 0.527877 0.845958 0.075507
vn 0.527877 0.845958 0.075507
vn 0.275802 0.304128 0.911833
vn 0.275802 0.304128 0.911833
vn 0.275802 0.304128 0.911833
vn 0.689065 0.723103 0.048088
vn 0.689065 0.723103 0.048088
vn 0.689065 0.723103 0.048088
vn 0.149279 0.731740 0.665036
vn 0.149279 0.731740 0.665036
vn 0.149279 0.731740 0.665036
vn 0.926877 0.351010 0.133008
vn 0.926877 0.351010 0.133008
vn 0.926877 0.351010 0.133008
vn 0.387862 0.850660 0.354882
vn 0.387862 0.850660 0.354882
vn 0.387862 0.850660 0.354882
vn 0.882458 0.167801 0.439443
vn 0.882458 0.167801 0.439443
vn 0.882458 0.167801 0.439443
vn 0.737951 0.656204 0.157559
vn 0.737951 0.656204 0.157559
vn 0.737951 0.656204 0.157559
vn 0.421295 0.406351 0.810796
vn 0.421295 0.406351 0.810796
vn 0.421295 0.406351 0.810796
vn 0.587249 0.303158 0.750489
vn 0.587249 0.303158 0.750489
vn 0.587249 0.303158 0.750489
vn 0.343712 0.668562 0.659459
vn 0.343712 0.668562 0.659459
vn 0.343712 0.668562 0.659459
vn 0.460729 0.730770 0.503690
vn 0.460729 0.730770 0.503690
vn 0.460729 0.730770 0.503690
vn 0.666080 0.359768 0.653379
vn 0.666080 0.359768 0.653379
vn 0.666080 0.359768 0.653379
vn 0.576768 0.661617 0.479167
vn 0.576768 0.661617 0.479167
vn 0.576768 0.661617 0.479167
vn -0.106436 0.828250 -0.550158
vn -0.106436 0.828250 -0.550158
vn -0.106436 0.828250 -0.550158
vn 0.417989 0.326931 -0.847586
vn 0.417989 0.326931 -0.847586
vn 0.417989 0.326931 -0.847586
vn -0.383941 0.829114 -0.406397
vn -0.383941 0.829114 -0.406398
vn -0.383941 0.829114 -0.406397
vn -0.706419 0.647897 0.284959
vn -0.706419 0.647897 0.284959
vn -0.706419 0.647897 0.284959
vn -0.789215 0.288440 0.542165
vn -0.789215 0.288440 0.542165
vn -0.789215 0.288440 0.542165
vn 0.108631 0.637448 -0.762797
vn 0.108631 0.637448 -0.762797
vn 0.108631 0.637448 -0.762797
vn -0.077704 0.701697 -0.708225
vn -0.077704 0.701697 -0.708225
vn -0.077704 0.701697 -0.708225
vn -0.687399 0.708384 -0.160234
vn -0.687399 0.708384 -0.160234
vn -0.687399 0.708384 -0.160234
vn -0.836947 0.343696 0.425902
vn -0.836947 0.343696 0.425902
vn -0.836947 0.343696 0.425902
vn 0.135259 0.368492 -0.919738
vn 0.135259 0.368492 -0.919738
vn 0.135259 0.368492 -0.919738
vn -0.765076 0.640133 -0.069919
vn -0.765076 0.640133 -0.069919
vn -0.765076 0.640133 -0.069919
vn -0.530256 0.703106 -0.473783
vn -0.530256 0.703106 -0.473783
vn -0.530256 0.703106 -0.473783
vn 0.135259 0.368492 -0.919738
vn 0.135259 0.368492 -0.919738
vn 0.135259 0.368492 -0.919738
vn -0.682630 0.639911 -0.352889
vn -0.682630 0.639911 -0.352889
vn -0.682630 0.639911 -0.352889
vn -0.185880 0.630415 -0.753675
vn -0.185880 0.630415 -0.753675
vn -0.185880 0.630415 -0.753675
vn -1.000000 -0.000004 0.000000
vn -1.000000 -0.000004 0.000000
vn -1.000000 -0.000004 0.000000
vn -0.976275 0.147927 0.158129
vn -0.976275 0.147927 0.158129
vn -0.976275 0.147927 0.158129
vn -0.931856 0.331135 -0.148304
vn -0.931856 0.331135 -0.148304
vn -0.931856 0.331135 -0.148304
vn -0.505335 0.631410 -0.588182
vn -0.505335 0.631410 -0.588182
vn -0.505335 0.631410 -0.588182
vn 0.312515 0.266795 -0.911677
vn 0.312515 0.266795 -0.911677
vn 0.312515 0.266795 -0.911677
vn 0.312515 0.266795 -0.911677
vn -0.155227 0.320802 -0.934340
vn -0.155226 0.320802 -0.934340
vn -0.155226 0.320802 -0.934340
vn -0.827509 0.371490 -0.420980
vn -0.827509 0.371490 -0.420980
vn -0.827509 0.371490 -0.420980
vn -0.923667 0.270643 -0.271278
vn -0.923667 0.270643 -0.271278
vn -0.923667 0.270643 -0.271278
vn -0.672114 0.322411 -0.666568
vn -0.672114 0.322411 -0.666568
vn -0.672114 0.322411 -0.666568
vn -0.766523 0.265367 -0.584827
vn -0.766523 0.265367 -0.584827
vn -0.766523 0.265367 -0.584827
vn -0.455737 0.130445 -0.880504
vn -0.455736 0.130445 -0.880505
vn -0.455736 0.130445 -0.880505
vn -0.034279 0.263086 -0.964163
vn -0.034279 0.263086 -0.964163
vn -0.034279 0.263086 -0.964163
vn -0.034279 0.263086 -0.964163
s off
g DomoCristal:polySurface36
usemtl phong1SG
f 1/1/1 2/2/2 3/3/3
f 4/4/4 5/5/5 6/6/6
f 7/7/7 8/8/8 9/9/9
f 10/10/10 11/11/11 12/12/12
f 13/13/13 14/14/14 15/15/15
f 16/16/16 17/17/17 18/18/18
f 19/19/19 20/20/20 21/21/21
f 22/22/22 23/23/23 24/24/24
f 25/25/25 26/26/26 27/27/27
f 28/28/28 29/29/29 30/30/30
f 31/31/31 32/32/32 33/33/33
f 34/34/34 35/35/35 36/36/36
f 37/37/37 38/38/38 39/39/39
f 40/40/40 41/41/41 42/42/42
f 43/43/43 44/44/44 45/45/45
f 46/46/46 47/47/47 48/48/48
f 49/49/49 50/50/50 51/51/51
f 52/52/52 53/53/53 54/54/54
f 55/55/55 56/56/56 57/57/57
f 58/58/58 59/59/59 60/60/60
f 61/61/61 62/62/62 63/63/63
f 64/64/64 65/65/65 66/66/66
f 67/67/67 68/68/68 69/69/69
f 70/70/70 71/71/71 72/72/72
f 73/73/73 74/74/74 75/75/75
f 76/76/76 77/77/77 78/78/78
f 79/79/79 80/80/80 81/81/81
f 82/82/82 83/83/83 84/84/84
f 85/85/85 86/86/86 87/87/87
f 88/88/88 89/89/89 90/90/90
f 91/91/91 92/92/92 93/93/93
f 94/94/94 95/95/95 96/96/96
f 97/97/97 98/98/98 99/99/99
f 100/100/100 101/101/101 102/102/102
f 103/103/103 104/104/104 105/105/105
f 106/106/106 107/107/107 108/108/108
f 109/109/109 110/110/110 111/111/111
f 112/112/112 113/113/113 114/114/114
f 115/115/115 116/116/116 117/117/117
f 118/118/118 119/119/119 120/120/120
f 121/121/121 122/122/122 123/123/123
f 124/124/124 125/125/125 126/126/126
f 127/127/127 128/128/128 129/129/129
f 130/130/130 131/131/131 132/132/132
f 133/133/133 134/134/134 135/135/135
f 136/136/136 137/137/137 138/138/138
f 139/139/139 140/140/140 141/141/141
f 142/142/142 143/143/143 144/144/144
f 145/145/145 146/146/146 147/147/147
f 148/148/148 149/149/149 150/150/150
f 151/151/151 152/152/152 153/153/153
f 154/154/154 155/155/155 156/156/156
f 157/157/157 158/158/158 159/159/159
f 160/160/160 161/161/161 162/162/162
f 163/163/163 164/164/164 165/165/165
f 166/166/166 167/167/167 168/168/168
f 169/169/169 170/170/170 171/171/171
f 172/172/172 173/173/173 174/174/174
f 175/175/175 176/176/176 177/177/177
f 178/178/178 179/179/179 180/180/180
f 181/181/181 182/182/182 183/183/183
f 184/184/184 185/185/185 186/186/186
f 187/187/187 188/188/188 189/189/189
f 190/190/190 191/191/191 192/192/192
f 193/193/193 194/194/194 195/195/195
f 196/196/196 197/197/197 179/198/198
f 198/199/199 199/200/200 200/201/201
f 201/202/202 202/203/203 203/204/204
f 204/205/205 205/206/206 206/207/207
f 196/208/208 207/209/209 208/210/210 197/211/211
f 209/212/212 210/213/213 211/214/214
f 212/215/215 213/216/216 214/217/217
f 215/218/218 216/219/219 217/220/220
f 218/221/221 219/222/222 220/223/223
f 221/224/224 222/225/225 223/226/226
f 224/227/227 225/228/228 226/229/229
f 227/230/230 228/231/231 229/232/232 230/233/233
